 <svg xmlns="http://www.w3.org/2000/svg">
     <g>
       <rect x="175" y="0" width="1" height="155" stroke="none" stroke-width="0" fill="#cccccc" />
       <rect x="275" y="0" width="1" height="155" stroke="none" stroke-width="0" fill="#cccccc" />
       <rect x="375" y="0" width="1" height="155" stroke="none" stroke-width="0" fill="#cccccc" />
       <rect x="475" y="0" width="1" height="155" stroke="none" stroke-width="0" fill="#cccccc" />
       <rect x="575" y="0" width="1" height="155" stroke="none" stroke-width="0" fill="#cccccc" />
       <rect x="225" y="0" width="1" height="155" stroke="none" stroke-width="0" fill="#ebebeb" />
       <rect x="325" y="0" width="1" height="155" stroke="none" stroke-width="0" fill="#ebebeb" />
       <rect x="425" y="0" width="1" height="155" stroke="none" stroke-width="0" fill="#ebebeb" />
       <rect x="525" y="0" width="1" height="155" stroke="none" stroke-width="0" fill="#ebebeb" />
       <rect x="175" y="155" width="450" height="1" stroke="none" stroke-width="0" fill="#ebebeb" />
       <text x="400" y="175" font-family="Arial" font-size="13" fill="#666" text-anchor="middle">call / 1sec</text>
    </g>
<g>
    <rect x="175" y="20" width="350.000000" height="25" fill="#FFAB7B" rx="2" ry="2" stroke-linejoin="round"/>
    <text x="160" y="35" font-family="Arial" font-size="13" fill="#666" text-anchor="end">mustache.java</text>
    <text x="375" y="37" font-family="Arial" font-size="11" fill="#666" text-anchor="middle">3252120call  (GC 15)</text>
</g>
<g>
    <rect x="175" y="65" width="305.775171" height="25" fill="#FFAB7B" rx="2" ry="2" stroke-linejoin="round"/>
    <text x="160" y="80" font-family="Arial" font-size="13" fill="#666" text-anchor="end">jmustache</text>
    <text x="375" y="82" font-family="Arial" font-size="11" fill="#666" text-anchor="middle">2841193call  (GC 11)</text>
</g>
<g>
    <rect x="175" y="110" width="299.843902" height="25" fill="#FFAB7B" rx="2" ry="2" stroke-linejoin="round"/>
    <text x="160" y="125" font-family="Arial" font-size="13" fill="#666" text-anchor="end">sinobu</text>
    <text x="375" y="127" font-family="Arial" font-size="11" fill="#666" text-anchor="middle">2786081call  (GC 12)</text>
</g>
</svg>
