<svg xmlns="http://www.w3.org/2000/svg" viewBox="0 0 625 194">
  <style>
      text {
          font-family: Arial;
          font-size: 13px;
          fill: #787878;
      }

      .desc {
          font-size: 9px;
      }

      .vline {
          fill: #acacac;
          stroke: none;
          stroke-width: 0;
      }

      .subline {
          fill: #bbb;
          stroke: none;
          stroke-width: 0;
      }

      .call {
          fill: #4886CD;
          stroke-linejoin: round;
          height: 14px;
      }

      .gc {
          fill: #4FB84B;
          stroke-linejoin: round;
          height: 14px;
      }
  </style>
  <g>
    <rect x="175" y="0" width="1" height="164" class="vline"/>
    <rect x="275" y="0" width="1" height="164" class="vline"/>
    <rect x="375" y="0" width="1" height="164" class="vline"/>
    <rect x="475" y="0" width="1" height="164" class="vline"/>
    <rect x="575" y="0" width="1" height="164" class="vline"/>
    <rect x="225" y="0" width="1" height="164" class="subline"/>
    <rect x="325" y="0" width="1" height="164" class="subline"/>
    <rect x="425" y="0" width="1" height="164" class="subline"/>
    <rect x="525" y="0" width="1" height="164" class="subline"/>
    <rect x="175" y="164" width="450" height="1" class="subline"/>

    <rect x="265" y="172" width="30" class="call"/>
    <text x="305" y="184">ns / call</text>
    <rect x="395" y="172" width="30" class="gc"/>
    <text x="435" y="184">GC</text>
  </g>

  <rect x="175" y="20" width="222.727273" rx="2" ry="2" class="call"/>
  <rect x="175" y="34" width="150.000000" rx="2" ry="2" class="gc"/>
  <text x="160" y="37" text-anchor="end">sinobu</text>
  <text x="404.727273" y="30" class="desc">126</text>
  <text x="332.000000" y="44" class="desc">34</text>

  <rect x="175" y="68" width="298.737374" rx="2" ry="2" class="call"/>
  <rect x="175" y="82" width="107.758621" rx="2" ry="2" class="gc"/>
  <text x="160" y="85" text-anchor="end">jmustache</text>
  <text x="480.737374" y="78" class="desc">169</text>
  <text x="289.758621" y="92" class="desc">25</text>

  <rect x="175" y="116" width="350.000000" rx="2" ry="2" class="call"/>
  <rect x="175" y="130" width="100.862069" rx="2" ry="2" class="gc"/>
  <text x="160" y="133" text-anchor="end">mustache.java</text>
  <text x="532.000000" y="126" class="desc">198</text>
  <text x="282.862069" y="140" class="desc">23</text>

  <text x="205" y="204" class="desc">Java: 19</text>
  <text x="275" y="204" class="desc">Memory: 8128MB</text>
  <text x="375" y="204" class="desc">CPU: 12th Gen Intel(R) Core(TM) i5-12400 2.5GHz</text>
</svg>
