<svg xmlns="http://www.w3.org/2000/svg" viewBox="0 0 625 290">
  <style>
      text {
          font-family: Arial;
          font-size: 13px;
          fill: #787878;
      }

      .desc {
          font-size: 9px;
      }

      .vline {
          fill: #acacac;
          stroke: none;
          stroke-width: 0;
      }

      .subline {
          fill: #bbb;
          stroke: none;
          stroke-width: 0;
      }

      .call {
          fill: #4886CD;
          stroke-linejoin: round;
          height: 14px;
      }

      .gc {
          fill: #4FB84B;
          stroke-linejoin: round;
          height: 14px;
      }
  </style>
  <g>
    <rect x="175" y="0" width="1" height="260" class="vline"/>
    <rect x="275" y="0" width="1" height="260" class="vline"/>
    <rect x="375" y="0" width="1" height="260" class="vline"/>
    <rect x="475" y="0" width="1" height="260" class="vline"/>
    <rect x="575" y="0" width="1" height="260" class="vline"/>
    <rect x="225" y="0" width="1" height="260" class="subline"/>
    <rect x="325" y="0" width="1" height="260" class="subline"/>
    <rect x="425" y="0" width="1" height="260" class="subline"/>
    <rect x="525" y="0" width="1" height="260" class="subline"/>
    <rect x="175" y="260" width="450" height="1" class="subline"/>

    <rect x="265" y="268" width="30" class="call"/>
    <text x="305" y="280">ns / call</text>
    <rect x="395" y="268" width="30" class="gc"/>
    <text x="435" y="280">GC</text>
   </g>
  <g>
    <rect x="175" y="20" width="201.456727" rx="2" ry="2" class="call"/>
    <rect x="175" y="34" width="41.899441" rx="2" ry="2" class="gc"/>
    <text x="160" y="37" text-anchor="end">Sinobu</text>
    <text x="383.456727" y="30" class="desc">4702</text>
    <text x="223.899441" y="44" class="desc">10</text>
  </g>
  <g>
    <rect x="175" y="68" width="212.210797" rx="2" ry="2" class="call"/>
    <rect x="175" y="82" width="150.000000" rx="2" ry="2" class="gc"/>
    <text x="160" y="85" text-anchor="end">FastJson</text>
    <text x="394.210797" y="78" class="desc">4953</text>
    <text x="332.000000" y="92" class="desc">35</text>
  </g>
  <g>
    <rect x="175" y="116" width="223.221937" rx="2" ry="2" class="call"/>
    <rect x="175" y="130" width="43.575419" rx="2" ry="2" class="gc"/>
    <text x="160" y="133" text-anchor="end">New Parser</text>
    <text x="405.221937" y="126" class="desc">5210</text>
    <text x="225.575419" y="140" class="desc">10</text>
  </g>
  <g>
    <rect x="175" y="164" width="239.288775" rx="2" ry="2" class="call"/>
    <rect x="175" y="178" width="88.826816" rx="2" ry="2" class="gc"/>
    <text x="160" y="181" text-anchor="end">Jackson</text>
    <text x="421.288775" y="174" class="desc">5585</text>
    <text x="270.826816" y="188" class="desc">21</text>
  </g>
  <g>
    <rect x="175" y="212" width="350.000000" rx="2" ry="2" class="call"/>
    <rect x="175" y="226" width="93.854749" rx="2" ry="2" class="gc"/>
    <text x="160" y="229" text-anchor="end">Gson</text>
    <text x="532.000000" y="222" class="desc">8169</text>
    <text x="275.854749" y="236" class="desc">22</text>
  </g>
</svg>
