<svg xmlns="http://www.w3.org/2000/svg" viewBox="0 0 625 386">
  <style>
      text {
          font-family: Arial;
          font-size: 13px;
          fill: #787878;
      }

      .desc {
          font-size: 9px;
      }

      .vline {
          fill: #acacac;
          stroke: none;
          stroke-width: 0;
      }

      .subline {
          fill: #bbb;
          stroke: none;
          stroke-width: 0;
      }

      .call {
          fill: #4886CD;
          stroke-linejoin: round;
          height: 14px;
      }

      .gc {
          fill: #4FB84B;
          stroke-linejoin: round;
          height: 14px;
      }
  </style>
  <g>
    <rect x="175" y="0" width="1" height="356" class="vline"/>
    <rect x="275" y="0" width="1" height="356" class="vline"/>
    <rect x="375" y="0" width="1" height="356" class="vline"/>
    <rect x="475" y="0" width="1" height="356" class="vline"/>
    <rect x="575" y="0" width="1" height="356" class="vline"/>
    <rect x="225" y="0" width="1" height="356" class="subline"/>
    <rect x="325" y="0" width="1" height="356" class="subline"/>
    <rect x="425" y="0" width="1" height="356" class="subline"/>
    <rect x="525" y="0" width="1" height="356" class="subline"/>
    <rect x="175" y="356" width="450" height="1" class="subline"/>

    <rect x="265" y="364" width="30" class="call"/>
    <text x="305" y="376">ns / call</text>
    <rect x="395" y="364" width="30" class="gc"/>
    <text x="435" y="376">GC</text>
   </g>
  <g>
    <rect x="175" y="20" width="114.982380" rx="2" ry="2" class="call"/>
    <rect x="175" y="34" width="17.045455" rx="2" ry="2" class="gc"/>
    <text x="160" y="37" text-anchor="end">Sinobu</text>
    <text x="296.982380" y="30" class="desc">8670</text>
    <text x="199.045455" y="44" class="desc">5</text>
  </g>
  <g>
    <rect x="175" y="68" width="144.676215" rx="2" ry="2" class="call"/>
    <rect x="175" y="82" width="54.545455" rx="2" ry="2" class="gc"/>
    <text x="160" y="85" text-anchor="end">FastJson</text>
    <text x="326.676215" y="78" class="desc">10909</text>
    <text x="236.545455" y="92" class="desc">16</text>
  </g>
  <g>
    <rect x="175" y="116" width="154.742147" rx="2" ry="2" class="call"/>
    <rect x="175" y="130" width="34.090909" rx="2" ry="2" class="gc"/>
    <text x="160" y="133" text-anchor="end">Jackson Afterburner</text>
    <text x="336.742147" y="126" class="desc">11668</text>
    <text x="216.090909" y="140" class="desc">10</text>
  </g>
  <g>
    <rect x="175" y="164" width="162.129135" rx="2" ry="2" class="call"/>
    <rect x="175" y="178" width="31.363636" rx="2" ry="2" class="gc"/>
    <text x="160" y="181" text-anchor="end">Jackson</text>
    <text x="344.129135" y="174" class="desc">12225</text>
    <text x="213.363636" y="188" class="desc">9</text>
  </g>
  <g>
    <rect x="175" y="212" width="204.236293" rx="2" ry="2" class="call"/>
    <rect x="175" y="226" width="40.909091" rx="2" ry="2" class="gc"/>
    <text x="160" y="229" text-anchor="end">Gson</text>
    <text x="386.236293" y="222" class="desc">15400</text>
    <text x="222.909091" y="236" class="desc">12</text>
  </g>
  <g>
    <rect x="175" y="260" width="295.890645" rx="2" ry="2" class="call"/>
    <rect x="175" y="274" width="150.000000" rx="2" ry="2" class="gc"/>
    <text x="160" y="277" text-anchor="end">NanoJson</text>
    <text x="477.890645" y="270" class="desc">22311</text>
    <text x="332.000000" y="284" class="desc">44</text>
  </g>
  <g>
    <rect x="175" y="308" width="350.000000" rx="2" ry="2" class="call"/>
    <rect x="175" y="322" width="23.863636" rx="2" ry="2" class="gc"/>
    <text x="160" y="325" text-anchor="end">Jsoniter</text>
    <text x="532.000000" y="318" class="desc">26391</text>
    <text x="205.863636" y="332" class="desc">7</text>
  </g>
</svg>
