<svg xmlns="http://www.w3.org/2000/svg" viewBox="0 0 625 290">
  <style>
      text {
          font-family: Arial;
          font-size: 13px;
          fill: #787878;
      }

      .desc {
          font-size: 9px;
      }

      .vline {
          fill: #acacac;
          stroke: none;
          stroke-width: 0;
      }

      .subline {
          fill: #bbb;
          stroke: none;
          stroke-width: 0;
      }

      .call {
          fill: #4886CD;
          stroke-linejoin: round;
          height: 14px;
      }

      .gc {
          fill: #4FB84B;
          stroke-linejoin: round;
          height: 14px;
      }
  </style>
  <g>
    <rect x="175" y="0" width="1" height="260" class="vline"/>
    <rect x="275" y="0" width="1" height="260" class="vline"/>
    <rect x="375" y="0" width="1" height="260" class="vline"/>
    <rect x="475" y="0" width="1" height="260" class="vline"/>
    <rect x="575" y="0" width="1" height="260" class="vline"/>
    <rect x="225" y="0" width="1" height="260" class="subline"/>
    <rect x="325" y="0" width="1" height="260" class="subline"/>
    <rect x="425" y="0" width="1" height="260" class="subline"/>
    <rect x="525" y="0" width="1" height="260" class="subline"/>
    <rect x="175" y="260" width="450" height="1" class="subline"/>

    <rect x="265" y="268" width="30" class="call"/>
    <text x="305" y="280">ns / call</text>
    <rect x="395" y="268" width="30" class="gc"/>
    <text x="435" y="280">GC</text>
  </g>

  <rect x="175" y="20" width="213.260200" rx="2" ry="2" class="call"/>
  <rect x="175" y="34" width="51.282051" rx="2" ry="2" class="gc"/>
  <text x="160" y="37" text-anchor="end">Sinobu</text>
  <text x="395.260200" y="30" class="desc">3166</text>
  <text x="233.282051" y="44" class="desc">16</text>

  <rect x="175" y="68" width="220.467667" rx="2" ry="2" class="call"/>
  <rect x="175" y="82" width="150.000000" rx="2" ry="2" class="gc"/>
  <text x="160" y="85" text-anchor="end">FastJson</text>
  <text x="402.467667" y="78" class="desc">3273</text>
  <text x="332.000000" y="92" class="desc">46</text>

  <rect x="175" y="116" width="224.643957" rx="2" ry="2" class="call"/>
  <rect x="175" y="130" width="48.076923" rx="2" ry="2" class="gc"/>
  <text x="160" y="133" text-anchor="end">SinobuFind</text>
  <text x="406.643957" y="126" class="desc">3335</text>
  <text x="230.076923" y="140" class="desc">15</text>

  <rect x="175" y="164" width="322.786759" rx="2" ry="2" class="call"/>
  <rect x="175" y="178" width="78.846154" rx="2" ry="2" class="gc"/>
  <text x="160" y="181" text-anchor="end">Jackson</text>
  <text x="504.786759" y="174" class="desc">4792</text>
  <text x="260.846154" y="188" class="desc">24</text>

  <rect x="175" y="212" width="350.000000" rx="2" ry="2" class="call"/>
  <rect x="175" y="226" width="120.512821" rx="2" ry="2" class="gc"/>
  <text x="160" y="229" text-anchor="end">Gson</text>
  <text x="532.000000" y="222" class="desc">5196</text>
  <text x="302.512821" y="236" class="desc">37</text>

  <text x="205" y="300" class="desc">Java: 19</text>
  <text x="275" y="300" class="desc">Memory: 8128MB</text>
  <text x="375" y="300" class="desc">CPU: 12th Gen Intel(R) Core(TM) i5-12400 2.5GHz</text>
</svg>
