<svg xmlns="http://www.w3.org/2000/svg" viewBox="0 0 625 242">
  <style>
      text {
          font-family: Arial;
          font-size: 13px;
          fill: #666;
      }

      .vline {
          fill: #ccc;
          stroke: none;
          stroke-width: 0;
      }

      .subline {
          fill: #ccc;
          stroke: none;
          stroke-width: 0;
      }

      .call {
          fill: #4886CD;
          stroke-linejoin: round;
          height: 14px;
      }

      .gc {
          fill: #4FB84B;
          stroke-linejoin: round;
          height: 14px;
      }

      @media (prefers-color-scheme: dark) {
          text {
              fill: #F8F8F8;
          }
      }
  </style>
  <g>
    <rect x="175" y="0" width="1" height="212" class="vline"/>
    <rect x="275" y="0" width="1" height="212" class="vline"/>
    <rect x="375" y="0" width="1" height="212" class="vline"/>
    <rect x="475" y="0" width="1" height="212" class="vline"/>
    <rect x="575" y="0" width="1" height="212" class="vline"/>
    <rect x="225" y="0" width="1" height="212" class="subline"/>
    <rect x="325" y="0" width="1" height="212" class="subline"/>
    <rect x="425" y="0" width="1" height="212" class="subline"/>
    <rect x="525" y="0" width="1" height="212" class="subline"/>
    <rect x="175" y="212" width="450" height="1" class="subline"/>

    <rect x="235" y="220" width="30" class="call"/>
    <text x="275" y="232">ns / call</text>
    <rect x="365" y="220" width="30" class="gc"/>
    <text x="405" y="232">GC</text>
   </g>
  <g>
    <rect x="175" y="20" width="213.756808" rx="2" ry="2" class="call"/>
    <rect x="175" y="34" width="45.394737" rx="2" ry="2" class="gc"/>
    <text x="160" y="37" text-anchor="end">Sinobu</text>
    <text x="398.756808" y="32" font-size="10" fill="#666">9980 ns</text>
    <text x="230.394737" y="46" font-size="10" fill="#666">4 times</text>
  </g>
  <g>
    <rect x="175" y="68" width="246.248700" rx="2" ry="2" class="call"/>
    <rect x="175" y="82" width="150.000000" rx="2" ry="2" class="gc"/>
    <text x="160" y="85" text-anchor="end">FastJson</text>
    <text x="431.248700" y="80" font-size="10" fill="#666">11497 ns</text>
    <text x="335.000000" y="94" font-size="10" fill="#666">15 times</text>
  </g>
  <g>
    <rect x="175" y="116" width="283.281317" rx="2" ry="2" class="call"/>
    <rect x="175" y="130" width="84.868421" rx="2" ry="2" class="gc"/>
    <text x="160" y="133" text-anchor="end">Jackson</text>
    <text x="468.281317" y="128" font-size="10" fill="#666">13226 ns</text>
    <text x="269.868421" y="142" font-size="10" fill="#666">8 times</text>
  </g>
  <g>
    <rect x="175" y="164" width="350.000000" rx="2" ry="2" class="call"/>
    <rect x="175" y="178" width="108.552632" rx="2" ry="2" class="gc"/>
    <text x="160" y="181" text-anchor="end">Gson</text>
    <text x="535.000000" y="176" font-size="10" fill="#666">16341 ns</text>
    <text x="293.552632" y="190" font-size="10" fill="#666">11 times</text>
  </g>
</svg>
