<svg xmlns="http://www.w3.org/2000/svg" viewBox="0 0 625 290">
  <style>
      text {
          font-family: Arial;
          font-size: 13px;
          fill: #787878;
      }

      .desc {
          font-size: 9px;
      }

      .vline {
          fill: #acacac;
          stroke: none;
          stroke-width: 0;
      }

      .subline {
          fill: #bbb;
          stroke: none;
          stroke-width: 0;
      }

      .call {
          fill: #4886CD;
          stroke-linejoin: round;
          height: 14px;
      }

      .gc {
          fill: #4FB84B;
          stroke-linejoin: round;
          height: 14px;
      }
  </style>
  <g>
    <rect x="175" y="0" width="1" height="260" class="vline"/>
    <rect x="275" y="0" width="1" height="260" class="vline"/>
    <rect x="375" y="0" width="1" height="260" class="vline"/>
    <rect x="475" y="0" width="1" height="260" class="vline"/>
    <rect x="575" y="0" width="1" height="260" class="vline"/>
    <rect x="225" y="0" width="1" height="260" class="subline"/>
    <rect x="325" y="0" width="1" height="260" class="subline"/>
    <rect x="425" y="0" width="1" height="260" class="subline"/>
    <rect x="525" y="0" width="1" height="260" class="subline"/>
    <rect x="175" y="260" width="450" height="1" class="subline"/>

    <rect x="265" y="268" width="30" class="call"/>
    <text x="305" y="280">ns / call</text>
    <rect x="395" y="268" width="30" class="gc"/>
    <text x="435" y="280">GC</text>
   </g>
  <g>
    <rect x="175" y="20" width="215.430239" rx="2" ry="2" class="call"/>
    <rect x="175" y="34" width="150.000000" rx="2" ry="2" class="gc"/>
    <text x="160" y="37" text-anchor="end">FastJson</text>
    <text x="397.430239" y="30" class="desc">3269</text>
    <text x="332.000000" y="44" class="desc">46</text>
  </g>
  <g>
    <rect x="175" y="68" width="226.237997" rx="2" ry="2" class="call"/>
    <rect x="175" y="82" width="48.283262" rx="2" ry="2" class="gc"/>
    <text x="160" y="85" text-anchor="end">Sinobu</text>
    <text x="408.237997" y="78" class="desc">3433</text>
    <text x="230.283262" y="92" class="desc">15</text>
  </g>
  <g>
    <rect x="175" y="116" width="230.587460" rx="2" ry="2" class="call"/>
    <rect x="175" y="130" width="45.064378" rx="2" ry="2" class="gc"/>
    <text x="160" y="133" text-anchor="end">SinobuFind</text>
    <text x="412.587460" y="126" class="desc">3499</text>
    <text x="227.064378" y="140" class="desc">14</text>
  </g>
  <g>
    <rect x="175" y="164" width="312.238750" rx="2" ry="2" class="call"/>
    <rect x="175" y="178" width="81.115880" rx="2" ry="2" class="gc"/>
    <text x="160" y="181" text-anchor="end">Jackson</text>
    <text x="494.238750" y="174" class="desc">4738</text>
    <text x="263.115880" y="188" class="desc">25</text>
  </g>
  <g>
    <rect x="175" y="212" width="350.000000" rx="2" ry="2" class="call"/>
    <rect x="175" y="226" width="118.454936" rx="2" ry="2" class="gc"/>
    <text x="160" y="229" text-anchor="end">Gson</text>
    <text x="532.000000" y="222" class="desc">5311</text>
    <text x="300.454936" y="236" class="desc">36</text>
  </g>
</svg>
