<svg xmlns="http://www.w3.org/2000/svg" viewBox="0 0 625 242">
  <style>
      text {
          font-family: Arial;
          font-size: 13px;
          fill: #787878;
      }

      .desc {
          font-size: 9px;
      }

      .vline {
          fill: #acacac;
          stroke: none;
          stroke-width: 0;
      }

      .subline {
          fill: #bbb;
          stroke: none;
          stroke-width: 0;
      }

      .call {
          fill: #4886CD;
          stroke-linejoin: round;
          height: 14px;
      }

      .gc {
          fill: #4FB84B;
          stroke-linejoin: round;
          height: 14px;
      }
  </style>
  <g>
    <rect x="175" y="0" width="1" height="212" class="vline"/>
    <rect x="275" y="0" width="1" height="212" class="vline"/>
    <rect x="375" y="0" width="1" height="212" class="vline"/>
    <rect x="475" y="0" width="1" height="212" class="vline"/>
    <rect x="575" y="0" width="1" height="212" class="vline"/>
    <rect x="225" y="0" width="1" height="212" class="subline"/>
    <rect x="325" y="0" width="1" height="212" class="subline"/>
    <rect x="425" y="0" width="1" height="212" class="subline"/>
    <rect x="525" y="0" width="1" height="212" class="subline"/>
    <rect x="175" y="212" width="450" height="1" class="subline"/>

    <rect x="265" y="220" width="30" class="call"/>
    <text x="305" y="232">ns / call</text>
    <rect x="395" y="220" width="30" class="gc"/>
    <text x="435" y="232">GC</text>
   </g>
  <g>
    <rect x="175" y="20" width="170.193789" rx="2" ry="2" class="call"/>
    <rect x="175" y="34" width="46.446701" rx="2" ry="2" class="gc"/>
    <text x="160" y="37" text-anchor="end">Sinobu</text>
    <text x="352.193789" y="30" class="desc">3789</text>
    <text x="228.446701" y="44" class="desc">12</text>
  </g>
  <g>
    <rect x="175" y="68" width="207.745123" rx="2" ry="2" class="call"/>
    <rect x="175" y="82" width="150.000000" rx="2" ry="2" class="gc"/>
    <text x="160" y="85" text-anchor="end">FastJson</text>
    <text x="389.745123" y="78" class="desc">4625</text>
    <text x="332.000000" y="92" class="desc">39</text>
  </g>
  <g>
    <rect x="175" y="116" width="246.509240" rx="2" ry="2" class="call"/>
    <rect x="175" y="130" width="81.472081" rx="2" ry="2" class="gc"/>
    <text x="160" y="133" text-anchor="end">Jackson</text>
    <text x="428.509240" y="126" class="desc">5488</text>
    <text x="263.472081" y="140" class="desc">21</text>
  </g>
  <g>
    <rect x="175" y="164" width="350.000000" rx="2" ry="2" class="call"/>
    <rect x="175" y="178" width="89.847716" rx="2" ry="2" class="gc"/>
    <text x="160" y="181" text-anchor="end">Gson</text>
    <text x="532.000000" y="174" class="desc">7792</text>
    <text x="271.847716" y="188" class="desc">23</text>
  </g>
</svg>
