<svg xmlns="http://www.w3.org/2000/svg" viewBox="0 0 625 246">
  <style>
      text {
          font-family: Arial;
          font-size: 13px;
          fill: #787878;
      }

      .desc {
          font-size: 9px;
      }

      .vline {
          fill: #acacac;
          stroke: none;
          stroke-width: 0;
      }

      .subline {
          fill: #bbb;
          stroke: none;
          stroke-width: 0;
      }

      .bar {
          stroke-linejoin: round;
          height: 12px;
      }
  </style>
  <rect x="175" y="0" width="1" height="196" class="vline"/>
  <rect x="275" y="0" width="1" height="196" class="vline"/>
  <rect x="375" y="0" width="1" height="196" class="vline"/>
  <rect x="475" y="0" width="1" height="196" class="vline"/>
  <rect x="575" y="0" width="1" height="196" class="vline"/>
  <rect x="225" y="0" width="1" height="196" class="subline"/>
  <rect x="325" y="0" width="1" height="196" class="subline"/>
  <rect x="425" y="0" width="1" height="196" class="subline"/>
  <rect x="525" y="0" width="1" height="196" class="subline"/>
  <rect x="175" y="196" width="450" height="1" class="subline"/>

  <rect x="205" y="204" width="30" fill="#4886CD" class="bar"/>
  <text x="245" y="216">ns / call</text>
  <rect x="400" y="204" width="30" fill="#4FB84B" class="bar"/>
  <text x="440" y="216">GC</text>
  <text x="160" y="37" text-anchor="end">Sinobu</text>
  <text x="160" y="47" text-anchor="end" class="desc">4.11.1</text>
  <rect x="175" y="20" width="134.23" rx="2" ry="2" fill="#4886CD" class="bar"/>
  <text x="316.23" y="30" class="desc">265</text>
  <rect x="175" y="32" width="31.34" rx="2" ry="2" fill="#4FB84B" class="bar"/>
  <text x="213.34" y="42" class="desc">3</text>
  <text x="160" y="81" text-anchor="end">FastJson</text>
  <text x="160" y="91" text-anchor="end" class="desc">2.0.57.android8</text>
  <rect x="175" y="64" width="134.23" rx="2" ry="2" fill="#4886CD" class="bar"/>
  <text x="316.23" y="74" class="desc">265</text>
  <rect x="175" y="76" width="52.24" rx="2" ry="2" fill="#4FB84B" class="bar"/>
  <text x="234.24" y="86" class="desc">5</text>
  <text x="160" y="125" text-anchor="end">Jackson</text>
  <text x="160" y="135" text-anchor="end" class="desc">2.19.0</text>
  <rect x="175" y="108" width="218.81" rx="2" ry="2" fill="#4886CD" class="bar"/>
  <text x="400.81" y="118" class="desc">432</text>
  <rect x="175" y="120" width="73.13" rx="2" ry="2" fill="#4FB84B" class="bar"/>
  <text x="255.13" y="130" class="desc">7</text>
  <text x="160" y="169" text-anchor="end">Gson</text>
  <text x="160" y="179" text-anchor="end" class="desc">2.13.1</text>
  <rect x="175" y="152" width="350.00" rx="2" ry="2" fill="#4886CD" class="bar"/>
  <text x="532.00" y="162" class="desc">691</text>
  <rect x="175" y="164" width="135.82" rx="2" ry="2" fill="#4FB84B" class="bar"/>
  <text x="317.82" y="174" class="desc">13</text>
  <text x="175" y="236" class="desc">Java: 24</text>
  <text x="245" y="236" class="desc">Memory: 4072MB</text>
  <text x="345" y="236" class="desc">CPU: Intel(R) Core(TM) i7-3770K CPU @ 3.50GHz 3.501GHz</text>
</svg>
