<svg xmlns="http://www.w3.org/2000/svg" viewBox="0 0 625 262">
  <style>
      text {
          font-family: Arial;
          font-size: 13px;
          fill: #787878;
      }

      .desc {
          font-size: 9px;
      }

      .vline {
          fill: #acacac;
          stroke: none;
          stroke-width: 0;
      }

      .subline {
          fill: #bbb;
          stroke: none;
          stroke-width: 0;
      }

      .call {
          fill: #4886CD;
          stroke-linejoin: round;
          height: 14px;
      }

      .gc {
          fill: #4FB84B;
          stroke-linejoin: round;
          height: 14px;
      }
  </style>
  <g>
    <rect x="175" y="0" width="1" height="212" class="vline"/>
    <rect x="275" y="0" width="1" height="212" class="vline"/>
    <rect x="375" y="0" width="1" height="212" class="vline"/>
    <rect x="475" y="0" width="1" height="212" class="vline"/>
    <rect x="575" y="0" width="1" height="212" class="vline"/>
    <rect x="225" y="0" width="1" height="212" class="subline"/>
    <rect x="325" y="0" width="1" height="212" class="subline"/>
    <rect x="425" y="0" width="1" height="212" class="subline"/>
    <rect x="525" y="0" width="1" height="212" class="subline"/>
    <rect x="175" y="212" width="450" height="1" class="subline"/>

    <rect x="265" y="220" width="30" class="call"/>
    <text x="305" y="232">ns / call</text>
    <rect x="395" y="220" width="30" class="gc"/>
    <text x="435" y="232">GC</text>
  </g>

  <rect x="175" y="20" width="164.514029" rx="2" ry="2" class="call"/>
  <rect x="175" y="34" width="150.000000" rx="2" ry="2" class="gc"/>
  <text x="160" y="37" text-anchor="end">FastJson</text>
  <text x="160" y="47" text-anchor="end" class="desc">2.0.22</text>
  <text x="346.514029" y="30" class="desc">6968834</text>
  <text x="332.000000" y="44" class="desc">11</text>

  <rect x="175" y="68" width="251.642134" rx="2" ry="2" class="call"/>
  <rect x="175" y="82" width="129.310345" rx="2" ry="2" class="gc"/>
  <text x="160" y="85" text-anchor="end">Jackson</text>
  <text x="160" y="95" text-anchor="end" class="desc">2.14.1</text>
  <text x="433.642134" y="78" class="desc">10659591</text>
  <text x="311.310345" y="92" class="desc">10</text>

  <rect x="175" y="116" width="309.151461" rx="2" ry="2" class="call"/>
  <rect x="175" y="130" width="87.931034" rx="2" ry="2" class="gc"/>
  <text x="160" y="133" text-anchor="end">Sinobu</text>
  <text x="160" y="143" text-anchor="end" class="desc">3.1.0</text>
  <text x="491.151461" y="126" class="desc">13095693</text>
  <text x="269.931034" y="140" class="desc">6</text>

  <rect x="175" y="164" width="350.000000" rx="2" ry="2" class="call"/>
  <rect x="175" y="178" width="142.241379" rx="2" ry="2" class="gc"/>
  <text x="160" y="181" text-anchor="end">Gson</text>
  <text x="160" y="191" text-anchor="end" class="desc">2.10.1</text>
  <text x="532.000000" y="174" class="desc">14826042</text>
  <text x="324.241379" y="188" class="desc">11</text>

  <text x="175" y="252" class="desc">Java: 19</text>
  <text x="245" y="252" class="desc">Memory: 4072MB</text>
  <text x="345" y="252" class="desc">CPU: Intel(R) Core(TM) i7-3770K CPU @ 3.50GHz 3.501GHz</text>
</svg>
