<svg xmlns="http://www.w3.org/2000/svg" viewBox="0 0 625 290">
  <style>
      text {
          font-family: Arial;
          font-size: 13px;
          fill: #787878;
      }

      .desc {
          font-size: 9px;
      }

      .vline {
          fill: #acacac;
          stroke: none;
          stroke-width: 0;
      }

      .subline {
          fill: #bbb;
          stroke: none;
          stroke-width: 0;
      }

      .call {
          fill: #4886CD;
          stroke-linejoin: round;
          height: 14px;
      }

      .gc {
          fill: #4FB84B;
          stroke-linejoin: round;
          height: 14px;
      }
  </style>
  <g>
    <rect x="175" y="0" width="1" height="260" class="vline"/>
    <rect x="275" y="0" width="1" height="260" class="vline"/>
    <rect x="375" y="0" width="1" height="260" class="vline"/>
    <rect x="475" y="0" width="1" height="260" class="vline"/>
    <rect x="575" y="0" width="1" height="260" class="vline"/>
    <rect x="225" y="0" width="1" height="260" class="subline"/>
    <rect x="325" y="0" width="1" height="260" class="subline"/>
    <rect x="425" y="0" width="1" height="260" class="subline"/>
    <rect x="525" y="0" width="1" height="260" class="subline"/>
    <rect x="175" y="260" width="450" height="1" class="subline"/>

    <rect x="265" y="268" width="30" class="call"/>
    <text x="305" y="280">ns / call</text>
    <rect x="395" y="268" width="30" class="gc"/>
    <text x="435" y="280">GC</text>
   </g>
  <g>
    <rect x="175" y="20" width="183.414486" rx="2" ry="2" class="call"/>
    <rect x="175" y="34" width="98.863636" rx="2" ry="2" class="gc"/>
    <text x="160" y="37" text-anchor="end">FastJson</text>
    <text x="365.414486" y="30" class="desc">861</text>
    <text x="280.863636" y="44" class="desc">17</text>
  </g>
  <g>
    <rect x="175" y="68" width="283.110164" rx="2" ry="2" class="call"/>
    <rect x="175" y="82" width="56.818182" rx="2" ry="2" class="gc"/>
    <text x="160" y="85" text-anchor="end">Jackson</text>
    <text x="465.110164" y="78" class="desc">1329</text>
    <text x="238.818182" y="92" class="desc">10</text>
  </g>
  <g>
    <rect x="175" y="116" width="316.342057" rx="2" ry="2" class="call"/>
    <rect x="175" y="130" width="28.409091" rx="2" ry="2" class="gc"/>
    <text x="160" y="133" text-anchor="end">Sinobu</text>
    <text x="498.342057" y="126" class="desc">1485</text>
    <text x="210.409091" y="140" class="desc">5</text>
  </g>
  <g>
    <rect x="175" y="164" width="319.750456" rx="2" ry="2" class="call"/>
    <rect x="175" y="178" width="17.045455" rx="2" ry="2" class="gc"/>
    <text x="160" y="181" text-anchor="end">Flat</text>
    <text x="501.750456" y="174" class="desc">1501</text>
    <text x="199.045455" y="188" class="desc">3</text>
  </g>
  <g>
    <rect x="175" y="212" width="350.000000" rx="2" ry="2" class="call"/>
    <rect x="175" y="226" width="150.000000" rx="2" ry="2" class="gc"/>
    <text x="160" y="229" text-anchor="end">Gson</text>
    <text x="532.000000" y="222" class="desc">1643</text>
    <text x="332.000000" y="236" class="desc">26</text>
  </g>
</svg>
