<svg xmlns="http://www.w3.org/2000/svg" viewBox="0 0 625 338">
  <style>
      text {
          font-family: Arial;
          font-size: 13px;
          fill: #787878;
      }

      .desc {
          font-size: 9px;
      }

      .vline {
          fill: #acacac;
          stroke: none;
          stroke-width: 0;
      }

      .subline {
          fill: #bbb;
          stroke: none;
          stroke-width: 0;
      }

      .call {
          fill: #4886CD;
          stroke-linejoin: round;
          height: 14px;
      }

      .gc {
          fill: #4FB84B;
          stroke-linejoin: round;
          height: 14px;
      }
  </style>
  <g>
    <rect x="175" y="0" width="1" height="308" class="vline"/>
    <rect x="275" y="0" width="1" height="308" class="vline"/>
    <rect x="375" y="0" width="1" height="308" class="vline"/>
    <rect x="475" y="0" width="1" height="308" class="vline"/>
    <rect x="575" y="0" width="1" height="308" class="vline"/>
    <rect x="225" y="0" width="1" height="308" class="subline"/>
    <rect x="325" y="0" width="1" height="308" class="subline"/>
    <rect x="425" y="0" width="1" height="308" class="subline"/>
    <rect x="525" y="0" width="1" height="308" class="subline"/>
    <rect x="175" y="308" width="450" height="1" class="subline"/>

    <rect x="265" y="316" width="30" class="call"/>
    <text x="305" y="328">ns / call</text>
    <rect x="395" y="316" width="30" class="gc"/>
    <text x="435" y="328">GC</text>
   </g>
  <g>
    <rect x="175" y="20" width="110.073995" rx="2" ry="2" class="call"/>
    <rect x="175" y="34" width="21.676301" rx="2" ry="2" class="gc"/>
    <text x="160" y="37" text-anchor="end">Sinobu</text>
    <text x="292.073995" y="30" class="desc">9478</text>
    <text x="203.676301" y="44" class="desc">5</text>
  </g>
  <g>
    <rect x="175" y="68" width="169.454491" rx="2" ry="2" class="call"/>
    <rect x="175" y="82" width="55.491329" rx="2" ry="2" class="gc"/>
    <text x="160" y="85" text-anchor="end">FastJson</text>
    <text x="351.454491" y="78" class="desc">14591</text>
    <text x="237.491329" y="92" class="desc">12</text>
  </g>
  <g>
    <rect x="175" y="116" width="175.888443" rx="2" ry="2" class="call"/>
    <rect x="175" y="130" width="30.346821" rx="2" ry="2" class="gc"/>
    <text x="160" y="133" text-anchor="end">Jackson</text>
    <text x="357.888443" y="126" class="desc">15145</text>
    <text x="212.346821" y="140" class="desc">7</text>
  </g>
  <g>
    <rect x="175" y="164" width="242.190663" rx="2" ry="2" class="call"/>
    <rect x="175" y="178" width="36.416185" rx="2" ry="2" class="gc"/>
    <text x="160" y="181" text-anchor="end">Gson</text>
    <text x="424.190663" y="174" class="desc">20854</text>
    <text x="218.416185" y="188" class="desc">8</text>
  </g>
  <g>
    <rect x="175" y="212" width="328.909646" rx="2" ry="2" class="call"/>
    <rect x="175" y="226" width="150.000000" rx="2" ry="2" class="gc"/>
    <text x="160" y="229" text-anchor="end">NanoJson</text>
    <text x="510.909646" y="222" class="desc">28321</text>
    <text x="332.000000" y="236" class="desc">34</text>
  </g>
  <g>
    <rect x="175" y="260" width="350.000000" rx="2" ry="2" class="call"/>
    <rect x="175" y="274" width="26.011561" rx="2" ry="2" class="gc"/>
    <text x="160" y="277" text-anchor="end">Jsoniter</text>
    <text x="532.000000" y="270" class="desc">30137</text>
    <text x="208.011561" y="284" class="desc">6</text>
  </g>
</svg>
