<svg xmlns="http://www.w3.org/2000/svg" viewBox="0 0 625 290">
  <style>
      text {
          font-family: Arial;
          font-size: 13px;
          fill: #787878;
      }

      .desc {
          font-size: 9px;
      }

      .vline {
          fill: #acacac;
          stroke: none;
          stroke-width: 0;
      }

      .subline {
          fill: #bbb;
          stroke: none;
          stroke-width: 0;
      }

      .call {
          fill: #4886CD;
          stroke-linejoin: round;
          height: 14px;
      }

      .gc {
          fill: #4FB84B;
          stroke-linejoin: round;
          height: 14px;
      }
  </style>
  <g>
    <rect x="175" y="0" width="1" height="260" class="vline"/>
    <rect x="275" y="0" width="1" height="260" class="vline"/>
    <rect x="375" y="0" width="1" height="260" class="vline"/>
    <rect x="475" y="0" width="1" height="260" class="vline"/>
    <rect x="575" y="0" width="1" height="260" class="vline"/>
    <rect x="225" y="0" width="1" height="260" class="subline"/>
    <rect x="325" y="0" width="1" height="260" class="subline"/>
    <rect x="425" y="0" width="1" height="260" class="subline"/>
    <rect x="525" y="0" width="1" height="260" class="subline"/>
    <rect x="175" y="260" width="450" height="1" class="subline"/>

    <rect x="265" y="268" width="30" class="call"/>
    <text x="305" y="280">ns / call</text>
    <rect x="395" y="268" width="30" class="gc"/>
    <text x="435" y="280">GC</text>
   </g>
  <g>
    <rect x="175" y="20" width="41.176471" rx="2" ry="2" class="call"/>
    <rect x="175" y="34" width="39.527027" rx="2" ry="2" class="gc"/>
    <text x="160" y="37" text-anchor="end">FastJson</text>
    <text x="223.176471" y="30" class="desc">38</text>
    <text x="221.527027" y="44" class="desc">31</text>
  </g>
  <g>
    <rect x="175" y="68" width="166.873065" rx="2" ry="2" class="call"/>
    <rect x="175" y="82" width="30.405405" rx="2" ry="2" class="gc"/>
    <text x="160" y="85" text-anchor="end">Sinobu Flat</text>
    <text x="348.873065" y="78" class="desc">154</text>
    <text x="212.405405" y="92" class="desc">24</text>
  </g>
  <g>
    <rect x="175" y="116" width="170.123839" rx="2" ry="2" class="call"/>
    <rect x="175" y="130" width="33.952703" rx="2" ry="2" class="gc"/>
    <text x="160" y="133" text-anchor="end">Sinobu</text>
    <text x="352.123839" y="126" class="desc">157</text>
    <text x="215.952703" y="140" class="desc">26</text>
  </g>
  <g>
    <rect x="175" y="164" width="179.876161" rx="2" ry="2" class="call"/>
    <rect x="175" y="178" width="90.202703" rx="2" ry="2" class="gc"/>
    <text x="160" y="181" text-anchor="end">Jackson</text>
    <text x="361.876161" y="174" class="desc">166</text>
    <text x="272.202703" y="188" class="desc">71</text>
  </g>
  <g>
    <rect x="175" y="212" width="350.000000" rx="2" ry="2" class="call"/>
    <rect x="175" y="226" width="150.000000" rx="2" ry="2" class="gc"/>
    <text x="160" y="229" text-anchor="end">Gson</text>
    <text x="532.000000" y="222" class="desc">323</text>
    <text x="332.000000" y="236" class="desc">118</text>
  </g>
</svg>
