<svg xmlns="http://www.w3.org/2000/svg" viewBox="0 0 625 242">
  <style>
      text {
          font-family: Arial;
          font-size: 13px;
          fill: #787878;
      }

      .desc {
          font-size: 9px;
      }

      .vline {
          fill: #acacac;
          stroke: none;
          stroke-width: 0;
      }

      .subline {
          fill: #bbb;
          stroke: none;
          stroke-width: 0;
      }

      .call {
          fill: #4886CD;
          stroke-linejoin: round;
          height: 14px;
      }

      .gc {
          fill: #4FB84B;
          stroke-linejoin: round;
          height: 14px;
      }
  </style>
  <g>
    <rect x="175" y="0" width="1" height="212" class="vline"/>
    <rect x="275" y="0" width="1" height="212" class="vline"/>
    <rect x="375" y="0" width="1" height="212" class="vline"/>
    <rect x="475" y="0" width="1" height="212" class="vline"/>
    <rect x="575" y="0" width="1" height="212" class="vline"/>
    <rect x="225" y="0" width="1" height="212" class="subline"/>
    <rect x="325" y="0" width="1" height="212" class="subline"/>
    <rect x="425" y="0" width="1" height="212" class="subline"/>
    <rect x="525" y="0" width="1" height="212" class="subline"/>
    <rect x="175" y="212" width="450" height="1" class="subline"/>

    <rect x="265" y="220" width="30" class="call"/>
    <text x="305" y="232">ns / call</text>
    <rect x="395" y="220" width="30" class="gc"/>
    <text x="435" y="232">GC</text>
   </g>
  <g>
    <rect x="175" y="20" width="196.682927" rx="2" ry="2" class="call"/>
    <rect x="175" y="34" width="103.083700" rx="2" ry="2" class="gc"/>
    <text x="160" y="37" text-anchor="end">FastJson</text>
    <text x="378.682927" y="30" class="desc">576</text>
    <text x="285.083700" y="44" class="desc">31</text>
  </g>
  <g>
    <rect x="175" y="68" width="256.780488" rx="2" ry="2" class="call"/>
    <rect x="175" y="82" width="26.431718" rx="2" ry="2" class="gc"/>
    <text x="160" y="85" text-anchor="end">Sinobu</text>
    <text x="438.780488" y="78" class="desc">752</text>
    <text x="208.431718" y="92" class="desc">8</text>
  </g>
  <g>
    <rect x="175" y="116" width="294.682927" rx="2" ry="2" class="call"/>
    <rect x="175" y="130" width="51.541850" rx="2" ry="2" class="gc"/>
    <text x="160" y="133" text-anchor="end">Jackson</text>
    <text x="476.682927" y="126" class="desc">863</text>
    <text x="233.541850" y="140" class="desc">15</text>
  </g>
  <g>
    <rect x="175" y="164" width="350.000000" rx="2" ry="2" class="call"/>
    <rect x="175" y="178" width="150.000000" rx="2" ry="2" class="gc"/>
    <text x="160" y="181" text-anchor="end">Gson</text>
    <text x="532.000000" y="174" class="desc">1025</text>
    <text x="332.000000" y="188" class="desc">45</text>
  </g>
</svg>
