<svg xmlns="http://www.w3.org/2000/svg" viewBox="0 0 625 338">
  <style>
      text {
          font-family: Arial;
          font-size: 13px;
          fill: #787878;
      }

      .desc {
          font-size: 9px;
      }

      .vline {
          fill: #acacac;
          stroke: none;
          stroke-width: 0;
      }

      .subline {
          fill: #bbb;
          stroke: none;
          stroke-width: 0;
      }

      .call {
          fill: #4886CD;
          stroke-linejoin: round;
          height: 14px;
      }

      .gc {
          fill: #4FB84B;
          stroke-linejoin: round;
          height: 14px;
      }
  </style>
  <g>
    <rect x="175" y="0" width="1" height="308" class="vline"/>
    <rect x="275" y="0" width="1" height="308" class="vline"/>
    <rect x="375" y="0" width="1" height="308" class="vline"/>
    <rect x="475" y="0" width="1" height="308" class="vline"/>
    <rect x="575" y="0" width="1" height="308" class="vline"/>
    <rect x="225" y="0" width="1" height="308" class="subline"/>
    <rect x="325" y="0" width="1" height="308" class="subline"/>
    <rect x="425" y="0" width="1" height="308" class="subline"/>
    <rect x="525" y="0" width="1" height="308" class="subline"/>
    <rect x="175" y="308" width="450" height="1" class="subline"/>

    <rect x="265" y="316" width="30" class="call"/>
    <text x="305" y="328">ns / call</text>
    <rect x="395" y="316" width="30" class="gc"/>
    <text x="435" y="328">GC</text>
   </g>
  <g>
    <rect x="175" y="20" width="53.884181" rx="2" ry="2" class="call"/>
    <rect x="175" y="34" width="16.605166" rx="2" ry="2" class="gc"/>
    <text x="160" y="37" text-anchor="end">New Parser</text>
    <text x="235.884181" y="30" class="desc">109</text>
    <text x="198.605166" y="44" class="desc">6</text>
  </g>
  <g>
    <rect x="175" y="68" width="138.912429" rx="2" ry="2" class="call"/>
    <rect x="175" y="82" width="76.383764" rx="2" ry="2" class="gc"/>
    <text x="160" y="85" text-anchor="end">FastJson</text>
    <text x="320.912429" y="78" class="desc">281</text>
    <text x="258.383764" y="92" class="desc">27</text>
  </g>
  <g>
    <rect x="175" y="116" width="160.663842" rx="2" ry="2" class="call"/>
    <rect x="175" y="130" width="30.442804" rx="2" ry="2" class="gc"/>
    <text x="160" y="133" text-anchor="end">Flat Parser</text>
    <text x="342.663842" y="126" class="desc">325</text>
    <text x="212.442804" y="140" class="desc">11</text>
  </g>
  <g>
    <rect x="175" y="164" width="168.079096" rx="2" ry="2" class="call"/>
    <rect x="175" y="178" width="33.210332" rx="2" ry="2" class="gc"/>
    <text x="160" y="181" text-anchor="end">Sinobu</text>
    <text x="350.079096" y="174" class="desc">340</text>
    <text x="215.210332" y="188" class="desc">12</text>
  </g>
  <g>
    <rect x="175" y="212" width="209.110169" rx="2" ry="2" class="call"/>
    <rect x="175" y="226" width="75.830258" rx="2" ry="2" class="gc"/>
    <text x="160" y="229" text-anchor="end">Jackson</text>
    <text x="391.110169" y="222" class="desc">423</text>
    <text x="257.830258" y="236" class="desc">27</text>
  </g>
  <g>
    <rect x="175" y="260" width="350.000000" rx="2" ry="2" class="call"/>
    <rect x="175" y="274" width="150.000000" rx="2" ry="2" class="gc"/>
    <text x="160" y="277" text-anchor="end">Gson</text>
    <text x="532.000000" y="270" class="desc">708</text>
    <text x="332.000000" y="284" class="desc">54</text>
  </g>
</svg>
