<svg xmlns="http://www.w3.org/2000/svg" viewBox="0 0 625 242">
  <style>
      text {
          font-family: Arial;
          font-size: 13px;
          fill: #787878;
      }

      .desc {
          font-size: 9px;
      }

      .vline {
          fill: #acacac;
          stroke: none;
          stroke-width: 0;
      }

      .subline {
          fill: #bbb;
          stroke: none;
          stroke-width: 0;
      }

      .call {
          fill: #4886CD;
          stroke-linejoin: round;
          height: 14px;
      }

      .gc {
          fill: #4FB84B;
          stroke-linejoin: round;
          height: 14px;
      }
  </style>
  <g>
    <rect x="175" y="0" width="1" height="212" class="vline"/>
    <rect x="275" y="0" width="1" height="212" class="vline"/>
    <rect x="375" y="0" width="1" height="212" class="vline"/>
    <rect x="475" y="0" width="1" height="212" class="vline"/>
    <rect x="575" y="0" width="1" height="212" class="vline"/>
    <rect x="225" y="0" width="1" height="212" class="subline"/>
    <rect x="325" y="0" width="1" height="212" class="subline"/>
    <rect x="425" y="0" width="1" height="212" class="subline"/>
    <rect x="525" y="0" width="1" height="212" class="subline"/>
    <rect x="175" y="212" width="450" height="1" class="subline"/>

    <rect x="265" y="220" width="30" class="call"/>
    <text x="305" y="232">ns / call</text>
    <rect x="395" y="220" width="30" class="gc"/>
    <text x="435" y="232">GC</text>
   </g>
  <g>
    <rect x="175" y="20" width="106.622517" rx="2" ry="2" class="call"/>
    <rect x="175" y="34" width="95.583596" rx="2" ry="2" class="gc"/>
    <text x="160" y="37" text-anchor="end">FastJson</text>
    <text x="288.622517" y="30" class="desc">92</text>
    <text x="277.583596" y="44" class="desc">80</text>
  </g>
  <g>
    <rect x="175" y="68" width="149.503311" rx="2" ry="2" class="call"/>
    <rect x="175" y="82" width="31.230284" rx="2" ry="2" class="gc"/>
    <text x="160" y="85" text-anchor="end">Sinobu</text>
    <text x="331.503311" y="78" class="desc">129</text>
    <text x="213.230284" y="92" class="desc">26</text>
  </g>
  <g>
    <rect x="175" y="116" width="195.860927" rx="2" ry="2" class="call"/>
    <rect x="175" y="130" width="82.334385" rx="2" ry="2" class="gc"/>
    <text x="160" y="133" text-anchor="end">Jackson</text>
    <text x="377.860927" y="126" class="desc">169</text>
    <text x="264.334385" y="140" class="desc">69</text>
  </g>
  <g>
    <rect x="175" y="164" width="350.000000" rx="2" ry="2" class="call"/>
    <rect x="175" y="178" width="150.000000" rx="2" ry="2" class="gc"/>
    <text x="160" y="181" text-anchor="end">Gson</text>
    <text x="532.000000" y="174" class="desc">302</text>
    <text x="332.000000" y="188" class="desc">126</text>
  </g>
</svg>
