<svg xmlns="http://www.w3.org/2000/svg" viewBox="0 0 625 386">
  <style>
      text {
          font-family: Arial;
          font-size: 13px;
          fill: #787878;
      }

      .desc {
          font-size: 9px;
      }

      .vline {
          fill: #acacac;
          stroke: none;
          stroke-width: 0;
      }

      .subline {
          fill: #bbb;
          stroke: none;
          stroke-width: 0;
      }

      .call {
          fill: #4886CD;
          stroke-linejoin: round;
          height: 14px;
      }

      .gc {
          fill: #4FB84B;
          stroke-linejoin: round;
          height: 14px;
      }
  </style>
  <g>
    <rect x="175" y="0" width="1" height="356" class="vline"/>
    <rect x="275" y="0" width="1" height="356" class="vline"/>
    <rect x="375" y="0" width="1" height="356" class="vline"/>
    <rect x="475" y="0" width="1" height="356" class="vline"/>
    <rect x="575" y="0" width="1" height="356" class="vline"/>
    <rect x="225" y="0" width="1" height="356" class="subline"/>
    <rect x="325" y="0" width="1" height="356" class="subline"/>
    <rect x="425" y="0" width="1" height="356" class="subline"/>
    <rect x="525" y="0" width="1" height="356" class="subline"/>
    <rect x="175" y="356" width="450" height="1" class="subline"/>

    <rect x="265" y="364" width="30" class="call"/>
    <text x="305" y="376">ns / call</text>
    <rect x="395" y="364" width="30" class="gc"/>
    <text x="435" y="376">GC</text>
   </g>
  <g>
    <rect x="175" y="20" width="190.135135" rx="2" ry="2" class="call"/>
    <rect x="175" y="34" width="94.949495" rx="2" ry="2" class="gc"/>
    <text x="160" y="37" text-anchor="end">FastJson</text>
    <text x="372.135135" y="30" class="desc">402</text>
    <text x="276.949495" y="44" class="desc">37</text>
  </g>
  <g>
    <rect x="175" y="68" width="199.594595" rx="2" ry="2" class="call"/>
    <rect x="175" y="82" width="107.575758" rx="2" ry="2" class="gc"/>
    <text x="160" y="85" text-anchor="end">FastJson Method</text>
    <text x="381.594595" y="78" class="desc">422</text>
    <text x="289.575758" y="92" class="desc">42</text>
  </g>
  <g>
    <rect x="175" y="116" width="275.743243" rx="2" ry="2" class="call"/>
    <rect x="175" y="130" width="58.585859" rx="2" ry="2" class="gc"/>
    <text x="160" y="133" text-anchor="end">Jackson</text>
    <text x="457.743243" y="126" class="desc">583</text>
    <text x="240.585859" y="140" class="desc">23</text>
  </g>
  <g>
    <rect x="175" y="164" width="312.162162" rx="2" ry="2" class="call"/>
    <rect x="175" y="178" width="27.777778" rx="2" ry="2" class="gc"/>
    <text x="160" y="181" text-anchor="end">Sinobu2</text>
    <text x="494.162162" y="174" class="desc">660</text>
    <text x="209.777778" y="188" class="desc">11</text>
  </g>
  <g>
    <rect x="175" y="212" width="321.148649" rx="2" ry="2" class="call"/>
    <rect x="175" y="226" width="27.777778" rx="2" ry="2" class="gc"/>
    <text x="160" y="229" text-anchor="end">Sinobu Method</text>
    <text x="503.148649" y="222" class="desc">679</text>
    <text x="209.777778" y="236" class="desc">11</text>
  </g>
  <g>
    <rect x="175" y="260" width="332.500000" rx="2" ry="2" class="call"/>
    <rect x="175" y="274" width="27.777778" rx="2" ry="2" class="gc"/>
    <text x="160" y="277" text-anchor="end">Sinobu</text>
    <text x="514.500000" y="270" class="desc">703</text>
    <text x="209.777778" y="284" class="desc">11</text>
  </g>
  <g>
    <rect x="175" y="308" width="350.000000" rx="2" ry="2" class="call"/>
    <rect x="175" y="322" width="150.000000" rx="2" ry="2" class="gc"/>
    <text x="160" y="325" text-anchor="end">Gson</text>
    <text x="532.000000" y="318" class="desc">740</text>
    <text x="332.000000" y="332" class="desc">59</text>
  </g>
</svg>
