<svg xmlns="http://www.w3.org/2000/svg" viewBox="0 0 625 262">
  <style>
      text {
          font-family: Arial;
          font-size: 13px;
          fill: #787878;
      }

      .desc {
          font-size: 9px;
      }

      .vline {
          fill: #acacac;
          stroke: none;
          stroke-width: 0;
      }

      .subline {
          fill: #bbb;
          stroke: none;
          stroke-width: 0;
      }

      .call {
          fill: #4886CD;
          stroke-linejoin: round;
          height: 14px;
      }

      .gc {
          fill: #4FB84B;
          stroke-linejoin: round;
          height: 14px;
      }
  </style>
  <g>
    <rect x="175" y="0" width="1" height="212" class="vline"/>
    <rect x="275" y="0" width="1" height="212" class="vline"/>
    <rect x="375" y="0" width="1" height="212" class="vline"/>
    <rect x="475" y="0" width="1" height="212" class="vline"/>
    <rect x="575" y="0" width="1" height="212" class="vline"/>
    <rect x="225" y="0" width="1" height="212" class="subline"/>
    <rect x="325" y="0" width="1" height="212" class="subline"/>
    <rect x="425" y="0" width="1" height="212" class="subline"/>
    <rect x="525" y="0" width="1" height="212" class="subline"/>
    <rect x="175" y="212" width="450" height="1" class="subline"/>

    <rect x="265" y="220" width="30" class="call"/>
    <text x="305" y="232">ns / call</text>
    <rect x="395" y="220" width="30" class="gc"/>
    <text x="435" y="232">GC</text>
  </g>

  <rect x="175" y="20" width="156.838306" rx="2" ry="2" class="call"/>
  <rect x="175" y="34" width="150.000000" rx="2" ry="2" class="gc"/>
  <text x="160" y="37" text-anchor="end">FastJson</text>
  <text x="160" y="47" text-anchor="end" class="desc">2.0.21.graal</text>
  <text x="338.838306" y="30" class="desc">3709247</text>
  <text x="332.000000" y="44" class="desc">25</text>

  <rect x="175" y="68" width="206.284156" rx="2" ry="2" class="call"/>
  <rect x="175" y="82" width="138.000000" rx="2" ry="2" class="gc"/>
  <text x="160" y="85" text-anchor="end">Jackson</text>
  <text x="160" y="95" text-anchor="end" class="desc">2.14.1</text>
  <text x="388.284156" y="78" class="desc">4878648</text>
  <text x="320.000000" y="92" class="desc">23</text>

  <rect x="175" y="116" width="262.379398" rx="2" ry="2" class="call"/>
  <rect x="175" y="130" width="85.200000" rx="2" ry="2" class="gc"/>
  <text x="160" y="133" text-anchor="end">Sinobu</text>
  <text x="160" y="143" text-anchor="end" class="desc">2.22.2</text>
  <text x="444.379398" y="126" class="desc">6205308</text>
  <text x="267.200000" y="140" class="desc">14</text>

  <rect x="175" y="164" width="350.000000" rx="2" ry="2" class="call"/>
  <rect x="175" y="178" width="117.600000" rx="2" ry="2" class="gc"/>
  <text x="160" y="181" text-anchor="end">Gson</text>
  <text x="160" y="191" text-anchor="end" class="desc">2.10</text>
  <text x="532.000000" y="174" class="desc">8277547</text>
  <text x="299.600000" y="188" class="desc">19</text>

  <text x="175" y="252" class="desc">Java: 19</text>
  <text x="245" y="252" class="desc">Memory: 8128MB</text>
  <text x="345" y="252" class="desc">CPU: 12th Gen Intel(R) Core(TM) i5-12400 2.5GHz</text>
</svg>
