<svg xmlns="http://www.w3.org/2000/svg" viewBox="0 0 625 290">
  <style>
      text {
          font-family: Arial;
          font-size: 13px;
          fill: #787878;
      }

      .desc {
          font-size: 9px;
      }

      .vline {
          fill: #acacac;
          stroke: none;
          stroke-width: 0;
      }

      .subline {
          fill: #bbb;
          stroke: none;
          stroke-width: 0;
      }

      .call {
          fill: #4886CD;
          stroke-linejoin: round;
          height: 14px;
      }

      .gc {
          fill: #4FB84B;
          stroke-linejoin: round;
          height: 14px;
      }
  </style>
  <g>
    <rect x="175" y="0" width="1" height="260" class="vline"/>
    <rect x="275" y="0" width="1" height="260" class="vline"/>
    <rect x="375" y="0" width="1" height="260" class="vline"/>
    <rect x="475" y="0" width="1" height="260" class="vline"/>
    <rect x="575" y="0" width="1" height="260" class="vline"/>
    <rect x="225" y="0" width="1" height="260" class="subline"/>
    <rect x="325" y="0" width="1" height="260" class="subline"/>
    <rect x="425" y="0" width="1" height="260" class="subline"/>
    <rect x="525" y="0" width="1" height="260" class="subline"/>
    <rect x="175" y="260" width="450" height="1" class="subline"/>

    <rect x="265" y="268" width="30" class="call"/>
    <text x="305" y="280">ns / call</text>
    <rect x="395" y="268" width="30" class="gc"/>
    <text x="435" y="280">GC</text>
   </g>
  <g>
    <rect x="175" y="20" width="158.026260" rx="2" ry="2" class="call"/>
    <rect x="175" y="34" width="88.983051" rx="2" ry="2" class="gc"/>
    <text x="160" y="37" text-anchor="end">FastJson</text>
    <text x="340.026260" y="30" class="desc">1066</text>
    <text x="270.983051" y="44" class="desc">14</text>
  </g>
  <g>
    <rect x="175" y="68" width="213.320627" rx="2" ry="2" class="call"/>
    <rect x="175" y="82" width="75.000000" rx="2" ry="2" class="gc"/>
    <text x="160" y="85" text-anchor="end">Sinobu</text>
    <text x="395.320627" y="78" class="desc">1439</text>
    <text x="257.000000" y="92" class="desc">11</text>
  </g>
  <g>
    <rect x="175" y="116" width="220.139771" rx="2" ry="2" class="call"/>
    <rect x="175" y="130" width="54.661017" rx="2" ry="2" class="gc"/>
    <text x="160" y="133" text-anchor="end">Jackson</text>
    <text x="402.139771" y="126" class="desc">1485</text>
    <text x="236.661017" y="140" class="desc">8</text>
  </g>
  <g>
    <rect x="175" y="164" width="272.024566" rx="2" ry="2" class="call"/>
    <rect x="175" y="178" width="150.000000" rx="2" ry="2" class="gc"/>
    <text x="160" y="181" text-anchor="end">Gson</text>
    <text x="454.024566" y="174" class="desc">1835</text>
    <text x="332.000000" y="188" class="desc">23</text>
  </g>
  <g>
    <rect x="175" y="212" width="350.000000" rx="2" ry="2" class="call"/>
    <rect x="175" y="226" width="17.796610" rx="2" ry="2" class="gc"/>
    <text x="160" y="229" text-anchor="end">New parser</text>
    <text x="532.000000" y="222" class="desc">2361</text>
    <text x="199.796610" y="236" class="desc">2</text>
  </g>
</svg>
