<svg xmlns="http://www.w3.org/2000/svg" viewBox="0 0 625 290">
  <style>
      text {
          font-family: Arial;
          font-size: 13px;
          fill: #787878;
      }

      .desc {
          font-size: 9px;
      }

      .vline {
          fill: #acacac;
          stroke: none;
          stroke-width: 0;
      }

      .subline {
          fill: #bbb;
          stroke: none;
          stroke-width: 0;
      }

      .call {
          fill: #4886CD;
          stroke-linejoin: round;
          height: 14px;
      }

      .gc {
          fill: #4FB84B;
          stroke-linejoin: round;
          height: 14px;
      }
  </style>
  <g>
    <rect x="175" y="0" width="1" height="260" class="vline"/>
    <rect x="275" y="0" width="1" height="260" class="vline"/>
    <rect x="375" y="0" width="1" height="260" class="vline"/>
    <rect x="475" y="0" width="1" height="260" class="vline"/>
    <rect x="575" y="0" width="1" height="260" class="vline"/>
    <rect x="225" y="0" width="1" height="260" class="subline"/>
    <rect x="325" y="0" width="1" height="260" class="subline"/>
    <rect x="425" y="0" width="1" height="260" class="subline"/>
    <rect x="525" y="0" width="1" height="260" class="subline"/>
    <rect x="175" y="260" width="450" height="1" class="subline"/>

    <rect x="265" y="268" width="30" class="call"/>
    <text x="305" y="280">ns / call</text>
    <rect x="395" y="268" width="30" class="gc"/>
    <text x="435" y="280">GC</text>
   </g>
  <g>
    <rect x="175" y="20" width="174.436090" rx="2" ry="2" class="call"/>
    <rect x="175" y="34" width="95.136187" rx="2" ry="2" class="gc"/>
    <text x="160" y="37" text-anchor="end">FastJson</text>
    <text x="356.436090" y="30" class="desc">464</text>
    <text x="277.136187" y="44" class="desc">32</text>
  </g>
  <g>
    <rect x="175" y="68" width="241.353383" rx="2" ry="2" class="call"/>
    <rect x="175" y="82" width="78.210117" rx="2" ry="2" class="gc"/>
    <text x="160" y="85" text-anchor="end">Sinobu</text>
    <text x="423.353383" y="78" class="desc">642</text>
    <text x="260.210117" y="92" class="desc">26</text>
  </g>
  <g>
    <rect x="175" y="116" width="248.120301" rx="2" ry="2" class="call"/>
    <rect x="175" y="130" width="59.533074" rx="2" ry="2" class="gc"/>
    <text x="160" y="133" text-anchor="end">Jackson</text>
    <text x="430.120301" y="126" class="desc">660</text>
    <text x="241.533074" y="140" class="desc">20</text>
  </g>
  <g>
    <rect x="175" y="164" width="322.932331" rx="2" ry="2" class="call"/>
    <rect x="175" y="178" width="150.000000" rx="2" ry="2" class="gc"/>
    <text x="160" y="181" text-anchor="end">Gson</text>
    <text x="504.932331" y="174" class="desc">859</text>
    <text x="332.000000" y="188" class="desc">51</text>
  </g>
  <g>
    <rect x="175" y="212" width="350.000000" rx="2" ry="2" class="call"/>
    <rect x="175" y="226" width="22.178988" rx="2" ry="2" class="gc"/>
    <text x="160" y="229" text-anchor="end">New parser</text>
    <text x="532.000000" y="222" class="desc">931</text>
    <text x="204.178988" y="236" class="desc">7</text>
  </g>
</svg>
