<svg xmlns="http://www.w3.org/2000/svg" viewBox="0 0 625 310">
  <style>
      text {
          font-family: Arial;
          font-size: 13px;
          fill: #787878;
      }

      .desc {
          font-size: 9px;
      }

      .vline {
          fill: #acacac;
          stroke: none;
          stroke-width: 0;
      }

      .subline {
          fill: #bbb;
          stroke: none;
          stroke-width: 0;
      }

      .call {
          fill: #4886CD;
          stroke-linejoin: round;
          height: 12px;
      }

      .gc {
          fill: #4FB84B;
          stroke-linejoin: round;
          height: 12px;
      }

      .memory {
          fill: #BF4F4B;
          stroke-linejoin: round;
          height: 12px;
      }
  </style>
  <g>
    <rect x="175" y="0" width="1" height="260" class="vline"/>
    <rect x="275" y="0" width="1" height="260" class="vline"/>
    <rect x="375" y="0" width="1" height="260" class="vline"/>
    <rect x="475" y="0" width="1" height="260" class="vline"/>
    <rect x="575" y="0" width="1" height="260" class="vline"/>
    <rect x="225" y="0" width="1" height="260" class="subline"/>
    <rect x="325" y="0" width="1" height="260" class="subline"/>
    <rect x="425" y="0" width="1" height="260" class="subline"/>
    <rect x="525" y="0" width="1" height="260" class="subline"/>
    <rect x="175" y="260" width="450" height="1" class="subline"/>

    <rect x="225" y="268" width="30" class="call"/>
    <text x="265" y="280">ns / call</text>
    <rect x="355" y="268" width="30" class="memory"/>
    <text x="395" y="280">Memory</text>
    <rect x="475" y="268" width="30" class="gc"/>
    <text x="515" y="280">GC</text>
  </g>

  <rect x="175" y="20" width="197.024196" rx="2" ry="2" class="call"/>
  <rect x="175" y="32" width="112.505690" rx="2" ry="2" class="memory"/>
  <rect x="175" y="44" width="140.384615" rx="2" ry="2" class="gc"/>
  <text x="160" y="37" text-anchor="end">FastJson</text>
  <text x="160" y="47" text-anchor="end" class="desc">2.0.53.android8</text>
  <text x="379.024196" y="30" class="desc">6933</text>
  <text x="294.505690" y="42" class="desc">29M</text>
  <text x="322.384615" y="54" class="desc">14</text>

  <rect x="175" y="68" width="204.583469" rx="2" ry="2" class="call"/>
  <rect x="175" y="80" width="250.000000" rx="2" ry="2" class="memory"/>
  <rect x="175" y="92" width="115.384615" rx="2" ry="2" class="gc"/>
  <text x="160" y="85" text-anchor="end">SinobuFind</text>
  <text x="160" y="95" text-anchor="end" class="desc"></text>
  <text x="386.583469" y="78" class="desc">7199</text>
  <text x="432.000000" y="90" class="desc">65M</text>
  <text x="297.384615" y="102" class="desc">12</text>

  <rect x="175" y="116" width="205.947548" rx="2" ry="2" class="call"/>
  <rect x="175" y="128" width="241.273464" rx="2" ry="2" class="memory"/>
  <rect x="175" y="140" width="115.384615" rx="2" ry="2" class="gc"/>
  <text x="160" y="133" text-anchor="end">Sinobu</text>
  <text x="160" y="143" text-anchor="end" class="desc">4.0.0</text>
  <text x="387.947548" y="126" class="desc">7247</text>
  <text x="423.273464" y="138" class="desc">62M</text>
  <text x="297.384615" y="150" class="desc">12</text>

  <rect x="175" y="164" width="306.065281" rx="2" ry="2" class="call"/>
  <rect x="175" y="176" width="110.606739" rx="2" ry="2" class="memory"/>
  <rect x="175" y="188" width="105.769231" rx="2" ry="2" class="gc"/>
  <text x="160" y="181" text-anchor="end">Jackson</text>
  <text x="160" y="191" text-anchor="end" class="desc">2.18.0</text>
  <text x="488.065281" y="174" class="desc">10770</text>
  <text x="292.606739" y="186" class="desc">29M</text>
  <text x="287.769231" y="198" class="desc">11</text>

  <rect x="175" y="212" width="350.000000" rx="2" ry="2" class="call"/>
  <rect x="175" y="224" width="172.510497" rx="2" ry="2" class="memory"/>
  <rect x="175" y="236" width="150.000000" rx="2" ry="2" class="gc"/>
  <text x="160" y="229" text-anchor="end">Gson</text>
  <text x="160" y="239" text-anchor="end" class="desc">2.11.0</text>
  <text x="532.000000" y="222" class="desc">12316</text>
  <text x="354.510497" y="234" class="desc">45M</text>
  <text x="332.000000" y="246" class="desc">15</text>

  <text x="175" y="300" class="desc">Java: 21</text>
  <text x="245" y="300" class="desc">Memory: 4072MB</text>
  <text x="345" y="300" class="desc">CPU: Intel(R) Core(TM) i7-3770K CPU @ 3.50GHz 3.501GHz</text>
</svg>
