<svg xmlns="http://www.w3.org/2000/svg" viewBox="0 0 625 290">
  <style>
      text {
          font-family: Arial;
          font-size: 13px;
          fill: #787878;
      }

      .desc {
          font-size: 9px;
      }

      .vline {
          fill: #acacac;
          stroke: none;
          stroke-width: 0;
      }

      .subline {
          fill: #bbb;
          stroke: none;
          stroke-width: 0;
      }

      .bar {
          stroke-linejoin: round;
          height: 12px;
      }
  </style>
  <rect x="175" y="0" width="1" height="240" class="vline"/>
  <rect x="275" y="0" width="1" height="240" class="vline"/>
  <rect x="375" y="0" width="1" height="240" class="vline"/>
  <rect x="475" y="0" width="1" height="240" class="vline"/>
  <rect x="575" y="0" width="1" height="240" class="vline"/>
  <rect x="225" y="0" width="1" height="240" class="subline"/>
  <rect x="325" y="0" width="1" height="240" class="subline"/>
  <rect x="425" y="0" width="1" height="240" class="subline"/>
  <rect x="525" y="0" width="1" height="240" class="subline"/>
  <rect x="175" y="240" width="450" height="1" class="subline"/>

  <rect x="205" y="248" width="30" fill="#4886CD" class="bar"/>
  <text x="245" y="260">ns / call</text>
  <rect x="400" y="248" width="30" fill="#4FB84B" class="bar"/>
  <text x="440" y="260">GC</text>
  <text x="160" y="37" text-anchor="end">FastJson</text>
  <text x="160" y="47" text-anchor="end" class="desc">2.0.53.android8</text>
  <rect x="175" y="20" width="200.47" rx="2" ry="2" fill="#4886CD" class="bar"/>
  <text x="382.47" y="30" class="desc">6930</text>
  <rect x="175" y="32" width="116.67" rx="2" ry="2" fill="#4FB84B" class="bar"/>
  <text x="298.67" y="42" class="desc">3</text>
  <text x="160" y="81" text-anchor="end">Sinobu</text>
  <text x="160" y="91" text-anchor="end" class="desc">4.0.0</text>
  <rect x="175" y="64" width="204.17" rx="2" ry="2" fill="#4886CD" class="bar"/>
  <text x="386.17" y="74" class="desc">7058</text>
  <rect x="175" y="76" width="116.67" rx="2" ry="2" fill="#4FB84B" class="bar"/>
  <text x="298.67" y="86" class="desc">3</text>
  <text x="160" y="125" text-anchor="end">SinobuFind</text>
  <text x="160" y="135" text-anchor="end" class="desc"></text>
  <rect x="175" y="108" width="208.74" rx="2" ry="2" fill="#4886CD" class="bar"/>
  <text x="390.74" y="118" class="desc">7216</text>
  <rect x="175" y="120" width="116.67" rx="2" ry="2" fill="#4FB84B" class="bar"/>
  <text x="298.67" y="130" class="desc">3</text>
  <text x="160" y="169" text-anchor="end">Jackson</text>
  <text x="160" y="179" text-anchor="end" class="desc">2.18.0</text>
  <rect x="175" y="152" width="316.15" rx="2" ry="2" fill="#4886CD" class="bar"/>
  <text x="498.15" y="162" class="desc">10929</text>
  <rect x="175" y="164" width="77.78" rx="2" ry="2" fill="#4FB84B" class="bar"/>
  <text x="259.78" y="174" class="desc">2</text>
  <text x="160" y="213" text-anchor="end">Gson</text>
  <text x="160" y="223" text-anchor="end" class="desc">2.11.0</text>
  <rect x="175" y="196" width="350.00" rx="2" ry="2" fill="#4886CD" class="bar"/>
  <text x="532.00" y="206" class="desc">12099</text>
  <rect x="175" y="208" width="155.56" rx="2" ry="2" fill="#4FB84B" class="bar"/>
  <text x="337.56" y="218" class="desc">4</text>
  <text x="175" y="280" class="desc">Java: 21</text>
  <text x="245" y="280" class="desc">Memory: 4072MB</text>
  <text x="345" y="280" class="desc">CPU: Intel(R) Core(TM) i7-3770K CPU @ 3.50GHz 3.501GHz</text>
</svg>
