<svg xmlns="http://www.w3.org/2000/svg" viewBox="0 0 625 262">
  <style>
      text {
          font-family: Arial;
          font-size: 13px;
          fill: #787878;
      }

      .desc {
          font-size: 9px;
      }

      .vline {
          fill: #acacac;
          stroke: none;
          stroke-width: 0;
      }

      .subline {
          fill: #bbb;
          stroke: none;
          stroke-width: 0;
      }

      .call {
          fill: #4886CD;
          stroke-linejoin: round;
          height: 12px;
      }

      .gc {
          fill: #4FB84B;
          stroke-linejoin: round;
          height: 12px;
      }

      .memory {
          fill: #BF4F4B;
          stroke-linejoin: round;
          height: 12px;
      }
  </style>
  <g>
    <rect x="175" y="0" width="1" height="212" class="vline"/>
    <rect x="275" y="0" width="1" height="212" class="vline"/>
    <rect x="375" y="0" width="1" height="212" class="vline"/>
    <rect x="475" y="0" width="1" height="212" class="vline"/>
    <rect x="575" y="0" width="1" height="212" class="vline"/>
    <rect x="225" y="0" width="1" height="212" class="subline"/>
    <rect x="325" y="0" width="1" height="212" class="subline"/>
    <rect x="425" y="0" width="1" height="212" class="subline"/>
    <rect x="525" y="0" width="1" height="212" class="subline"/>
    <rect x="175" y="212" width="450" height="1" class="subline"/>

    <rect x="225" y="220" width="30" class="call"/>
    <text x="265" y="232">ns / call</text>
    <rect x="355" y="220" width="30" class="memory"/>
    <text x="395" y="232">Memory</text>
    <rect x="475" y="220" width="30" class="gc"/>
    <text x="515" y="232">GC</text>
  </g>

  <rect x="175" y="20" width="134.532925" rx="2" ry="2" class="call"/>
  <rect x="175" y="32" width="104.166006" rx="2" ry="2" class="memory"/>
  <rect x="175" y="44" width="63.775510" rx="2" ry="2" class="gc"/>
  <text x="160" y="37" text-anchor="end">FastJson</text>
  <text x="160" y="47" text-anchor="end" class="desc">2.0.53.android8</text>
  <text x="316.532925" y="30" class="desc">251</text>
  <text x="286.166006" y="42" class="desc">26M</text>
  <text x="245.775510" y="54" class="desc">25</text>

  <rect x="175" y="68" width="145.788668" rx="2" ry="2" class="call"/>
  <rect x="175" y="80" width="48.885228" rx="2" ry="2" class="memory"/>
  <rect x="175" y="92" width="45.408163" rx="2" ry="2" class="gc"/>
  <text x="160" y="85" text-anchor="end">Sinobu</text>
  <text x="160" y="95" text-anchor="end" class="desc">4.0.0</text>
  <text x="327.788668" y="78" class="desc">272</text>
  <text x="230.885228" y="90" class="desc">12M</text>
  <text x="227.408163" y="102" class="desc">17</text>

  <rect x="175" y="116" width="235.834609" rx="2" ry="2" class="call"/>
  <rect x="175" y="128" width="125.015137" rx="2" ry="2" class="memory"/>
  <rect x="175" y="140" width="71.938776" rx="2" ry="2" class="gc"/>
  <text x="160" y="133" text-anchor="end">Jackson</text>
  <text x="160" y="143" text-anchor="end" class="desc">2.18.0</text>
  <text x="417.834609" y="126" class="desc">440</text>
  <text x="307.015137" y="138" class="desc">31M</text>
  <text x="253.938776" y="150" class="desc">28</text>

  <rect x="175" y="164" width="350.000000" rx="2" ry="2" class="call"/>
  <rect x="175" y="176" width="250.000000" rx="2" ry="2" class="memory"/>
  <rect x="175" y="188" width="150.000000" rx="2" ry="2" class="gc"/>
  <text x="160" y="181" text-anchor="end">Gson</text>
  <text x="160" y="191" text-anchor="end" class="desc">2.11.0</text>
  <text x="532.000000" y="174" class="desc">653</text>
  <text x="432.000000" y="186" class="desc">62M</text>
  <text x="332.000000" y="198" class="desc">58</text>

  <text x="175" y="252" class="desc">Java: 21</text>
  <text x="245" y="252" class="desc">Memory: 4072MB</text>
  <text x="345" y="252" class="desc">CPU: Intel(R) Core(TM) i7-3770K CPU @ 3.50GHz 3.501GHz</text>
</svg>
