<svg xmlns="http://www.w3.org/2000/svg" viewBox="0 0 625 290">
  <style>
      text {
          font-family: Arial;
          font-size: 13px;
          fill: #787878;
      }

      .desc {
          font-size: 9px;
      }

      .vline {
          fill: #acacac;
          stroke: none;
          stroke-width: 0;
      }

      .subline {
          fill: #bbb;
          stroke: none;
          stroke-width: 0;
      }

      .call {
          fill: #4886CD;
          stroke-linejoin: round;
          height: 14px;
      }

      .gc {
          fill: #4FB84B;
          stroke-linejoin: round;
          height: 14px;
      }
  </style>
  <g>
    <rect x="175" y="0" width="1" height="260" class="vline"/>
    <rect x="275" y="0" width="1" height="260" class="vline"/>
    <rect x="375" y="0" width="1" height="260" class="vline"/>
    <rect x="475" y="0" width="1" height="260" class="vline"/>
    <rect x="575" y="0" width="1" height="260" class="vline"/>
    <rect x="225" y="0" width="1" height="260" class="subline"/>
    <rect x="325" y="0" width="1" height="260" class="subline"/>
    <rect x="425" y="0" width="1" height="260" class="subline"/>
    <rect x="525" y="0" width="1" height="260" class="subline"/>
    <rect x="175" y="260" width="450" height="1" class="subline"/>

    <rect x="265" y="268" width="30" class="call"/>
    <text x="305" y="280">ns / call</text>
    <rect x="395" y="268" width="30" class="gc"/>
    <text x="435" y="280">GC</text>
   </g>
  <g>
    <rect x="175" y="20" width="115.604305" rx="2" ry="2" class="call"/>
    <rect x="175" y="34" width="99.650350" rx="2" ry="2" class="gc"/>
    <text x="160" y="37" text-anchor="end">FastJson</text>
    <text x="297.604305" y="30" class="desc">399</text>
    <text x="281.650350" y="44" class="desc">38</text>
  </g>
  <g>
    <rect x="175" y="68" width="169.205298" rx="2" ry="2" class="call"/>
    <rect x="175" y="82" width="60.314685" rx="2" ry="2" class="gc"/>
    <text x="160" y="85" text-anchor="end">Jackson</text>
    <text x="351.205298" y="78" class="desc">584</text>
    <text x="242.314685" y="92" class="desc">23</text>
  </g>
  <g>
    <rect x="175" y="116" width="188.038079" rx="2" ry="2" class="call"/>
    <rect x="175" y="130" width="32.517483" rx="2" ry="2" class="gc"/>
    <text x="160" y="133" text-anchor="end">New parser</text>
    <text x="370.038079" y="126" class="desc">649</text>
    <text x="214.517483" y="140" class="desc">12</text>
  </g>
  <g>
    <rect x="175" y="164" width="224.834437" rx="2" ry="2" class="call"/>
    <rect x="175" y="178" width="150.000000" rx="2" ry="2" class="gc"/>
    <text x="160" y="181" text-anchor="end">Gson</text>
    <text x="406.834437" y="174" class="desc">776</text>
    <text x="332.000000" y="188" class="desc">57</text>
  </g>
  <g>
    <rect x="175" y="212" width="350.000000" rx="2" ry="2" class="call"/>
    <rect x="175" y="226" width="57.167832" rx="2" ry="2" class="gc"/>
    <text x="160" y="229" text-anchor="end">Sinobu</text>
    <text x="532.000000" y="222" class="desc">1208</text>
    <text x="239.167832" y="236" class="desc">21</text>
  </g>
</svg>
