<svg xmlns="http://www.w3.org/2000/svg" viewBox="0 0 625 310">
  <style>
      text {
          font-family: Arial;
          font-size: 13px;
          fill: #787878;
      }

      .desc {
          font-size: 9px;
      }

      .vline {
          fill: #acacac;
          stroke: none;
          stroke-width: 0;
      }

      .subline {
          fill: #bbb;
          stroke: none;
          stroke-width: 0;
      }

      .call {
          fill: #4886CD;
          stroke-linejoin: round;
          height: 14px;
      }

      .gc {
          fill: #4FB84B;
          stroke-linejoin: round;
          height: 14px;
      }
  </style>
  <g>
    <rect x="175" y="0" width="1" height="260" class="vline"/>
    <rect x="275" y="0" width="1" height="260" class="vline"/>
    <rect x="375" y="0" width="1" height="260" class="vline"/>
    <rect x="475" y="0" width="1" height="260" class="vline"/>
    <rect x="575" y="0" width="1" height="260" class="vline"/>
    <rect x="225" y="0" width="1" height="260" class="subline"/>
    <rect x="325" y="0" width="1" height="260" class="subline"/>
    <rect x="425" y="0" width="1" height="260" class="subline"/>
    <rect x="525" y="0" width="1" height="260" class="subline"/>
    <rect x="175" y="260" width="450" height="1" class="subline"/>

    <rect x="265" y="268" width="30" class="call"/>
    <text x="305" y="280">ns / call</text>
    <rect x="395" y="268" width="30" class="gc"/>
    <text x="435" y="280">GC</text>
  </g>

  <rect x="175" y="20" width="204.699887" rx="2" ry="2" class="call"/>
  <rect x="175" y="34" width="64.556962" rx="2" ry="2" class="gc"/>
  <text x="160" y="37" text-anchor="end">Sinobu</text>
  <text x="160" y="47" text-anchor="end" class="desc">3.6.2</text>
  <text x="386.699887" y="30" class="desc">7230</text>
  <text x="246.556962" y="44" class="desc">6</text>

  <rect x="175" y="68" width="205.379388" rx="2" ry="2" class="call"/>
  <rect x="175" y="82" width="131.012658" rx="2" ry="2" class="gc"/>
  <text x="160" y="85" text-anchor="end">FastJson</text>
  <text x="160" y="95" text-anchor="end" class="desc">2.0.39.android4</text>
  <text x="387.379388" y="78" class="desc">7254</text>
  <text x="313.012658" y="92" class="desc">13</text>

  <rect x="175" y="116" width="205.832390" rx="2" ry="2" class="call"/>
  <rect x="175" y="130" width="64.556962" rx="2" ry="2" class="gc"/>
  <text x="160" y="133" text-anchor="end">SinobuFind</text>
  <text x="160" y="143" text-anchor="end" class="desc"></text>
  <text x="387.832390" y="126" class="desc">7270</text>
  <text x="246.556962" y="140" class="desc">6</text>

  <rect x="175" y="164" width="326.189128" rx="2" ry="2" class="call"/>
  <rect x="175" y="178" width="94.936709" rx="2" ry="2" class="gc"/>
  <text x="160" y="181" text-anchor="end">Jackson</text>
  <text x="160" y="191" text-anchor="end" class="desc">2.15.2</text>
  <text x="508.189128" y="174" class="desc">11521</text>
  <text x="276.936709" y="188" class="desc">10</text>

  <rect x="175" y="212" width="350.000000" rx="2" ry="2" class="call"/>
  <rect x="175" y="226" width="150.000000" rx="2" ry="2" class="gc"/>
  <text x="160" y="229" text-anchor="end">Gson</text>
  <text x="160" y="239" text-anchor="end" class="desc">2.10.1</text>
  <text x="532.000000" y="222" class="desc">12362</text>
  <text x="332.000000" y="236" class="desc">15</text>

  <text x="175" y="300" class="desc">Java: 19</text>
  <text x="245" y="300" class="desc">Memory: 4072MB</text>
  <text x="345" y="300" class="desc">CPU: Intel(R) Core(TM) i7-3770K CPU @ 3.50GHz 3.501GHz</text>
</svg>
