<svg xmlns="http://www.w3.org/2000/svg" viewBox="0 0 625 262">
  <style>
      text {
          font-family: Arial;
          font-size: 13px;
          fill: #787878;
      }

      .desc {
          font-size: 9px;
      }

      .vline {
          fill: #acacac;
          stroke: none;
          stroke-width: 0;
      }

      .subline {
          fill: #bbb;
          stroke: none;
          stroke-width: 0;
      }

      .call {
          fill: #4886CD;
          stroke-linejoin: round;
          height: 14px;
      }

      .gc {
          fill: #4FB84B;
          stroke-linejoin: round;
          height: 14px;
      }
  </style>
  <g>
    <rect x="175" y="0" width="1" height="212" class="vline"/>
    <rect x="275" y="0" width="1" height="212" class="vline"/>
    <rect x="375" y="0" width="1" height="212" class="vline"/>
    <rect x="475" y="0" width="1" height="212" class="vline"/>
    <rect x="575" y="0" width="1" height="212" class="vline"/>
    <rect x="225" y="0" width="1" height="212" class="subline"/>
    <rect x="325" y="0" width="1" height="212" class="subline"/>
    <rect x="425" y="0" width="1" height="212" class="subline"/>
    <rect x="525" y="0" width="1" height="212" class="subline"/>
    <rect x="175" y="212" width="450" height="1" class="subline"/>

    <rect x="265" y="220" width="30" class="call"/>
    <text x="305" y="232">ns / call</text>
    <rect x="395" y="220" width="30" class="gc"/>
    <text x="435" y="232">GC</text>
  </g>

  <rect x="175" y="20" width="165.203210" rx="2" ry="2" class="call"/>
  <rect x="175" y="34" width="150.000000" rx="2" ry="2" class="gc"/>
  <text x="160" y="37" text-anchor="end">FastJson</text>
  <text x="160" y="47" text-anchor="end" class="desc">2.0.15.graal</text>
  <text x="347.203210" y="30" class="desc">3600561</text>
  <text x="332.000000" y="44" class="desc">25</text>

  <rect x="175" y="68" width="224.309443" rx="2" ry="2" class="call"/>
  <rect x="175" y="82" width="132.283465" rx="2" ry="2" class="gc"/>
  <text x="160" y="85" text-anchor="end">Jackson</text>
  <text x="160" y="95" text-anchor="end" class="desc">2.14.0-rc2</text>
  <text x="406.309443" y="78" class="desc">4888766</text>
  <text x="314.283465" y="92" class="desc">22</text>

  <rect x="175" y="116" width="273.275249" rx="2" ry="2" class="call"/>
  <rect x="175" y="130" width="88.582677" rx="2" ry="2" class="gc"/>
  <text x="160" y="133" text-anchor="end">Sinobu</text>
  <text x="160" y="143" text-anchor="end" class="desc">2.20.0</text>
  <text x="455.275249" y="126" class="desc">5955963</text>
  <text x="270.582677" y="140" class="desc">15</text>

  <rect x="175" y="164" width="350.000000" rx="2" ry="2" class="call"/>
  <rect x="175" y="178" width="126.377953" rx="2" ry="2" class="gc"/>
  <text x="160" y="181" text-anchor="end">Gson</text>
  <text x="160" y="191" text-anchor="end" class="desc">2.9.1</text>
  <text x="532.000000" y="174" class="desc">7628159</text>
  <text x="308.377953" y="188" class="desc">21</text>

  <text x="205" y="252" class="desc">Java: 19</text>
  <text x="275" y="252" class="desc">Memory: 8128MB</text>
  <text x="375" y="252" class="desc">CPU: 12th Gen Intel(R) Core(TM) i5-12400 2.5GHz</text>
</svg>
