<svg xmlns="http://www.w3.org/2000/svg" viewBox="0 0 625 262">
  <style>
      text {
          font-family: Arial;
          font-size: 13px;
          fill: #787878;
      }

      .desc {
          font-size: 9px;
      }

      .vline {
          fill: #acacac;
          stroke: none;
          stroke-width: 0;
      }

      .subline {
          fill: #bbb;
          stroke: none;
          stroke-width: 0;
      }

      .call {
          fill: #4886CD;
          stroke-linejoin: round;
          height: 14px;
      }

      .gc {
          fill: #4FB84B;
          stroke-linejoin: round;
          height: 14px;
      }
  </style>
  <g>
    <rect x="175" y="0" width="1" height="212" class="vline"/>
    <rect x="275" y="0" width="1" height="212" class="vline"/>
    <rect x="375" y="0" width="1" height="212" class="vline"/>
    <rect x="475" y="0" width="1" height="212" class="vline"/>
    <rect x="575" y="0" width="1" height="212" class="vline"/>
    <rect x="225" y="0" width="1" height="212" class="subline"/>
    <rect x="325" y="0" width="1" height="212" class="subline"/>
    <rect x="425" y="0" width="1" height="212" class="subline"/>
    <rect x="525" y="0" width="1" height="212" class="subline"/>
    <rect x="175" y="212" width="450" height="1" class="subline"/>

    <rect x="265" y="220" width="30" class="call"/>
    <text x="305" y="232">ns / call</text>
    <rect x="395" y="220" width="30" class="gc"/>
    <text x="435" y="232">GC</text>
  </g>

  <rect x="175" y="20" width="203.959625" rx="2" ry="2" class="call"/>
  <rect x="175" y="34" width="125.000000" rx="2" ry="2" class="gc"/>
  <text x="160" y="37" text-anchor="end">FastJson</text>
  <text x="160" y="47" text-anchor="end" class="desc">2.0.15.graal</text>
  <text x="385.959625" y="30" class="desc">8308846</text>
  <text x="307.000000" y="44" class="desc">9</text>

  <rect x="175" y="68" width="264.026541" rx="2" ry="2" class="call"/>
  <rect x="175" y="82" width="138.888889" rx="2" ry="2" class="gc"/>
  <text x="160" y="85" text-anchor="end">Jackson</text>
  <text x="160" y="95" text-anchor="end" class="desc">2.14.0-rc2</text>
  <text x="446.026541" y="78" class="desc">10755834</text>
  <text x="320.888889" y="92" class="desc">10</text>

  <rect x="175" y="116" width="328.729064" rx="2" ry="2" class="call"/>
  <rect x="175" y="130" width="88.888889" rx="2" ry="2" class="gc"/>
  <text x="160" y="133" text-anchor="end">Sinobu</text>
  <text x="160" y="143" text-anchor="end" class="desc">2.20.0</text>
  <text x="510.729064" y="126" class="desc">13391666</text>
  <text x="270.888889" y="140" class="desc">6</text>

  <rect x="175" y="164" width="350.000000" rx="2" ry="2" class="call"/>
  <rect x="175" y="178" width="150.000000" rx="2" ry="2" class="gc"/>
  <text x="160" y="181" text-anchor="end">Gson</text>
  <text x="160" y="191" text-anchor="end" class="desc">2.9.1</text>
  <text x="532.000000" y="174" class="desc">14258195</text>
  <text x="332.000000" y="188" class="desc">10</text>

  <text x="175" y="252" class="desc">Java: 19</text>
  <text x="245" y="252" class="desc">Memory: 4072MB</text>
  <text x="345" y="252" class="desc">CPU: Intel(R) Core(TM) i7-3770K CPU @ 3.50GHz 3.501GHz</text>
</svg>
