<svg xmlns="http://www.w3.org/2000/svg" viewBox="0 0 625 242">
  <style>
      text {
          font-family: Arial;
          font-size: 13px;
          fill: #787878;
      }

      .desc {
          font-size: 9px;
      }

      .vline {
          fill: #acacac;
          stroke: none;
          stroke-width: 0;
      }

      .subline {
          fill: #bbb;
          stroke: none;
          stroke-width: 0;
      }

      .call {
          fill: #4886CD;
          stroke-linejoin: round;
          height: 14px;
      }

      .gc {
          fill: #4FB84B;
          stroke-linejoin: round;
          height: 14px;
      }
  </style>
  <g>
    <rect x="175" y="0" width="1" height="212" class="vline"/>
    <rect x="275" y="0" width="1" height="212" class="vline"/>
    <rect x="375" y="0" width="1" height="212" class="vline"/>
    <rect x="475" y="0" width="1" height="212" class="vline"/>
    <rect x="575" y="0" width="1" height="212" class="vline"/>
    <rect x="225" y="0" width="1" height="212" class="subline"/>
    <rect x="325" y="0" width="1" height="212" class="subline"/>
    <rect x="425" y="0" width="1" height="212" class="subline"/>
    <rect x="525" y="0" width="1" height="212" class="subline"/>
    <rect x="175" y="212" width="450" height="1" class="subline"/>

    <rect x="265" y="220" width="30" class="call"/>
    <text x="305" y="232">ns / call</text>
    <rect x="395" y="220" width="30" class="gc"/>
    <text x="435" y="232">GC</text>
   </g>
  <g>
    <rect x="175" y="20" width="189.102564" rx="2" ry="2" class="call"/>
    <rect x="175" y="34" width="94.736842" rx="2" ry="2" class="gc"/>
    <text x="160" y="37" text-anchor="end">FastJson</text>
    <text x="371.102564" y="30" class="desc">885</text>
    <text x="276.736842" y="44" class="desc">16</text>
  </g>
  <g>
    <rect x="175" y="68" width="291.025641" rx="2" ry="2" class="call"/>
    <rect x="175" y="82" width="54.135338" rx="2" ry="2" class="gc"/>
    <text x="160" y="85" text-anchor="end">Jackson</text>
    <text x="473.025641" y="78" class="desc">1362</text>
    <text x="236.135338" y="92" class="desc">9</text>
  </g>
  <g>
    <rect x="175" y="116" width="319.017094" rx="2" ry="2" class="call"/>
    <rect x="175" y="130" width="28.195489" rx="2" ry="2" class="gc"/>
    <text x="160" y="133" text-anchor="end">Sinobu</text>
    <text x="501.017094" y="126" class="desc">1493</text>
    <text x="210.195489" y="140" class="desc">5</text>
  </g>
  <g>
    <rect x="175" y="164" width="350.000000" rx="2" ry="2" class="call"/>
    <rect x="175" y="178" width="150.000000" rx="2" ry="2" class="gc"/>
    <text x="160" y="181" text-anchor="end">Gson</text>
    <text x="532.000000" y="174" class="desc">1638</text>
    <text x="332.000000" y="188" class="desc">26</text>
  </g>
</svg>
