<svg xmlns="http://www.w3.org/2000/svg" viewBox="0 0 625 290">
  <style>
      text {
          font-family: Arial;
          font-size: 13px;
          fill: #787878;
      }

      .desc {
          font-size: 9px;
      }

      .vline {
          fill: #acacac;
          stroke: none;
          stroke-width: 0;
      }

      .subline {
          fill: #bbb;
          stroke: none;
          stroke-width: 0;
      }

      .call {
          fill: #4886CD;
          stroke-linejoin: round;
          height: 14px;
      }

      .gc {
          fill: #4FB84B;
          stroke-linejoin: round;
          height: 14px;
      }
  </style>
  <g>
    <rect x="175" y="0" width="1" height="260" class="vline"/>
    <rect x="275" y="0" width="1" height="260" class="vline"/>
    <rect x="375" y="0" width="1" height="260" class="vline"/>
    <rect x="475" y="0" width="1" height="260" class="vline"/>
    <rect x="575" y="0" width="1" height="260" class="vline"/>
    <rect x="225" y="0" width="1" height="260" class="subline"/>
    <rect x="325" y="0" width="1" height="260" class="subline"/>
    <rect x="425" y="0" width="1" height="260" class="subline"/>
    <rect x="525" y="0" width="1" height="260" class="subline"/>
    <rect x="175" y="260" width="450" height="1" class="subline"/>

    <rect x="265" y="268" width="30" class="call"/>
    <text x="305" y="280">ns / call</text>
    <rect x="395" y="268" width="30" class="gc"/>
    <text x="435" y="280">GC</text>
   </g>
  <g>
    <rect x="175" y="20" width="123.130194" rx="2" ry="2" class="call"/>
    <rect x="175" y="34" width="86.235955" rx="2" ry="2" class="gc"/>
    <text x="160" y="37" text-anchor="end">FastJson</text>
    <text x="305.130194" y="30" class="desc">127</text>
    <text x="268.235955" y="44" class="desc">61</text>
  </g>
  <g>
    <rect x="175" y="68" width="172.576177" rx="2" ry="2" class="call"/>
    <rect x="175" y="82" width="91.853933" rx="2" ry="2" class="gc"/>
    <text x="160" y="85" text-anchor="end">Jackson</text>
    <text x="354.576177" y="78" class="desc">178</text>
    <text x="273.853933" y="92" class="desc">65</text>
  </g>
  <g>
    <rect x="175" y="116" width="184.210526" rx="2" ry="2" class="call"/>
    <rect x="175" y="130" width="35.674157" rx="2" ry="2" class="gc"/>
    <text x="160" y="133" text-anchor="end">New Parser</text>
    <text x="366.210526" y="126" class="desc">190</text>
    <text x="217.674157" y="140" class="desc">25</text>
  </g>
  <g>
    <rect x="175" y="164" width="191.966759" rx="2" ry="2" class="call"/>
    <rect x="175" y="178" width="30.056180" rx="2" ry="2" class="gc"/>
    <text x="160" y="181" text-anchor="end">Sinobu</text>
    <text x="373.966759" y="174" class="desc">198</text>
    <text x="212.056180" y="188" class="desc">21</text>
  </g>
  <g>
    <rect x="175" y="212" width="350.000000" rx="2" ry="2" class="call"/>
    <rect x="175" y="226" width="150.000000" rx="2" ry="2" class="gc"/>
    <text x="160" y="229" text-anchor="end">Gson</text>
    <text x="532.000000" y="222" class="desc">361</text>
    <text x="332.000000" y="236" class="desc">106</text>
  </g>
</svg>
