 <svg xmlns="http://www.w3.org/2000/svg">
     <g>
       <rect x="175" y="0" width="1" height="200" stroke="none" stroke-width="0" fill="#cccccc" />
       <rect x="275" y="0" width="1" height="200" stroke="none" stroke-width="0" fill="#cccccc" />
       <rect x="375" y="0" width="1" height="200" stroke="none" stroke-width="0" fill="#cccccc" />
       <rect x="475" y="0" width="1" height="200" stroke="none" stroke-width="0" fill="#cccccc" />
       <rect x="575" y="0" width="1" height="200" stroke="none" stroke-width="0" fill="#cccccc" />
       <rect x="225" y="0" width="1" height="200" stroke="none" stroke-width="0" fill="#ebebeb" />
       <rect x="325" y="0" width="1" height="200" stroke="none" stroke-width="0" fill="#ebebeb" />
       <rect x="425" y="0" width="1" height="200" stroke="none" stroke-width="0" fill="#ebebeb" />
       <rect x="525" y="0" width="1" height="200" stroke="none" stroke-width="0" fill="#ebebeb" />
       <rect x="175" y="200" width="450" height="1" stroke="none" stroke-width="0" fill="#ebebeb" />
       <text x="400" y="220" font-family="Arial" font-size="13" fill="#666" text-anchor="middle">call / 1sec</text>
    </g>
<g>
    <rect x="175" y="20" width="350.000000" height="25" fill="#FFAB7B" rx="2" ry="2" stroke-linejoin="round"/>
    <text x="160" y="35" font-family="Arial" font-size="13" fill="#666" text-anchor="end">Sinobu</text>
    <text x="375" y="37" font-family="Arial" font-size="11" fill="#666" text-anchor="middle">116087call  (GC 5)</text>
</g>
<g>
    <rect x="175" y="65" width="276.060627" height="25" fill="#FFAB7B" rx="2" ry="2" stroke-linejoin="round"/>
    <text x="160" y="80" font-family="Arial" font-size="13" fill="#666" text-anchor="end">FastJson</text>
    <text x="375" y="82" font-family="Arial" font-size="11" fill="#666" text-anchor="middle">91563call  (GC 16)</text>
</g>
<g>
    <rect x="175" y="110" width="237.306072" height="25" fill="#FFAB7B" rx="2" ry="2" stroke-linejoin="round"/>
    <text x="160" y="125" font-family="Arial" font-size="13" fill="#666" text-anchor="end">Jackson</text>
    <text x="375" y="127" font-family="Arial" font-size="11" fill="#666" text-anchor="middle">78709call  (GC 9)</text>
</g>
<g>
    <rect x="175" y="155" width="173.813605" height="25" fill="#FFAB7B" rx="2" ry="2" stroke-linejoin="round"/>
    <text x="160" y="170" font-family="Arial" font-size="13" fill="#666" text-anchor="end">Gson</text>
    <text x="375" y="172" font-family="Arial" font-size="11" fill="#666" text-anchor="middle">57650call  (GC 10)</text>
</g>
</svg>
