<svg xmlns="http://www.w3.org/2000/svg" viewBox="0 0 625 910">
  <style>
      text {
          font-family: Arial;
          font-size: 13px;
          fill: #787878;
      }

      .desc {
          font-size: 9px;
      }

      .vline {
          fill: #acacac;
          stroke: none;
          stroke-width: 0;
      }

      .subline {
          fill: #bbb;
          stroke: none;
          stroke-width: 0;
      }

      .bar {
          stroke-linejoin: round;
          height: 12px;
      }
  </style>
  <rect x="175" y="0" width="1" height="860" class="vline"/>
  <rect x="275" y="0" width="1" height="860" class="vline"/>
  <rect x="375" y="0" width="1" height="860" class="vline"/>
  <rect x="475" y="0" width="1" height="860" class="vline"/>
  <rect x="575" y="0" width="1" height="860" class="vline"/>
  <rect x="225" y="0" width="1" height="860" class="subline"/>
  <rect x="325" y="0" width="1" height="860" class="subline"/>
  <rect x="425" y="0" width="1" height="860" class="subline"/>
  <rect x="525" y="0" width="1" height="860" class="subline"/>
  <rect x="175" y="860" width="450" height="1" class="subline"/>

  <rect x="205" y="868" width="30" fill="#4886CD" class="bar"/>
  <text x="245" y="880">ns / call</text>
  <rect x="335" y="868" width="30" fill="#4FB84B" class="bar"/>
  <text x="375" y="880">GC</text>
  <rect x="465" y="868" width="30" fill="#BF4F4B" class="bar"/>
  <text x="505" y="880">Memory</text>
  <text x="160" y="37" text-anchor="end">Sinobu Sync-NoCaller</text>
  <text x="160" y="47" text-anchor="end" class="desc">4.0.0</text>
  <rect x="175" y="20" width="7.02" rx="2" ry="2" fill="#4886CD" class="bar"/>
  <text x="189.02" y="30" class="desc">377</text>
  <rect x="175" y="32" width="0.00" rx="2" ry="2" fill="#4FB84B" class="bar"/>
  <text x="182.00" y="42" class="desc">0</text>
  <rect x="175" y="44" width="3.76" rx="2" ry="2" fill="#BF4F4B" class="bar"/>
  <text x="185.76" y="54" class="desc">9</text>
  <text x="160" y="93" text-anchor="end">TinyLog Sync-NoCaller</text>
  <text x="160" y="103" text-anchor="end" class="desc">2.8.0-M1</text>
  <rect x="175" y="76" width="8.05" rx="2" ry="2" fill="#4886CD" class="bar"/>
  <text x="190.05" y="86" class="desc">432</text>
  <rect x="175" y="88" width="13.73" rx="2" ry="2" fill="#4FB84B" class="bar"/>
  <text x="195.73" y="98" class="desc">4</text>
  <rect x="175" y="100" width="207.32" rx="2" ry="2" fill="#BF4F4B" class="bar"/>
  <text x="389.32" y="110" class="desc">496</text>
  <text x="160" y="149" text-anchor="end">TinyLog Async-NoCaller</text>
  <text x="160" y="159" text-anchor="end" class="desc">2.8.0-M1</text>
  <rect x="175" y="132" width="10.92" rx="2" ry="2" fill="#4886CD" class="bar"/>
  <text x="192.92" y="142" class="desc">586</text>
  <rect x="175" y="144" width="13.73" rx="2" ry="2" fill="#4FB84B" class="bar"/>
  <text x="195.73" y="154" class="desc">4</text>
  <rect x="175" y="156" width="209.83" rx="2" ry="2" fill="#BF4F4B" class="bar"/>
  <text x="391.83" y="166" class="desc">502</text>
  <text x="160" y="205" text-anchor="end">Logback Async-NoCaller</text>
  <text x="160" y="215" text-anchor="end" class="desc">1.5.11</text>
  <rect x="175" y="188" width="11.66" rx="2" ry="2" fill="#4886CD" class="bar"/>
  <text x="193.66" y="198" class="desc">626</text>
  <rect x="175" y="200" width="140.69" rx="2" ry="2" fill="#4FB84B" class="bar"/>
  <text x="322.69" y="210" class="desc">41</text>
  <rect x="175" y="212" width="35.53" rx="2" ry="2" fill="#BF4F4B" class="bar"/>
  <text x="217.53" y="222" class="desc">85</text>
  <text x="160" y="261" text-anchor="end">Logback Sync-NoCaller</text>
  <text x="160" y="271" text-anchor="end" class="desc">1.5.11</text>
  <rect x="175" y="244" width="12.67" rx="2" ry="2" fill="#4886CD" class="bar"/>
  <text x="194.67" y="254" class="desc">680</text>
  <rect x="175" y="256" width="126.96" rx="2" ry="2" fill="#4FB84B" class="bar"/>
  <text x="308.96" y="266" class="desc">37</text>
  <rect x="175" y="268" width="35.53" rx="2" ry="2" fill="#BF4F4B" class="bar"/>
  <text x="217.53" y="278" class="desc">85</text>
  <text x="160" y="317" text-anchor="end">Log4j Async-NoCaller</text>
  <text x="160" y="327" text-anchor="end" class="desc">3.0.0-beta2</text>
  <rect x="175" y="300" width="20.25" rx="2" ry="2" fill="#4886CD" class="bar"/>
  <text x="202.25" y="310" class="desc">1087</text>
  <rect x="175" y="312" width="0.00" rx="2" ry="2" fill="#4FB84B" class="bar"/>
  <text x="182.00" y="322" class="desc">0</text>
  <rect x="175" y="324" width="15.47" rx="2" ry="2" fill="#BF4F4B" class="bar"/>
  <text x="197.47" y="334" class="desc">37</text>
  <text x="160" y="373" text-anchor="end">Log4j Sync-NoCaller</text>
  <text x="160" y="383" text-anchor="end" class="desc">3.0.0-beta2</text>
  <rect x="175" y="356" width="23.27" rx="2" ry="2" fill="#4886CD" class="bar"/>
  <text x="205.27" y="366" class="desc">1249</text>
  <rect x="175" y="368" width="0.00" rx="2" ry="2" fill="#4FB84B" class="bar"/>
  <text x="182.00" y="378" class="desc">0</text>
  <rect x="175" y="380" width="14.21" rx="2" ry="2" fill="#BF4F4B" class="bar"/>
  <text x="196.21" y="390" class="desc">34</text>
  <text x="160" y="429" text-anchor="end">Sinobu Sync-Caller</text>
  <text x="160" y="439" text-anchor="end" class="desc">4.0.0</text>
  <rect x="175" y="412" width="95.14" rx="2" ry="2" fill="#4886CD" class="bar"/>
  <text x="277.14" y="422" class="desc">5107</text>
  <rect x="175" y="424" width="6.86" rx="2" ry="2" fill="#4FB84B" class="bar"/>
  <text x="188.86" y="434" class="desc">2</text>
  <rect x="175" y="436" width="35.53" rx="2" ry="2" fill="#BF4F4B" class="bar"/>
  <text x="217.53" y="446" class="desc">85</text>
  <text x="160" y="485" text-anchor="end">TinyLog Sync-Caller</text>
  <text x="160" y="495" text-anchor="end" class="desc">2.8.0-M1</text>
  <rect x="175" y="468" width="113.56" rx="2" ry="2" fill="#4886CD" class="bar"/>
  <text x="295.56" y="478" class="desc">6096</text>
  <rect x="175" y="480" width="10.29" rx="2" ry="2" fill="#4FB84B" class="bar"/>
  <text x="192.29" y="490" class="desc">3</text>
  <rect x="175" y="492" width="35.53" rx="2" ry="2" fill="#BF4F4B" class="bar"/>
  <text x="217.53" y="502" class="desc">85</text>
  <text x="160" y="541" text-anchor="end">TinyLog Async-Caller</text>
  <text x="160" y="551" text-anchor="end" class="desc">2.8.0-M1</text>
  <rect x="175" y="524" width="113.60" rx="2" ry="2" fill="#4886CD" class="bar"/>
  <text x="295.60" y="534" class="desc">6098</text>
  <rect x="175" y="536" width="10.29" rx="2" ry="2" fill="#4FB84B" class="bar"/>
  <text x="192.29" y="546" class="desc">3</text>
  <rect x="175" y="548" width="35.53" rx="2" ry="2" fill="#BF4F4B" class="bar"/>
  <text x="217.53" y="558" class="desc">85</text>
  <text x="160" y="597" text-anchor="end">Log4j Sync-Caller</text>
  <text x="160" y="607" text-anchor="end" class="desc">3.0.0-beta2</text>
  <rect x="175" y="580" width="196.80" rx="2" ry="2" fill="#4886CD" class="bar"/>
  <text x="378.80" y="590" class="desc">10564</text>
  <rect x="175" y="592" width="6.86" rx="2" ry="2" fill="#4FB84B" class="bar"/>
  <text x="188.86" y="602" class="desc">2</text>
  <rect x="175" y="604" width="35.53" rx="2" ry="2" fill="#BF4F4B" class="bar"/>
  <text x="217.53" y="614" class="desc">85</text>
  <text x="160" y="653" text-anchor="end">Logback Async-Caller</text>
  <text x="160" y="663" text-anchor="end" class="desc">1.5.11</text>
  <rect x="175" y="636" width="276.21" rx="2" ry="2" fill="#4886CD" class="bar"/>
  <text x="458.21" y="646" class="desc">14827</text>
  <rect x="175" y="648" width="10.29" rx="2" ry="2" fill="#4FB84B" class="bar"/>
  <text x="192.29" y="658" class="desc">3</text>
  <rect x="175" y="660" width="35.53" rx="2" ry="2" fill="#BF4F4B" class="bar"/>
  <text x="217.53" y="670" class="desc">85</text>
  <text x="160" y="709" text-anchor="end">Logback Sync-Caller</text>
  <text x="160" y="719" text-anchor="end" class="desc">1.5.11</text>
  <rect x="175" y="692" width="319.91" rx="2" ry="2" fill="#4886CD" class="bar"/>
  <text x="501.91" y="702" class="desc">17173</text>
  <rect x="175" y="704" width="10.29" rx="2" ry="2" fill="#4FB84B" class="bar"/>
  <text x="192.29" y="714" class="desc">3</text>
  <rect x="175" y="716" width="35.53" rx="2" ry="2" fill="#BF4F4B" class="bar"/>
  <text x="217.53" y="726" class="desc">85</text>
  <text x="160" y="765" text-anchor="end">JUL Sync-NoCaller</text>
  <text x="160" y="775" text-anchor="end" class="desc"></text>
  <rect x="175" y="748" width="322.47" rx="2" ry="2" fill="#4886CD" class="bar"/>
  <text x="504.47" y="758" class="desc">17310</text>
  <rect x="175" y="760" width="13.73" rx="2" ry="2" fill="#4FB84B" class="bar"/>
  <text x="195.73" y="770" class="desc">4</text>
  <rect x="175" y="772" width="35.53" rx="2" ry="2" fill="#BF4F4B" class="bar"/>
  <text x="217.53" y="782" class="desc">85</text>
  <text x="160" y="821" text-anchor="end">JUL Sync-Caller</text>
  <text x="160" y="831" text-anchor="end" class="desc"></text>
  <rect x="175" y="804" width="350.00" rx="2" ry="2" fill="#4886CD" class="bar"/>
  <text x="532.00" y="814" class="desc">18788</text>
  <rect x="175" y="816" width="13.73" rx="2" ry="2" fill="#4FB84B" class="bar"/>
  <text x="195.73" y="826" class="desc">4</text>
  <rect x="175" y="828" width="35.53" rx="2" ry="2" fill="#BF4F4B" class="bar"/>
  <text x="217.53" y="838" class="desc">85</text>
  <text x="175" y="900" class="desc">Java: 21</text>
  <text x="245" y="900" class="desc">Memory: 4072MB</text>
  <text x="345" y="900" class="desc">CPU: Intel(R) Core(TM) i7-3770K CPU @ 3.50GHz 3.501GHz</text>
</svg>
