<svg xmlns="http://www.w3.org/2000/svg" viewBox="0 0 625 742">
  <style>
      text {
          font-family: Arial;
          font-size: 13px;
          fill: #787878;
      }

      .desc {
          font-size: 9px;
      }

      .vline {
          fill: #acacac;
          stroke: none;
          stroke-width: 0;
      }

      .subline {
          fill: #bbb;
          stroke: none;
          stroke-width: 0;
      }

      .call {
          fill: #4886CD;
          stroke-linejoin: round;
          height: 14px;
      }

      .gc {
          fill: #4FB84B;
          stroke-linejoin: round;
          height: 14px;
      }
  </style>
  <g>
    <rect x="175" y="0" width="1" height="692" class="vline"/>
    <rect x="275" y="0" width="1" height="692" class="vline"/>
    <rect x="375" y="0" width="1" height="692" class="vline"/>
    <rect x="475" y="0" width="1" height="692" class="vline"/>
    <rect x="575" y="0" width="1" height="692" class="vline"/>
    <rect x="225" y="0" width="1" height="692" class="subline"/>
    <rect x="325" y="0" width="1" height="692" class="subline"/>
    <rect x="425" y="0" width="1" height="692" class="subline"/>
    <rect x="525" y="0" width="1" height="692" class="subline"/>
    <rect x="175" y="692" width="450" height="1" class="subline"/>

    <rect x="265" y="700" width="30" class="call"/>
    <text x="305" y="712">ns / call</text>
    <rect x="395" y="700" width="30" class="gc"/>
    <text x="435" y="712">GC</text>
  </g>

  <rect x="175" y="20" width="6.899811" rx="2" ry="2" class="call"/>
  <rect x="175" y="34" width="52.631579" rx="2" ry="2" class="gc"/>
  <text x="160" y="37" text-anchor="end">Logback Async-NoCaller</text>
  <text x="188.899811" y="30" class="desc">146</text>
  <text x="234.631579" y="44" class="desc">4</text>

  <rect x="175" y="68" width="7.325142" rx="2" ry="2" class="call"/>
  <rect x="175" y="82" width="52.631579" rx="2" ry="2" class="gc"/>
  <text x="160" y="85" text-anchor="end">Logback Sync-NoCaller</text>
  <text x="189.325142" y="78" class="desc">155</text>
  <text x="234.631579" y="92" class="desc">4</text>

  <rect x="175" y="116" width="8.270321" rx="2" ry="2" class="call"/>
  <rect x="175" y="130" width="0.000000" rx="2" ry="2" class="gc"/>
  <text x="160" y="133" text-anchor="end">Sinobu Sync-NoCaller</text>
  <text x="190.270321" y="126" class="desc">175</text>
  <text x="182.000000" y="140" class="desc">0</text>

  <rect x="175" y="164" width="11.720227" rx="2" ry="2" class="call"/>
  <rect x="175" y="178" width="0.000000" rx="2" ry="2" class="gc"/>
  <text x="160" y="181" text-anchor="end">Log4j2 Sync-NoCaller</text>
  <text x="193.720227" y="174" class="desc">248</text>
  <text x="182.000000" y="188" class="desc">0</text>

  <rect x="175" y="212" width="12.523629" rx="2" ry="2" class="call"/>
  <rect x="175" y="226" width="0.000000" rx="2" ry="2" class="gc"/>
  <text x="160" y="229" text-anchor="end">Log4j2 Async-NoCaller</text>
  <text x="194.523629" y="222" class="desc">265</text>
  <text x="182.000000" y="236" class="desc">0</text>

  <rect x="175" y="260" width="86.531191" rx="2" ry="2" class="call"/>
  <rect x="175" y="274" width="92.105263" rx="2" ry="2" class="gc"/>
  <text x="160" y="277" text-anchor="end">TinyLog Sync-Caller</text>
  <text x="268.531191" y="270" class="desc">1831</text>
  <text x="274.105263" y="284" class="desc">7</text>

  <rect x="175" y="308" width="87.192817" rx="2" ry="2" class="call"/>
  <rect x="175" y="322" width="92.105263" rx="2" ry="2" class="gc"/>
  <text x="160" y="325" text-anchor="end">TinyLog Async-Caller</text>
  <text x="269.192817" y="318" class="desc">1845</text>
  <text x="274.105263" y="332" class="desc">7</text>

  <rect x="175" y="356" width="88.610586" rx="2" ry="2" class="call"/>
  <rect x="175" y="370" width="118.421053" rx="2" ry="2" class="gc"/>
  <text x="160" y="373" text-anchor="end">Sinobu Sync-Caller</text>
  <text x="270.610586" y="366" class="desc">1875</text>
  <text x="300.421053" y="380" class="desc">9</text>

  <rect x="175" y="404" width="168.052930" rx="2" ry="2" class="call"/>
  <rect x="175" y="418" width="92.105263" rx="2" ry="2" class="gc"/>
  <text x="160" y="421" text-anchor="end">Log4j2 Sync-Caller</text>
  <text x="350.052930" y="414" class="desc">3556</text>
  <text x="274.105263" y="428" class="desc">7</text>

  <rect x="175" y="452" width="278.497164" rx="2" ry="2" class="call"/>
  <rect x="175" y="466" width="52.631579" rx="2" ry="2" class="gc"/>
  <text x="160" y="469" text-anchor="end">Log4j2 Async-Caller</text>
  <text x="460.497164" y="462" class="desc">5893</text>
  <text x="234.631579" y="476" class="desc">4</text>

  <rect x="175" y="500" width="289.744802" rx="2" ry="2" class="call"/>
  <rect x="175" y="514" width="68.421053" rx="2" ry="2" class="gc"/>
  <text x="160" y="517" text-anchor="end">Logback Sync-Caller</text>
  <text x="471.744802" y="510" class="desc">6131</text>
  <text x="250.421053" y="524" class="desc">5</text>

  <rect x="175" y="548" width="299.338374" rx="2" ry="2" class="call"/>
  <rect x="175" y="562" width="150.000000" rx="2" ry="2" class="gc"/>
  <text x="160" y="565" text-anchor="end">JUL Sync-NoCaller</text>
  <text x="481.338374" y="558" class="desc">6334</text>
  <text x="332.000000" y="572" class="desc">11</text>

  <rect x="175" y="596" width="306.285444" rx="2" ry="2" class="call"/>
  <rect x="175" y="610" width="144.736842" rx="2" ry="2" class="gc"/>
  <text x="160" y="613" text-anchor="end">JUL Sync-Caller</text>
  <text x="488.285444" y="606" class="desc">6481</text>
  <text x="326.736842" y="620" class="desc">11</text>

  <rect x="175" y="644" width="350.000000" rx="2" ry="2" class="call"/>
  <rect x="175" y="658" width="52.631579" rx="2" ry="2" class="gc"/>
  <text x="160" y="661" text-anchor="end">Logback Async-Caller</text>
  <text x="532.000000" y="654" class="desc">7406</text>
  <text x="234.631579" y="668" class="desc">4</text>

  <text x="205" y="732" class="desc">Java: 19</text>
  <text x="275" y="732" class="desc">Memory: 8128MB</text>
  <text x="375" y="732" class="desc">CPU: 12th Gen Intel(R) Core(TM) i5-12400 2.5GHz</text>
</svg>
