<svg xmlns="http://www.w3.org/2000/svg" viewBox="0 0 625 722">
  <style>
      text {
          font-family: Arial;
          font-size: 13px;
          fill: #787878;
      }

      .desc {
          font-size: 9px;
      }

      .vline {
          fill: #acacac;
          stroke: none;
          stroke-width: 0;
      }

      .subline {
          fill: #bbb;
          stroke: none;
          stroke-width: 0;
      }

      .call {
          fill: #4886CD;
          stroke-linejoin: round;
          height: 14px;
      }

      .gc {
          fill: #4FB84B;
          stroke-linejoin: round;
          height: 14px;
      }
  </style>
  <g>
    <rect x="175" y="0" width="1" height="692" class="vline"/>
    <rect x="275" y="0" width="1" height="692" class="vline"/>
    <rect x="375" y="0" width="1" height="692" class="vline"/>
    <rect x="475" y="0" width="1" height="692" class="vline"/>
    <rect x="575" y="0" width="1" height="692" class="vline"/>
    <rect x="225" y="0" width="1" height="692" class="subline"/>
    <rect x="325" y="0" width="1" height="692" class="subline"/>
    <rect x="425" y="0" width="1" height="692" class="subline"/>
    <rect x="525" y="0" width="1" height="692" class="subline"/>
    <rect x="175" y="692" width="450" height="1" class="subline"/>

    <rect x="265" y="700" width="30" class="call"/>
    <text x="305" y="712">ns / call</text>
    <rect x="395" y="700" width="30" class="gc"/>
    <text x="435" y="712">GC</text>
   </g>
  <g>
    <rect x="175" y="20" width="3.420726" rx="2" ry="2" class="call"/>
    <rect x="175" y="34" width="0.000000" rx="2" ry="2" class="gc"/>
    <text x="160" y="37" text-anchor="end">Sinobu Sync-NoCaller</text>
    <text x="185.420726" y="30" class="desc">189</text>
    <text x="182.000000" y="44" class="desc">0</text>
  </g>
  <g>
    <rect x="175" y="68" width="6.153687" rx="2" ry="2" class="call"/>
    <rect x="175" y="82" width="30.000000" rx="2" ry="2" class="gc"/>
    <text x="160" y="85" text-anchor="end">Log4j2 Async-NoCaller</text>
    <text x="188.153687" y="78" class="desc">340</text>
    <text x="212.000000" y="92" class="desc">1</text>
  </g>
  <g>
    <rect x="175" y="116" width="7.728307" rx="2" ry="2" class="call"/>
    <rect x="175" y="130" width="120.000000" rx="2" ry="2" class="gc"/>
    <text x="160" y="133" text-anchor="end">Logback Async-NoCaller</text>
    <text x="189.728307" y="126" class="desc">427</text>
    <text x="302.000000" y="140" class="desc">4</text>
  </g>
  <g>
    <rect x="175" y="164" width="7.855001" rx="2" ry="2" class="call"/>
    <rect x="175" y="178" width="0.000000" rx="2" ry="2" class="gc"/>
    <text x="160" y="181" text-anchor="end">Log4j2 Sync-NoCaller</text>
    <text x="189.855001" y="174" class="desc">434</text>
    <text x="182.000000" y="188" class="desc">0</text>
  </g>
  <g>
    <rect x="175" y="212" width="7.855001" rx="2" ry="2" class="call"/>
    <rect x="175" y="226" width="120.000000" rx="2" ry="2" class="gc"/>
    <text x="160" y="229" text-anchor="end">Logback Sync-NoCaller</text>
    <text x="189.855001" y="222" class="desc">434</text>
    <text x="302.000000" y="236" class="desc">4</text>
  </g>
  <g>
    <rect x="175" y="260" width="68.016341" rx="2" ry="2" class="call"/>
    <rect x="175" y="274" width="120.000000" rx="2" ry="2" class="gc"/>
    <text x="160" y="277" text-anchor="end">TinyLog Sync-Caller</text>
    <text x="250.016341" y="270" class="desc">3758</text>
    <text x="302.000000" y="284" class="desc">4</text>
  </g>
  <g>
    <rect x="175" y="308" width="72.414417" rx="2" ry="2" class="call"/>
    <rect x="175" y="322" width="102.000000" rx="2" ry="2" class="gc"/>
    <text x="160" y="325" text-anchor="end">TinyLog Async-Caller</text>
    <text x="254.414417" y="318" class="desc">4001</text>
    <text x="284.000000" y="332" class="desc">3</text>
  </g>
  <g>
    <rect x="175" y="356" width="81.101975" rx="2" ry="2" class="call"/>
    <rect x="175" y="370" width="108.000000" rx="2" ry="2" class="gc"/>
    <text x="160" y="373" text-anchor="end">Sinobu Sync-Caller</text>
    <text x="263.101975" y="366" class="desc">4481</text>
    <text x="290.000000" y="380" class="desc">3</text>
  </g>
  <g>
    <rect x="175" y="404" width="144.810735" rx="2" ry="2" class="call"/>
    <rect x="175" y="418" width="90.000000" rx="2" ry="2" class="gc"/>
    <text x="160" y="421" text-anchor="end">Log4j2 Sync-Caller</text>
    <text x="326.810735" y="414" class="desc">8001</text>
    <text x="272.000000" y="428" class="desc">3</text>
  </g>
  <g>
    <rect x="175" y="452" width="174.438929" rx="2" ry="2" class="call"/>
    <rect x="175" y="466" width="78.000000" rx="2" ry="2" class="gc"/>
    <text x="160" y="469" text-anchor="end">Log4j2 Async-Caller</text>
    <text x="356.438929" y="462" class="desc">9638</text>
    <text x="260.000000" y="476" class="desc">2</text>
  </g>
  <g>
    <rect x="175" y="500" width="281.277795" rx="2" ry="2" class="call"/>
    <rect x="175" y="514" width="54.000000" rx="2" ry="2" class="gc"/>
    <text x="160" y="517" text-anchor="end">Logback Async-Caller</text>
    <text x="463.277795" y="510" class="desc">15541</text>
    <text x="236.000000" y="524" class="desc">1</text>
  </g>
  <g>
    <rect x="175" y="548" width="312.951184" rx="2" ry="2" class="call"/>
    <rect x="175" y="562" width="60.000000" rx="2" ry="2" class="gc"/>
    <text x="160" y="565" text-anchor="end">Logback Sync-Caller</text>
    <text x="494.951184" y="558" class="desc">17291</text>
    <text x="242.000000" y="572" class="desc">2</text>
  </g>
  <g>
    <rect x="175" y="596" width="336.027511" rx="2" ry="2" class="call"/>
    <rect x="175" y="610" width="150.000000" rx="2" ry="2" class="gc"/>
    <text x="160" y="613" text-anchor="end">JUL Sync-NoCaller</text>
    <text x="518.027511" y="606" class="desc">18566</text>
    <text x="332.000000" y="620" class="desc">5</text>
  </g>
  <g>
    <rect x="175" y="644" width="350.000000" rx="2" ry="2" class="call"/>
    <rect x="175" y="658" width="150.000000" rx="2" ry="2" class="gc"/>
    <text x="160" y="661" text-anchor="end">JUL Sync-Caller</text>
    <text x="532.000000" y="654" class="desc">19338</text>
    <text x="332.000000" y="668" class="desc">5</text>
  </g>
</svg>
