<svg xmlns="http://www.w3.org/2000/svg" viewBox="0 0 625 722">
  <style>
      text {
          font-family: Arial;
          font-size: 13px;
          fill: #666;
      }

      .vline {
          fill: #ccc;
          stroke: none;
          stroke-width: 0;
      }

      .subline {
          fill: #ccc;
          stroke: none;
          stroke-width: 0;
      }

      .call {
          fill: #FFAB7B;
          stroke-linejoin: round;
          height: 14px;
      }

      .gc {
          fill: #BA95EB;
          stroke-linejoin: round;
          height: 14px;
      }
  </style>
  <g>
    <rect x="175" y="0" width="1" height="692" class="vline"/>
    <rect x="275" y="0" width="1" height="692" class="vline"/>
    <rect x="375" y="0" width="1" height="692" class="vline"/>
    <rect x="475" y="0" width="1" height="692" class="vline"/>
    <rect x="575" y="0" width="1" height="692" class="vline"/>
    <rect x="225" y="0" width="1" height="692" class="subline"/>
    <rect x="325" y="0" width="1" height="692" class="subline"/>
    <rect x="425" y="0" width="1" height="692" class="subline"/>
    <rect x="525" y="0" width="1" height="692" class="subline"/>
    <rect x="175" y="692" width="450" height="1" class="subline"/>

    <rect x="235" y="700" width="30" class="call"/>
    <text x="275" y="712">ns / call</text>
    <rect x="365" y="700" width="30" class="gc"/>
    <text x="405" y="712">GC</text>
   </g>
  <g>
    <rect x="175" y="20" width="3.871105" rx="2" ry="2" class="call"/>
    <rect x="175" y="34" width="0.000000" rx="2" ry="2" class="gc"/>
    <text x="160" y="37" text-anchor="end">Sinobu Sync-NoCaller</text>
    <text x="188.871105" y="32" font-size="10" fill="#666">208 ns</text>
    <text x="185.000000" y="46" font-size="10" fill="#666">0 times</text>
  </g>
  <g>
    <rect x="175" y="68" width="6.718600" rx="2" ry="2" class="call"/>
    <rect x="175" y="82" width="120.000000" rx="2" ry="2" class="gc"/>
    <text x="160" y="85" text-anchor="end">Logback Async-NoCaller</text>
    <text x="191.718600" y="80" font-size="10" fill="#666">361 ns</text>
    <text x="305.000000" y="94" font-size="10" fill="#666">4 times</text>
  </g>
  <g>
    <rect x="175" y="116" width="6.904711" rx="2" ry="2" class="call"/>
    <rect x="175" y="130" width="30.000000" rx="2" ry="2" class="gc"/>
    <text x="160" y="133" text-anchor="end">Log4j2 Async-NoCaller</text>
    <text x="191.904711" y="128" font-size="10" fill="#666">371 ns</text>
    <text x="215.000000" y="142" font-size="10" fill="#666">1 times</text>
  </g>
  <g>
    <rect x="175" y="164" width="7.723599" rx="2" ry="2" class="call"/>
    <rect x="175" y="178" width="120.000000" rx="2" ry="2" class="gc"/>
    <text x="160" y="181" text-anchor="end">Logback Sync-NoCaller</text>
    <text x="192.723599" y="176" font-size="10" fill="#666">415 ns</text>
    <text x="305.000000" y="190" font-size="10" fill="#666">4 times</text>
  </g>
  <g>
    <rect x="175" y="212" width="8.374987" rx="2" ry="2" class="call"/>
    <rect x="175" y="226" width="0.000000" rx="2" ry="2" class="gc"/>
    <text x="160" y="229" text-anchor="end">Log4j2 Sync-NoCaller</text>
    <text x="193.374987" y="224" font-size="10" fill="#666">450 ns</text>
    <text x="185.000000" y="238" font-size="10" fill="#666">0 times</text>
  </g>
  <g>
    <rect x="175" y="260" width="68.377114" rx="2" ry="2" class="call"/>
    <rect x="175" y="274" width="120.000000" rx="2" ry="2" class="gc"/>
    <text x="160" y="277" text-anchor="end">TinyLog Sync-Caller</text>
    <text x="253.377114" y="272" font-size="10" fill="#666">3674 ns</text>
    <text x="305.000000" y="286" font-size="10" fill="#666">4 times</text>
  </g>
  <g>
    <rect x="175" y="308" width="73.811550" rx="2" ry="2" class="call"/>
    <rect x="175" y="322" width="102.000000" rx="2" ry="2" class="gc"/>
    <text x="160" y="325" text-anchor="end">TinyLog Async-Caller</text>
    <text x="258.811550" y="320" font-size="10" fill="#666">3966 ns</text>
    <text x="287.000000" y="334" font-size="10" fill="#666">3 times</text>
  </g>
  <g>
    <rect x="175" y="356" width="76.733489" rx="2" ry="2" class="call"/>
    <rect x="175" y="370" width="120.000000" rx="2" ry="2" class="gc"/>
    <text x="160" y="373" text-anchor="end">Sinobu Sync-Caller</text>
    <text x="261.733489" y="368" font-size="10" fill="#666">4123 ns</text>
    <text x="305.000000" y="382" font-size="10" fill="#666">4 times</text>
  </g>
  <g>
    <rect x="175" y="404" width="141.388387" rx="2" ry="2" class="call"/>
    <rect x="175" y="418" width="90.000000" rx="2" ry="2" class="gc"/>
    <text x="160" y="421" text-anchor="end">Log4j2 Sync-Caller</text>
    <text x="326.388387" y="416" font-size="10" fill="#666">7597 ns</text>
    <text x="275.000000" y="430" font-size="10" fill="#666">3 times</text>
  </g>
  <g>
    <rect x="175" y="452" width="176.116665" rx="2" ry="2" class="call"/>
    <rect x="175" y="466" width="90.000000" rx="2" ry="2" class="gc"/>
    <text x="160" y="469" text-anchor="end">Log4j2 Async-Caller</text>
    <text x="361.116665" y="464" font-size="10" fill="#666">9463 ns</text>
    <text x="275.000000" y="478" font-size="10" fill="#666">3 times</text>
  </g>
  <g>
    <rect x="175" y="500" width="269.897905" rx="2" ry="2" class="call"/>
    <rect x="175" y="514" width="60.000000" rx="2" ry="2" class="gc"/>
    <text x="160" y="517" text-anchor="end">Logback Async-Caller</text>
    <text x="454.897905" y="512" font-size="10" fill="#666">14502 ns</text>
    <text x="245.000000" y="526" font-size="10" fill="#666">2 times</text>
  </g>
  <g>
    <rect x="175" y="548" width="310.786451" rx="2" ry="2" class="call"/>
    <rect x="175" y="562" width="60.000000" rx="2" ry="2" class="gc"/>
    <text x="160" y="565" text-anchor="end">Logback Sync-Caller</text>
    <text x="495.786451" y="560" font-size="10" fill="#666">16699 ns</text>
    <text x="245.000000" y="574" font-size="10" fill="#666">2 times</text>
  </g>
  <g>
    <rect x="175" y="596" width="330.737531" rx="2" ry="2" class="call"/>
    <rect x="175" y="610" width="150.000000" rx="2" ry="2" class="gc"/>
    <text x="160" y="613" text-anchor="end">JUL Sync-NoCaller</text>
    <text x="515.737531" y="608" font-size="10" fill="#666">17771 ns</text>
    <text x="335.000000" y="622" font-size="10" fill="#666">5 times</text>
  </g>
  <g>
    <rect x="175" y="644" width="350.000000" rx="2" ry="2" class="call"/>
    <rect x="175" y="658" width="150.000000" rx="2" ry="2" class="gc"/>
    <text x="160" y="661" text-anchor="end">JUL Sync-Caller</text>
    <text x="535.000000" y="656" font-size="10" fill="#666">18806 ns</text>
    <text x="335.000000" y="670" font-size="10" fill="#666">5 times</text>
  </g>
</svg>
