<svg xmlns="http://www.w3.org/2000/svg" viewBox="0 0 625 910">
  <style>
      text {
          font-family: Arial;
          font-size: 13px;
          fill: #787878;
      }

      .desc {
          font-size: 9px;
      }

      .vline {
          fill: #acacac;
          stroke: none;
          stroke-width: 0;
      }

      .subline {
          fill: #bbb;
          stroke: none;
          stroke-width: 0;
      }

      .bar {
          stroke-linejoin: round;
          height: 12px;
      }
  </style>
  <rect x="175" y="0" width="1" height="860" class="vline"/>
  <rect x="275" y="0" width="1" height="860" class="vline"/>
  <rect x="375" y="0" width="1" height="860" class="vline"/>
  <rect x="475" y="0" width="1" height="860" class="vline"/>
  <rect x="575" y="0" width="1" height="860" class="vline"/>
  <rect x="225" y="0" width="1" height="860" class="subline"/>
  <rect x="325" y="0" width="1" height="860" class="subline"/>
  <rect x="425" y="0" width="1" height="860" class="subline"/>
  <rect x="525" y="0" width="1" height="860" class="subline"/>
  <rect x="175" y="860" width="450" height="1" class="subline"/>

  <rect x="205" y="868" width="30" fill="#4886CD" class="bar"/>
  <text x="245" y="880">ns / call</text>
  <rect x="335" y="868" width="30" fill="#4FB84B" class="bar"/>
  <text x="375" y="880">GC</text>
  <rect x="465" y="868" width="30" fill="#BF4F4B" class="bar"/>
  <text x="505" y="880">Memory</text>
  <text x="160" y="37" text-anchor="end">TinyLog Sync-NoCaller</text>
  <text x="160" y="47" text-anchor="end" class="desc">2.8.0-M1</text>
  <rect x="175" y="20" width="5.22" rx="2" ry="2" fill="#4886CD" class="bar"/>
  <text x="187.22" y="30" class="desc">272</text>
  <rect x="175" y="32" width="13.33" rx="2" ry="2" fill="#4FB84B" class="bar"/>
  <text x="195.33" y="42" class="desc">4</text>
  <rect x="175" y="44" width="204.68" rx="2" ry="2" fill="#BF4F4B" class="bar"/>
  <text x="386.68" y="54" class="desc">486</text>
  <text x="160" y="93" text-anchor="end">Sinobu Sync-NoCaller</text>
  <text x="160" y="103" text-anchor="end" class="desc">4.8.0</text>
  <rect x="175" y="76" width="5.58" rx="2" ry="2" fill="#4886CD" class="bar"/>
  <text x="187.58" y="86" class="desc">291</text>
  <rect x="175" y="88" width="0.00" rx="2" ry="2" fill="#4FB84B" class="bar"/>
  <text x="182.00" y="98" class="desc">0</text>
  <rect x="175" y="100" width="4.21" rx="2" ry="2" fill="#BF4F4B" class="bar"/>
  <text x="186.21" y="110" class="desc">10</text>
  <text x="160" y="149" text-anchor="end">TinyLog Async-NoCaller</text>
  <text x="160" y="159" text-anchor="end" class="desc">2.8.0-M1</text>
  <rect x="175" y="132" width="7.46" rx="2" ry="2" fill="#4886CD" class="bar"/>
  <text x="189.46" y="142" class="desc">389</text>
  <rect x="175" y="144" width="13.33" rx="2" ry="2" fill="#4FB84B" class="bar"/>
  <text x="195.33" y="154" class="desc">4</text>
  <rect x="175" y="156" width="210.15" rx="2" ry="2" fill="#BF4F4B" class="bar"/>
  <text x="392.15" y="166" class="desc">499</text>
  <text x="160" y="205" text-anchor="end">Logback Async-NoCaller</text>
  <text x="160" y="215" text-anchor="end" class="desc">1.5.18</text>
  <rect x="175" y="188" width="11.45" rx="2" ry="2" fill="#4886CD" class="bar"/>
  <text x="193.45" y="198" class="desc">597</text>
  <rect x="175" y="200" width="140.00" rx="2" ry="2" fill="#4FB84B" class="bar"/>
  <text x="322.00" y="210" class="desc">42</text>
  <rect x="175" y="212" width="36.22" rx="2" ry="2" fill="#BF4F4B" class="bar"/>
  <text x="218.22" y="222" class="desc">86</text>
  <text x="160" y="261" text-anchor="end">Logback Sync-NoCaller</text>
  <text x="160" y="271" text-anchor="end" class="desc">1.5.18</text>
  <rect x="175" y="244" width="13.27" rx="2" ry="2" fill="#4886CD" class="bar"/>
  <text x="195.27" y="254" class="desc">692</text>
  <rect x="175" y="256" width="120.00" rx="2" ry="2" fill="#4FB84B" class="bar"/>
  <text x="302.00" y="266" class="desc">36</text>
  <rect x="175" y="268" width="36.22" rx="2" ry="2" fill="#BF4F4B" class="bar"/>
  <text x="218.22" y="278" class="desc">86</text>
  <text x="160" y="317" text-anchor="end">Log4j Sync-NoCaller</text>
  <text x="160" y="327" text-anchor="end" class="desc">3.0.0-beta3</text>
  <rect x="175" y="300" width="24.15" rx="2" ry="2" fill="#4886CD" class="bar"/>
  <text x="206.15" y="310" class="desc">1259</text>
  <rect x="175" y="312" width="3.33" rx="2" ry="2" fill="#4FB84B" class="bar"/>
  <text x="185.33" y="322" class="desc">1</text>
  <rect x="175" y="324" width="34.96" rx="2" ry="2" fill="#BF4F4B" class="bar"/>
  <text x="216.96" y="334" class="desc">83</text>
  <text x="160" y="373" text-anchor="end">Log4j Async-NoCaller</text>
  <text x="160" y="383" text-anchor="end" class="desc">3.0.0-beta3</text>
  <rect x="175" y="356" width="24.22" rx="2" ry="2" fill="#4886CD" class="bar"/>
  <text x="206.22" y="366" class="desc">1263</text>
  <rect x="175" y="368" width="3.33" rx="2" ry="2" fill="#4FB84B" class="bar"/>
  <text x="185.33" y="378" class="desc">1</text>
  <rect x="175" y="380" width="34.11" rx="2" ry="2" fill="#BF4F4B" class="bar"/>
  <text x="216.11" y="390" class="desc">81</text>
  <text x="160" y="429" text-anchor="end">Sinobu Sync-Caller</text>
  <text x="160" y="439" text-anchor="end" class="desc">4.8.0</text>
  <rect x="175" y="412" width="88.79" rx="2" ry="2" fill="#4886CD" class="bar"/>
  <text x="270.79" y="422" class="desc">4630</text>
  <rect x="175" y="424" width="10.00" rx="2" ry="2" fill="#4FB84B" class="bar"/>
  <text x="192.00" y="434" class="desc">3</text>
  <rect x="175" y="436" width="36.22" rx="2" ry="2" fill="#BF4F4B" class="bar"/>
  <text x="218.22" y="446" class="desc">86</text>
  <text x="160" y="485" text-anchor="end">TinyLog Sync-Caller</text>
  <text x="160" y="495" text-anchor="end" class="desc">2.8.0-M1</text>
  <rect x="175" y="468" width="99.65" rx="2" ry="2" fill="#4886CD" class="bar"/>
  <text x="281.65" y="478" class="desc">5196</text>
  <rect x="175" y="480" width="13.33" rx="2" ry="2" fill="#4FB84B" class="bar"/>
  <text x="195.33" y="490" class="desc">4</text>
  <rect x="175" y="492" width="36.22" rx="2" ry="2" fill="#BF4F4B" class="bar"/>
  <text x="218.22" y="502" class="desc">86</text>
  <text x="160" y="541" text-anchor="end">TinyLog Async-Caller</text>
  <text x="160" y="551" text-anchor="end" class="desc">2.8.0-M1</text>
  <rect x="175" y="524" width="106.61" rx="2" ry="2" fill="#4886CD" class="bar"/>
  <text x="288.61" y="534" class="desc">5559</text>
  <rect x="175" y="536" width="13.33" rx="2" ry="2" fill="#4FB84B" class="bar"/>
  <text x="195.33" y="546" class="desc">4</text>
  <rect x="175" y="548" width="36.22" rx="2" ry="2" fill="#BF4F4B" class="bar"/>
  <text x="218.22" y="558" class="desc">86</text>
  <text x="160" y="597" text-anchor="end">JUL Sync-NoCaller</text>
  <text x="160" y="607" text-anchor="end" class="desc"></text>
  <rect x="175" y="580" width="214.55" rx="2" ry="2" fill="#4886CD" class="bar"/>
  <text x="396.55" y="590" class="desc">11187</text>
  <rect x="175" y="592" width="20.00" rx="2" ry="2" fill="#4FB84B" class="bar"/>
  <text x="202.00" y="602" class="desc">6</text>
  <rect x="175" y="604" width="36.22" rx="2" ry="2" fill="#BF4F4B" class="bar"/>
  <text x="218.22" y="614" class="desc">86</text>
  <text x="160" y="653" text-anchor="end">JUL Sync-Caller</text>
  <text x="160" y="663" text-anchor="end" class="desc"></text>
  <rect x="175" y="636" width="226.53" rx="2" ry="2" fill="#4886CD" class="bar"/>
  <text x="408.53" y="646" class="desc">11812</text>
  <rect x="175" y="648" width="20.00" rx="2" ry="2" fill="#4FB84B" class="bar"/>
  <text x="202.00" y="658" class="desc">6</text>
  <rect x="175" y="660" width="36.22" rx="2" ry="2" fill="#BF4F4B" class="bar"/>
  <text x="218.22" y="670" class="desc">86</text>
  <text x="160" y="709" text-anchor="end">Log4j Sync-Caller</text>
  <text x="160" y="719" text-anchor="end" class="desc">3.0.0-beta3</text>
  <rect x="175" y="692" width="256.41" rx="2" ry="2" fill="#4886CD" class="bar"/>
  <text x="438.41" y="702" class="desc">13370</text>
  <rect x="175" y="704" width="10.00" rx="2" ry="2" fill="#4FB84B" class="bar"/>
  <text x="192.00" y="714" class="desc">3</text>
  <rect x="175" y="716" width="36.22" rx="2" ry="2" fill="#BF4F4B" class="bar"/>
  <text x="218.22" y="726" class="desc">86</text>
  <text x="160" y="765" text-anchor="end">Logback Async-Caller</text>
  <text x="160" y="775" text-anchor="end" class="desc">1.5.18</text>
  <rect x="175" y="748" width="292.72" rx="2" ry="2" fill="#4886CD" class="bar"/>
  <text x="474.72" y="758" class="desc">15263</text>
  <rect x="175" y="760" width="10.00" rx="2" ry="2" fill="#4FB84B" class="bar"/>
  <text x="192.00" y="770" class="desc">3</text>
  <rect x="175" y="772" width="36.22" rx="2" ry="2" fill="#BF4F4B" class="bar"/>
  <text x="218.22" y="782" class="desc">86</text>
  <text x="160" y="821" text-anchor="end">Logback Sync-Caller</text>
  <text x="160" y="831" text-anchor="end" class="desc">1.5.18</text>
  <rect x="175" y="804" width="350.00" rx="2" ry="2" fill="#4886CD" class="bar"/>
  <text x="532.00" y="814" class="desc">18250</text>
  <rect x="175" y="816" width="10.00" rx="2" ry="2" fill="#4FB84B" class="bar"/>
  <text x="192.00" y="826" class="desc">3</text>
  <rect x="175" y="828" width="36.22" rx="2" ry="2" fill="#BF4F4B" class="bar"/>
  <text x="218.22" y="838" class="desc">86</text>
  <text x="175" y="900" class="desc">Java: 24</text>
  <text x="245" y="900" class="desc">Memory: 4072MB</text>
  <text x="345" y="900" class="desc">CPU: Intel(R) Core(TM) i7-3770K CPU @ 3.50GHz 3.501GHz</text>
</svg>
