<svg xmlns="http://www.w3.org/2000/svg" viewBox="0 0 625 742">
  <style>
      text {
          font-family: Arial;
          font-size: 13px;
          fill: #787878;
      }

      .desc {
          font-size: 9px;
      }

      .vline {
          fill: #acacac;
          stroke: none;
          stroke-width: 0;
      }

      .subline {
          fill: #bbb;
          stroke: none;
          stroke-width: 0;
      }

      .call {
          fill: #4886CD;
          stroke-linejoin: round;
          height: 14px;
      }

      .gc {
          fill: #4FB84B;
          stroke-linejoin: round;
          height: 14px;
      }
  </style>
  <g>
    <rect x="175" y="0" width="1" height="692" class="vline"/>
    <rect x="275" y="0" width="1" height="692" class="vline"/>
    <rect x="375" y="0" width="1" height="692" class="vline"/>
    <rect x="475" y="0" width="1" height="692" class="vline"/>
    <rect x="575" y="0" width="1" height="692" class="vline"/>
    <rect x="225" y="0" width="1" height="692" class="subline"/>
    <rect x="325" y="0" width="1" height="692" class="subline"/>
    <rect x="425" y="0" width="1" height="692" class="subline"/>
    <rect x="525" y="0" width="1" height="692" class="subline"/>
    <rect x="175" y="692" width="450" height="1" class="subline"/>

    <rect x="265" y="700" width="30" class="call"/>
    <text x="305" y="712">ns / call</text>
    <rect x="395" y="700" width="30" class="gc"/>
    <text x="435" y="712">GC</text>
  </g>

  <rect x="175" y="20" width="6.796572" rx="2" ry="2" class="call"/>
  <rect x="175" y="34" width="54.545455" rx="2" ry="2" class="gc"/>
  <text x="160" y="37" text-anchor="end">Logback Async-NoCaller</text>
  <text x="160" y="47" text-anchor="end" class="desc">1.4.4</text>
  <text x="188.796572" y="30" class="desc">145</text>
  <text x="236.545455" y="44" class="desc">4</text>

  <rect x="175" y="68" width="7.077809" rx="2" ry="2" class="call"/>
  <rect x="175" y="82" width="54.545455" rx="2" ry="2" class="gc"/>
  <text x="160" y="85" text-anchor="end">Logback Sync-NoCaller</text>
  <text x="160" y="95" text-anchor="end" class="desc">1.4.4</text>
  <text x="189.077809" y="78" class="desc">151</text>
  <text x="236.545455" y="92" class="desc">4</text>

  <rect x="175" y="116" width="8.483996" rx="2" ry="2" class="call"/>
  <rect x="175" y="130" width="2.727273" rx="2" ry="2" class="gc"/>
  <text x="160" y="133" text-anchor="end">Sinobu Sync-NoCaller</text>
  <text x="160" y="143" text-anchor="end" class="desc">2.20.0</text>
  <text x="190.483996" y="126" class="desc">181</text>
  <text x="184.727273" y="140" class="desc">0</text>

  <rect x="175" y="164" width="11.436989" rx="2" ry="2" class="call"/>
  <rect x="175" y="178" width="0.000000" rx="2" ry="2" class="gc"/>
  <text x="160" y="181" text-anchor="end">Log4j2 Sync-NoCaller</text>
  <text x="160" y="191" text-anchor="end" class="desc">2.19.0</text>
  <text x="193.436989" y="174" class="desc">244</text>
  <text x="182.000000" y="188" class="desc">0</text>

  <rect x="175" y="212" width="13.968126" rx="2" ry="2" class="call"/>
  <rect x="175" y="226" width="0.000000" rx="2" ry="2" class="gc"/>
  <text x="160" y="229" text-anchor="end">Log4j2 Async-NoCaller</text>
  <text x="160" y="239" text-anchor="end" class="desc">1.9.1</text>
  <text x="195.968126" y="222" class="desc">298</text>
  <text x="182.000000" y="236" class="desc">0</text>

  <rect x="175" y="260" width="84.933708" rx="2" ry="2" class="call"/>
  <rect x="175" y="274" width="95.454545" rx="2" ry="2" class="gc"/>
  <text x="160" y="277" text-anchor="end">TinyLog Sync-Caller</text>
  <text x="160" y="287" text-anchor="end" class="desc">2.6.0-M1</text>
  <text x="266.933708" y="270" class="desc">1812</text>
  <text x="277.454545" y="284" class="desc">7</text>

  <rect x="175" y="308" width="86.058658" rx="2" ry="2" class="call"/>
  <rect x="175" y="322" width="95.454545" rx="2" ry="2" class="gc"/>
  <text x="160" y="325" text-anchor="end">TinyLog Async-Caller</text>
  <text x="160" y="335" text-anchor="end" class="desc">2.6.0-M1</text>
  <text x="268.058658" y="318" class="desc">1836</text>
  <text x="277.454545" y="332" class="desc">7</text>

  <rect x="175" y="356" width="87.699210" rx="2" ry="2" class="call"/>
  <rect x="175" y="370" width="122.727273" rx="2" ry="2" class="gc"/>
  <text x="160" y="373" text-anchor="end">Sinobu Sync-Caller</text>
  <text x="160" y="383" text-anchor="end" class="desc">2.20.0</text>
  <text x="269.699210" y="366" class="desc">1871</text>
  <text x="304.727273" y="380" class="desc">9</text>

  <rect x="175" y="404" width="161.336547" rx="2" ry="2" class="call"/>
  <rect x="175" y="418" width="109.090909" rx="2" ry="2" class="gc"/>
  <text x="160" y="421" text-anchor="end">Log4j2 Sync-Caller</text>
  <text x="160" y="431" text-anchor="end" class="desc">2.19.0</text>
  <text x="343.336547" y="414" class="desc">3442</text>
  <text x="291.090909" y="428" class="desc">8</text>

  <rect x="175" y="452" width="283.534217" rx="2" ry="2" class="call"/>
  <rect x="175" y="466" width="54.545455" rx="2" ry="2" class="gc"/>
  <text x="160" y="469" text-anchor="end">Log4j2 Async-Caller</text>
  <text x="160" y="479" text-anchor="end" class="desc">1.9.1</text>
  <text x="465.534217" y="462" class="desc">6049</text>
  <text x="236.545455" y="476" class="desc">4</text>

  <rect x="175" y="500" width="289.580822" rx="2" ry="2" class="call"/>
  <rect x="175" y="514" width="73.636364" rx="2" ry="2" class="gc"/>
  <text x="160" y="517" text-anchor="end">Logback Sync-Caller</text>
  <text x="160" y="527" text-anchor="end" class="desc">1.4.4</text>
  <text x="471.580822" y="510" class="desc">6178</text>
  <text x="255.636364" y="524" class="desc">5</text>

  <rect x="175" y="548" width="299.471006" rx="2" ry="2" class="call"/>
  <rect x="175" y="562" width="150.000000" rx="2" ry="2" class="gc"/>
  <text x="160" y="565" text-anchor="end">JUL Sync-NoCaller</text>
  <text x="160" y="575" text-anchor="end" class="desc">0.9.10</text>
  <text x="481.471006" y="558" class="desc">6389</text>
  <text x="332.000000" y="572" class="desc">11</text>

  <rect x="175" y="596" width="300.549083" rx="2" ry="2" class="call"/>
  <rect x="175" y="610" width="150.000000" rx="2" ry="2" class="gc"/>
  <text x="160" y="613" text-anchor="end">JUL Sync-Caller</text>
  <text x="160" y="623" text-anchor="end" class="desc">1.9.1</text>
  <text x="482.549083" y="606" class="desc">6412</text>
  <text x="332.000000" y="620" class="desc">11</text>

  <rect x="175" y="644" width="350.000000" rx="2" ry="2" class="call"/>
  <rect x="175" y="658" width="54.545455" rx="2" ry="2" class="gc"/>
  <text x="160" y="661" text-anchor="end">Logback Async-Caller</text>
  <text x="160" y="671" text-anchor="end" class="desc">1.4.4</text>
  <text x="532.000000" y="654" class="desc">7467</text>
  <text x="236.545455" y="668" class="desc">4</text>

  <text x="205" y="732" class="desc">Java: 19</text>
  <text x="275" y="732" class="desc">Memory: 8128MB</text>
  <text x="375" y="732" class="desc">CPU: 12th Gen Intel(R) Core(TM) i5-12400 2.5GHz</text>
</svg>
