<svg xmlns="http://www.w3.org/2000/svg" viewBox="0 0 625 790">
  <style>
      text {
          font-family: Arial;
          font-size: 13px;
          fill: #787878;
      }

      .desc {
          font-size: 9px;
      }

      .vline {
          fill: #acacac;
          stroke: none;
          stroke-width: 0;
      }

      .subline {
          fill: #bbb;
          stroke: none;
          stroke-width: 0;
      }

      .call {
          fill: #4886CD;
          stroke-linejoin: round;
          height: 12px;
      }

      .gc {
          fill: #4FB84B;
          stroke-linejoin: round;
          height: 12px;
      }

      .memory {
          fill: #BF4F4B;
          stroke-linejoin: round;
          height: 12px;
      }
  </style>
  <g>
    <rect x="175" y="0" width="1" height="740" class="vline"/>
    <rect x="275" y="0" width="1" height="740" class="vline"/>
    <rect x="375" y="0" width="1" height="740" class="vline"/>
    <rect x="475" y="0" width="1" height="740" class="vline"/>
    <rect x="575" y="0" width="1" height="740" class="vline"/>
    <rect x="225" y="0" width="1" height="740" class="subline"/>
    <rect x="325" y="0" width="1" height="740" class="subline"/>
    <rect x="425" y="0" width="1" height="740" class="subline"/>
    <rect x="525" y="0" width="1" height="740" class="subline"/>
    <rect x="175" y="740" width="450" height="1" class="subline"/>

    <rect x="225" y="748" width="30" class="call"/>
    <text x="265" y="760">ns / call</text>
    <rect x="355" y="748" width="30" class="memory"/>
    <text x="395" y="760">Memory</text>
    <rect x="475" y="748" width="30" class="gc"/>
    <text x="515" y="760">GC</text>
  </g>

  <rect x="175" y="20" width="4.314024" rx="2" ry="2" class="call"/>
  <rect x="175" y="32" width="224.963845" rx="2" ry="2" class="memory"/>
  <rect x="175" y="44" width="3.846154" rx="2" ry="2" class="gc"/>
  <text x="160" y="37" text-anchor="end">TinyLog Async-NoCaller</text>
  <text x="160" y="47" text-anchor="end" class="desc">2.8.0-M1</text>
  <text x="186.314024" y="30" class="desc">283</text>
  <text x="406.963845" y="42" class="desc">498M</text>
  <text x="185.846154" y="54" class="desc">1</text>

  <rect x="175" y="68" width="4.847561" rx="2" ry="2" class="call"/>
  <rect x="175" y="80" width="250.000000" rx="2" ry="2" class="memory"/>
  <rect x="175" y="92" width="13.846154" rx="2" ry="2" class="gc"/>
  <text x="160" y="85" text-anchor="end">TinyLog Sync-NoCaller</text>
  <text x="160" y="95" text-anchor="end" class="desc">2.8.0-M1</text>
  <text x="186.847561" y="78" class="desc">318</text>
  <text x="432.000000" y="90" class="desc">554M</text>
  <text x="195.846154" y="102" class="desc">3</text>

  <rect x="175" y="116" width="5.945122" rx="2" ry="2" class="call"/>
  <rect x="175" y="128" width="3.988254" rx="2" ry="2" class="memory"/>
  <rect x="175" y="140" width="0.000000" rx="2" ry="2" class="gc"/>
  <text x="160" y="133" text-anchor="end">Sinobu Sync-NoCaller</text>
  <text x="160" y="143" text-anchor="end" class="desc">4.0.0</text>
  <text x="187.945122" y="126" class="desc">390</text>
  <text x="185.988254" y="138" class="desc">9M</text>
  <text x="182.000000" y="150" class="desc">0</text>

  <rect x="175" y="164" width="9.954268" rx="2" ry="2" class="call"/>
  <rect x="175" y="176" width="38.430311" rx="2" ry="2" class="memory"/>
  <rect x="175" y="188" width="150.000000" rx="2" ry="2" class="gc"/>
  <text x="160" y="181" text-anchor="end">Logback Async-NoCaller</text>
  <text x="160" y="191" text-anchor="end" class="desc">1.5.11</text>
  <text x="191.954268" y="174" class="desc">653</text>
  <text x="220.430311" y="186" class="desc">85M</text>
  <text x="332.000000" y="198" class="desc">39</text>

  <rect x="175" y="212" width="10.106707" rx="2" ry="2" class="call"/>
  <rect x="175" y="224" width="38.367108" rx="2" ry="2" class="memory"/>
  <rect x="175" y="236" width="145.384615" rx="2" ry="2" class="gc"/>
  <text x="160" y="229" text-anchor="end">Logback Sync-NoCaller</text>
  <text x="160" y="239" text-anchor="end" class="desc">1.5.11</text>
  <text x="192.106707" y="222" class="desc">663</text>
  <text x="220.367108" y="234" class="desc">85M</text>
  <text x="327.384615" y="246" class="desc">37</text>

  <rect x="175" y="260" width="16.905488" rx="2" ry="2" class="call"/>
  <rect x="175" y="272" width="17.183945" rx="2" ry="2" class="memory"/>
  <rect x="175" y="284" width="0.000000" rx="2" ry="2" class="gc"/>
  <text x="160" y="277" text-anchor="end">Log4j Async-NoCaller</text>
  <text x="160" y="287" text-anchor="end" class="desc">3.0.0-beta2</text>
  <text x="198.905488" y="270" class="desc">1109</text>
  <text x="199.183945" y="282" class="desc">38M</text>
  <text x="182.000000" y="294" class="desc">0</text>

  <rect x="175" y="308" width="19.146341" rx="2" ry="2" class="call"/>
  <rect x="175" y="320" width="15.361241" rx="2" ry="2" class="memory"/>
  <rect x="175" y="332" width="0.000000" rx="2" ry="2" class="gc"/>
  <text x="160" y="325" text-anchor="end">Log4j Sync-NoCaller</text>
  <text x="160" y="335" text-anchor="end" class="desc">3.0.0-beta2</text>
  <text x="201.146341" y="318" class="desc">1256</text>
  <text x="197.361241" y="330" class="desc">34M</text>
  <text x="182.000000" y="342" class="desc">0</text>

  <rect x="175" y="356" width="81.996951" rx="2" ry="2" class="call"/>
  <rect x="175" y="368" width="38.403338" rx="2" ry="2" class="memory"/>
  <rect x="175" y="380" width="7.692308" rx="2" ry="2" class="gc"/>
  <text x="160" y="373" text-anchor="end">Sinobu Sync-Caller</text>
  <text x="160" y="383" text-anchor="end" class="desc">4.0.0</text>
  <text x="263.996951" y="366" class="desc">5379</text>
  <text x="220.403338" y="378" class="desc">85M</text>
  <text x="189.692308" y="390" class="desc">2</text>

  <rect x="175" y="404" width="87.865854" rx="2" ry="2" class="call"/>
  <rect x="175" y="416" width="38.357257" rx="2" ry="2" class="memory"/>
  <rect x="175" y="428" width="15.384615" rx="2" ry="2" class="gc"/>
  <text x="160" y="421" text-anchor="end">TinyLog Sync-Caller</text>
  <text x="160" y="431" text-anchor="end" class="desc">2.8.0-M1</text>
  <text x="269.865854" y="414" class="desc">5764</text>
  <text x="220.357257" y="426" class="desc">85M</text>
  <text x="197.384615" y="438" class="desc">4</text>

  <rect x="175" y="452" width="89.268293" rx="2" ry="2" class="call"/>
  <rect x="175" y="464" width="38.356503" rx="2" ry="2" class="memory"/>
  <rect x="175" y="476" width="14.615385" rx="2" ry="2" class="gc"/>
  <text x="160" y="469" text-anchor="end">TinyLog Async-Caller</text>
  <text x="160" y="479" text-anchor="end" class="desc">2.8.0-M1</text>
  <text x="271.268293" y="462" class="desc">5856</text>
  <text x="220.356503" y="474" class="desc">85M</text>
  <text x="196.615385" y="486" class="desc">3</text>

  <rect x="175" y="500" width="166.219512" rx="2" ry="2" class="call"/>
  <rect x="175" y="512" width="38.586425" rx="2" ry="2" class="memory"/>
  <rect x="175" y="524" width="7.692308" rx="2" ry="2" class="gc"/>
  <text x="160" y="517" text-anchor="end">Log4j Sync-Caller</text>
  <text x="160" y="527" text-anchor="end" class="desc">3.0.0-beta2</text>
  <text x="348.219512" y="510" class="desc">10904</text>
  <text x="220.586425" y="522" class="desc">85M</text>
  <text x="189.692308" y="534" class="desc">2</text>

  <rect x="175" y="548" width="227.378049" rx="2" ry="2" class="call"/>
  <rect x="175" y="560" width="38.566042" rx="2" ry="2" class="memory"/>
  <rect x="175" y="572" width="11.538462" rx="2" ry="2" class="gc"/>
  <text x="160" y="565" text-anchor="end">Logback Async-Caller</text>
  <text x="160" y="575" text-anchor="end" class="desc">1.5.11</text>
  <text x="409.378049" y="558" class="desc">14916</text>
  <text x="220.566042" y="570" class="desc">85M</text>
  <text x="193.538462" y="582" class="desc">3</text>

  <rect x="175" y="596" width="271.189024" rx="2" ry="2" class="call"/>
  <rect x="175" y="608" width="38.587441" rx="2" ry="2" class="memory"/>
  <rect x="175" y="620" width="11.538462" rx="2" ry="2" class="gc"/>
  <text x="160" y="613" text-anchor="end">Logback Sync-Caller</text>
  <text x="160" y="623" text-anchor="end" class="desc">1.5.11</text>
  <text x="453.189024" y="606" class="desc">17790</text>
  <text x="220.587441" y="618" class="desc">86M</text>
  <text x="193.538462" y="630" class="desc">3</text>

  <rect x="175" y="644" width="282.195122" rx="2" ry="2" class="call"/>
  <rect x="175" y="656" width="38.342407" rx="2" ry="2" class="memory"/>
  <rect x="175" y="668" width="15.384615" rx="2" ry="2" class="gc"/>
  <text x="160" y="661" text-anchor="end">JUL Sync-Caller</text>
  <text x="160" y="671" text-anchor="end" class="desc"></text>
  <text x="464.195122" y="654" class="desc">18512</text>
  <text x="220.342407" y="666" class="desc">85M</text>
  <text x="197.384615" y="678" class="desc">4</text>

  <rect x="175" y="692" width="350.000000" rx="2" ry="2" class="call"/>
  <rect x="175" y="704" width="38.349648" rx="2" ry="2" class="memory"/>
  <rect x="175" y="716" width="12.307692" rx="2" ry="2" class="gc"/>
  <text x="160" y="709" text-anchor="end">JUL Sync-NoCaller</text>
  <text x="160" y="719" text-anchor="end" class="desc"></text>
  <text x="532.000000" y="702" class="desc">22960</text>
  <text x="220.349648" y="714" class="desc">85M</text>
  <text x="194.307692" y="726" class="desc">3</text>

  <text x="175" y="780" class="desc">Java: 21</text>
  <text x="245" y="780" class="desc">Memory: 4072MB</text>
  <text x="345" y="780" class="desc">CPU: Intel(R) Core(TM) i7-3770K CPU @ 3.50GHz 3.501GHz</text>
</svg>
