<svg xmlns="http://www.w3.org/2000/svg" viewBox="0 0 625 742">
  <style>
      text {
          font-family: Arial;
          font-size: 13px;
          fill: #787878;
      }

      .desc {
          font-size: 9px;
      }

      .vline {
          fill: #acacac;
          stroke: none;
          stroke-width: 0;
      }

      .subline {
          fill: #bbb;
          stroke: none;
          stroke-width: 0;
      }

      .call {
          fill: #4886CD;
          stroke-linejoin: round;
          height: 14px;
      }

      .gc {
          fill: #4FB84B;
          stroke-linejoin: round;
          height: 14px;
      }
  </style>
  <g>
    <rect x="175" y="0" width="1" height="692" class="vline"/>
    <rect x="275" y="0" width="1" height="692" class="vline"/>
    <rect x="375" y="0" width="1" height="692" class="vline"/>
    <rect x="475" y="0" width="1" height="692" class="vline"/>
    <rect x="575" y="0" width="1" height="692" class="vline"/>
    <rect x="225" y="0" width="1" height="692" class="subline"/>
    <rect x="325" y="0" width="1" height="692" class="subline"/>
    <rect x="425" y="0" width="1" height="692" class="subline"/>
    <rect x="525" y="0" width="1" height="692" class="subline"/>
    <rect x="175" y="692" width="450" height="1" class="subline"/>

    <rect x="265" y="700" width="30" class="call"/>
    <text x="305" y="712">ns / call</text>
    <rect x="395" y="700" width="30" class="gc"/>
    <text x="435" y="712">GC</text>
  </g>

  <rect x="175" y="20" width="0.365570" rx="2" ry="2" class="call"/>
  <rect x="175" y="34" width="0.000000" rx="2" ry="2" class="gc"/>
  <text x="160" y="37" text-anchor="end">Sinobu Sync-NoCaller</text>
  <text x="160" y="47" text-anchor="end" class="desc">3.7.0</text>
  <text x="182.365570" y="30" class="desc">299</text>
  <text x="182.000000" y="44" class="desc">0</text>

  <rect x="175" y="68" width="0.427925" rx="2" ry="2" class="call"/>
  <rect x="175" y="82" width="150.000000" rx="2" ry="2" class="gc"/>
  <text x="160" y="85" text-anchor="end">Logback Async-NoCaller</text>
  <text x="160" y="95" text-anchor="end" class="desc">1.4.14</text>
  <text x="182.427925" y="78" class="desc">350</text>
  <text x="332.000000" y="92" class="desc">4</text>

  <rect x="175" y="116" width="0.542854" rx="2" ry="2" class="call"/>
  <rect x="175" y="130" width="150.000000" rx="2" ry="2" class="gc"/>
  <text x="160" y="133" text-anchor="end">Logback Sync-NoCaller</text>
  <text x="160" y="143" text-anchor="end" class="desc">1.4.14</text>
  <text x="182.542854" y="126" class="desc">444</text>
  <text x="332.000000" y="140" class="desc">4</text>

  <rect x="175" y="164" width="1.541753" rx="2" ry="2" class="call"/>
  <rect x="175" y="178" width="75.000000" rx="2" ry="2" class="gc"/>
  <text x="160" y="181" text-anchor="end">Log4j Sync-NoCaller</text>
  <text x="160" y="191" text-anchor="end" class="desc">3.0.0-beta1</text>
  <text x="183.541753" y="174" class="desc">1261</text>
  <text x="257.000000" y="188" class="desc">2</text>

  <rect x="175" y="212" width="6.089987" rx="2" ry="2" class="call"/>
  <rect x="175" y="226" width="112.500000" rx="2" ry="2" class="gc"/>
  <text x="160" y="229" text-anchor="end">Sinobu Sync-Caller</text>
  <text x="160" y="239" text-anchor="end" class="desc">3.7.0</text>
  <text x="188.089987" y="222" class="desc">4981</text>
  <text x="294.500000" y="236" class="desc">3</text>

  <rect x="175" y="260" width="7.654970" rx="2" ry="2" class="call"/>
  <rect x="175" y="274" width="75.000000" rx="2" ry="2" class="gc"/>
  <text x="160" y="277" text-anchor="end">TinyLog Sync-Caller</text>
  <text x="160" y="287" text-anchor="end" class="desc">2.7.0-M2</text>
  <text x="189.654970" y="270" class="desc">6261</text>
  <text x="257.000000" y="284" class="desc">2</text>

  <rect x="175" y="308" width="7.755227" rx="2" ry="2" class="call"/>
  <rect x="175" y="322" width="75.000000" rx="2" ry="2" class="gc"/>
  <text x="160" y="325" text-anchor="end">TinyLog Async-Caller</text>
  <text x="160" y="335" text-anchor="end" class="desc">2.7.0-M2</text>
  <text x="189.755227" y="318" class="desc">6343</text>
  <text x="257.000000" y="332" class="desc">2</text>

  <rect x="175" y="356" width="13.347598" rx="2" ry="2" class="call"/>
  <rect x="175" y="370" width="75.000000" rx="2" ry="2" class="gc"/>
  <text x="160" y="373" text-anchor="end">Log4j Sync-Caller</text>
  <text x="160" y="383" text-anchor="end" class="desc">3.0.0-beta1</text>
  <text x="195.347598" y="366" class="desc">10917</text>
  <text x="257.000000" y="380" class="desc">2</text>

  <rect x="175" y="404" width="18.258956" rx="2" ry="2" class="call"/>
  <rect x="175" y="418" width="75.000000" rx="2" ry="2" class="gc"/>
  <text x="160" y="421" text-anchor="end">Logback Async-Caller</text>
  <text x="160" y="431" text-anchor="end" class="desc">1.4.14</text>
  <text x="200.258956" y="414" class="desc">14934</text>
  <text x="257.000000" y="428" class="desc">2</text>

  <rect x="175" y="452" width="19.877736" rx="2" ry="2" class="call"/>
  <rect x="175" y="466" width="75.000000" rx="2" ry="2" class="gc"/>
  <text x="160" y="469" text-anchor="end">Logback Sync-Caller</text>
  <text x="160" y="479" text-anchor="end" class="desc">1.4.14</text>
  <text x="201.877736" y="462" class="desc">16258</text>
  <text x="257.000000" y="476" class="desc">2</text>

  <rect x="175" y="500" width="20.592982" rx="2" ry="2" class="call"/>
  <rect x="175" y="514" width="150.000000" rx="2" ry="2" class="gc"/>
  <text x="160" y="517" text-anchor="end">JUL Sync-NoCaller</text>
  <text x="160" y="527" text-anchor="end" class="desc"></text>
  <text x="202.592982" y="510" class="desc">16843</text>
  <text x="332.000000" y="524" class="desc">4</text>

  <rect x="175" y="548" width="21.347353" rx="2" ry="2" class="call"/>
  <rect x="175" y="562" width="150.000000" rx="2" ry="2" class="gc"/>
  <text x="160" y="565" text-anchor="end">JUL Sync-Caller</text>
  <text x="160" y="575" text-anchor="end" class="desc"></text>
  <text x="203.347353" y="558" class="desc">17460</text>
  <text x="332.000000" y="572" class="desc">4</text>

  <rect x="175" y="596" width="332.732608" rx="2" ry="2" class="call"/>
  <rect x="175" y="610" width="0.000000" rx="2" ry="2" class="gc"/>
  <text x="160" y="613" text-anchor="end">Log4j Async-NoCaller</text>
  <text x="160" y="623" text-anchor="end" class="desc">3.0.0-beta1</text>
  <text x="514.732608" y="606" class="desc">272142</text>
  <text x="182.000000" y="620" class="desc">0</text>

  <rect x="175" y="644" width="350.000000" rx="2" ry="2" class="call"/>
  <rect x="175" y="658" width="0.000000" rx="2" ry="2" class="gc"/>
  <text x="160" y="661" text-anchor="end">Log4j Async-Caller</text>
  <text x="160" y="671" text-anchor="end" class="desc">3.0.0-beta1</text>
  <text x="532.000000" y="654" class="desc">286265</text>
  <text x="182.000000" y="668" class="desc">0</text>

  <text x="175" y="732" class="desc">Java: 19</text>
  <text x="245" y="732" class="desc">Memory: 4072MB</text>
  <text x="345" y="732" class="desc">CPU: Intel(R) Core(TM) i7-3770K CPU @ 3.50GHz 3.501GHz</text>
</svg>
