<svg xmlns="http://www.w3.org/2000/svg" viewBox="0 0 625 742">
  <style>
      text {
          font-family: Arial;
          font-size: 13px;
          fill: #787878;
      }

      .desc {
          font-size: 9px;
      }

      .vline {
          fill: #acacac;
          stroke: none;
          stroke-width: 0;
      }

      .subline {
          fill: #bbb;
          stroke: none;
          stroke-width: 0;
      }

      .call {
          fill: #4886CD;
          stroke-linejoin: round;
          height: 14px;
      }

      .gc {
          fill: #4FB84B;
          stroke-linejoin: round;
          height: 14px;
      }
  </style>
  <g>
    <rect x="175" y="0" width="1" height="692" class="vline"/>
    <rect x="275" y="0" width="1" height="692" class="vline"/>
    <rect x="375" y="0" width="1" height="692" class="vline"/>
    <rect x="475" y="0" width="1" height="692" class="vline"/>
    <rect x="575" y="0" width="1" height="692" class="vline"/>
    <rect x="225" y="0" width="1" height="692" class="subline"/>
    <rect x="325" y="0" width="1" height="692" class="subline"/>
    <rect x="425" y="0" width="1" height="692" class="subline"/>
    <rect x="525" y="0" width="1" height="692" class="subline"/>
    <rect x="175" y="692" width="450" height="1" class="subline"/>

    <rect x="265" y="700" width="30" class="call"/>
    <text x="305" y="712">ns / call</text>
    <rect x="395" y="700" width="30" class="gc"/>
    <text x="435" y="712">GC</text>
  </g>

  <rect x="175" y="20" width="6.021909" rx="2" ry="2" class="call"/>
  <rect x="175" y="34" width="0.000000" rx="2" ry="2" class="gc"/>
  <text x="160" y="37" text-anchor="end">Sinobu Sync-NoCaller</text>
  <text x="160" y="47" text-anchor="end" class="desc">3.6.2</text>
  <text x="188.021909" y="30" class="desc">289</text>
  <text x="182.000000" y="44" class="desc">0</text>

  <rect x="175" y="68" width="7.563851" rx="2" ry="2" class="call"/>
  <rect x="175" y="82" width="150.000000" rx="2" ry="2" class="gc"/>
  <text x="160" y="85" text-anchor="end">Logback Async-NoCaller</text>
  <text x="160" y="95" text-anchor="end" class="desc">1.4.11</text>
  <text x="189.563851" y="78" class="desc">363</text>
  <text x="332.000000" y="92" class="desc">4</text>

  <rect x="175" y="116" width="8.293148" rx="2" ry="2" class="call"/>
  <rect x="175" y="130" width="150.000000" rx="2" ry="2" class="gc"/>
  <text x="160" y="133" text-anchor="end">Logback Sync-NoCaller</text>
  <text x="160" y="143" text-anchor="end" class="desc">1.4.11</text>
  <text x="190.293148" y="126" class="desc">398</text>
  <text x="332.000000" y="140" class="desc">4</text>

  <rect x="175" y="164" width="19.420135" rx="2" ry="2" class="call"/>
  <rect x="175" y="178" width="37.500000" rx="2" ry="2" class="gc"/>
  <text x="160" y="181" text-anchor="end">Log4j Sync-NoCaller</text>
  <text x="160" y="191" text-anchor="end" class="desc">3.0.0-alpha1</text>
  <text x="201.420135" y="174" class="desc">932</text>
  <text x="219.500000" y="188" class="desc">1</text>

  <rect x="175" y="212" width="19.836876" rx="2" ry="2" class="call"/>
  <rect x="175" y="226" width="37.500000" rx="2" ry="2" class="gc"/>
  <text x="160" y="229" text-anchor="end">Log4j Async-NoCaller</text>
  <text x="160" y="239" text-anchor="end" class="desc">3.0.0-alpha1</text>
  <text x="201.836876" y="222" class="desc">952</text>
  <text x="219.500000" y="236" class="desc">1</text>

  <rect x="175" y="260" width="90.516164" rx="2" ry="2" class="call"/>
  <rect x="175" y="274" width="112.500000" rx="2" ry="2" class="gc"/>
  <text x="160" y="277" text-anchor="end">TinyLog Async-Caller</text>
  <text x="160" y="287" text-anchor="end" class="desc">2.6.2</text>
  <text x="272.516164" y="270" class="desc">4344</text>
  <text x="294.500000" y="284" class="desc">3</text>

  <rect x="175" y="308" width="93.079121" rx="2" ry="2" class="call"/>
  <rect x="175" y="322" width="112.500000" rx="2" ry="2" class="gc"/>
  <text x="160" y="325" text-anchor="end">TinyLog Sync-Caller</text>
  <text x="160" y="335" text-anchor="end" class="desc">2.6.2</text>
  <text x="275.079121" y="318" class="desc">4467</text>
  <text x="294.500000" y="332" class="desc">3</text>

  <rect x="175" y="356" width="108.852771" rx="2" ry="2" class="call"/>
  <rect x="175" y="370" width="112.500000" rx="2" ry="2" class="gc"/>
  <text x="160" y="373" text-anchor="end">Sinobu Sync-Caller</text>
  <text x="160" y="383" text-anchor="end" class="desc">3.6.2</text>
  <text x="290.852771" y="366" class="desc">5224</text>
  <text x="294.500000" y="380" class="desc">3</text>

  <rect x="175" y="404" width="210.037507" rx="2" ry="2" class="call"/>
  <rect x="175" y="418" width="112.500000" rx="2" ry="2" class="gc"/>
  <text x="160" y="421" text-anchor="end">Log4j Sync-Caller</text>
  <text x="160" y="431" text-anchor="end" class="desc">3.0.0-alpha1</text>
  <text x="392.037507" y="414" class="desc">10080</text>
  <text x="294.500000" y="428" class="desc">3</text>

  <rect x="175" y="452" width="244.189439" rx="2" ry="2" class="call"/>
  <rect x="175" y="466" width="75.000000" rx="2" ry="2" class="gc"/>
  <text x="160" y="469" text-anchor="end">Log4j Async-Caller</text>
  <text x="160" y="479" text-anchor="end" class="desc">3.0.0-alpha1</text>
  <text x="426.189439" y="462" class="desc">11719</text>
  <text x="257.000000" y="476" class="desc">2</text>

  <rect x="175" y="500" width="299.574329" rx="2" ry="2" class="call"/>
  <rect x="175" y="514" width="75.000000" rx="2" ry="2" class="gc"/>
  <text x="160" y="517" text-anchor="end">Logback Async-Caller</text>
  <text x="160" y="527" text-anchor="end" class="desc">1.4.11</text>
  <text x="481.574329" y="510" class="desc">14377</text>
  <text x="257.000000" y="524" class="desc">2</text>

  <rect x="175" y="548" width="336.039174" rx="2" ry="2" class="call"/>
  <rect x="175" y="562" width="150.000000" rx="2" ry="2" class="gc"/>
  <text x="160" y="565" text-anchor="end">JUL Sync-NoCaller</text>
  <text x="160" y="575" text-anchor="end" class="desc"></text>
  <text x="518.039174" y="558" class="desc">16127</text>
  <text x="332.000000" y="572" class="desc">4</text>

  <rect x="175" y="596" width="337.060189" rx="2" ry="2" class="call"/>
  <rect x="175" y="610" width="75.000000" rx="2" ry="2" class="gc"/>
  <text x="160" y="613" text-anchor="end">Logback Sync-Caller</text>
  <text x="160" y="623" text-anchor="end" class="desc">1.4.11</text>
  <text x="519.060189" y="606" class="desc">16176</text>
  <text x="257.000000" y="620" class="desc">2</text>

  <rect x="175" y="644" width="350.000000" rx="2" ry="2" class="call"/>
  <rect x="175" y="658" width="150.000000" rx="2" ry="2" class="gc"/>
  <text x="160" y="661" text-anchor="end">JUL Sync-Caller</text>
  <text x="160" y="671" text-anchor="end" class="desc"></text>
  <text x="532.000000" y="654" class="desc">16797</text>
  <text x="332.000000" y="668" class="desc">4</text>

  <text x="175" y="732" class="desc">Java: 19</text>
  <text x="245" y="732" class="desc">Memory: 4072MB</text>
  <text x="345" y="732" class="desc">CPU: Intel(R) Core(TM) i7-3770K CPU @ 3.50GHz 3.501GHz</text>
</svg>
