<svg xmlns="http://www.w3.org/2000/svg" viewBox="0 0 625 838">
  <style>
      text {
          font-family: Arial;
          font-size: 13px;
          fill: #787878;
      }

      .desc {
          font-size: 9px;
      }

      .vline {
          fill: #acacac;
          stroke: none;
          stroke-width: 0;
      }

      .subline {
          fill: #bbb;
          stroke: none;
          stroke-width: 0;
      }

      .call {
          fill: #4886CD;
          stroke-linejoin: round;
          height: 12px;
      }

      .gc {
          fill: #4FB84B;
          stroke-linejoin: round;
          height: 12px;
      }

      .memory {
          fill: #BF4F4B;
          stroke-linejoin: round;
          height: 12px;
      }
  </style>
  <g>
    <rect x="175" y="0" width="1" height="788" class="vline"/>
    <rect x="275" y="0" width="1" height="788" class="vline"/>
    <rect x="375" y="0" width="1" height="788" class="vline"/>
    <rect x="475" y="0" width="1" height="788" class="vline"/>
    <rect x="575" y="0" width="1" height="788" class="vline"/>
    <rect x="225" y="0" width="1" height="788" class="subline"/>
    <rect x="325" y="0" width="1" height="788" class="subline"/>
    <rect x="425" y="0" width="1" height="788" class="subline"/>
    <rect x="525" y="0" width="1" height="788" class="subline"/>
    <rect x="175" y="788" width="450" height="1" class="subline"/>

    <rect x="225" y="796" width="30" class="call"/>
    <text x="265" y="808">ns / call</text>
    <rect x="355" y="796" width="30" class="memory"/>
    <text x="395" y="808">Memory</text>
    <rect x="475" y="796" width="30" class="gc"/>
    <text x="515" y="808">GC</text>
  </g>

  <rect x="175" y="20" width="4.670072" rx="2" ry="2" class="call"/>
  <rect x="175" y="32" width="162.709821" rx="2" ry="2" class="memory"/>
  <rect x="175" y="44" width="11.707317" rx="2" ry="2" class="gc"/>
  <text x="160" y="37" text-anchor="end">TinyLog Sync-NoCaller</text>
  <text x="160" y="47" text-anchor="end" class="desc">2.8.0-M1</text>
  <text x="186.670072" y="30" class="desc">256</text>
  <text x="344.709821" y="42" class="desc">360M</text>
  <text x="193.707317" y="54" class="desc">3</text>

  <rect x="175" y="68" width="6.877411" rx="2" ry="2" class="call"/>
  <rect x="175" y="80" width="3.910540" rx="2" ry="2" class="memory"/>
  <rect x="175" y="92" width="0.000000" rx="2" ry="2" class="gc"/>
  <text x="160" y="85" text-anchor="end">Sinobu Sync-NoCaller</text>
  <text x="160" y="95" text-anchor="end" class="desc">4.0.0</text>
  <text x="188.877411" y="78" class="desc">377</text>
  <text x="185.910540" y="90" class="desc">9M</text>
  <text x="182.000000" y="102" class="desc">0</text>

  <rect x="175" y="116" width="11.365058" rx="2" ry="2" class="call"/>
  <rect x="175" y="128" width="38.465582" rx="2" ry="2" class="memory"/>
  <rect x="175" y="140" width="150.000000" rx="2" ry="2" class="gc"/>
  <text x="160" y="133" text-anchor="end">Logback Async-NoCaller</text>
  <text x="160" y="143" text-anchor="end" class="desc">1.5.11</text>
  <text x="193.365058" y="126" class="desc">623</text>
  <text x="220.465582" y="138" class="desc">85M</text>
  <text x="332.000000" y="150" class="desc">41</text>

  <rect x="175" y="164" width="12.441363" rx="2" ry="2" class="call"/>
  <rect x="175" y="176" width="38.402280" rx="2" ry="2" class="memory"/>
  <rect x="175" y="188" width="134.634146" rx="2" ry="2" class="gc"/>
  <text x="160" y="181" text-anchor="end">Logback Sync-NoCaller</text>
  <text x="160" y="191" text-anchor="end" class="desc">1.5.11</text>
  <text x="194.441363" y="174" class="desc">682</text>
  <text x="220.402280" y="186" class="desc">85M</text>
  <text x="316.634146" y="198" class="desc">36</text>

  <rect x="175" y="212" width="13.499427" rx="2" ry="2" class="call"/>
  <rect x="175" y="224" width="250.000000" rx="2" ry="2" class="memory"/>
  <rect x="175" y="236" width="15.365854" rx="2" ry="2" class="gc"/>
  <text x="160" y="229" text-anchor="end">TinyLog Async-NoCaller</text>
  <text x="160" y="239" text-anchor="end" class="desc">2.8.0-M1</text>
  <text x="195.499427" y="222" class="desc">740</text>
  <text x="432.000000" y="234" class="desc">552M</text>
  <text x="197.365854" y="246" class="desc">4</text>

  <rect x="175" y="260" width="18.826227" rx="2" ry="2" class="call"/>
  <rect x="175" y="272" width="17.599060" rx="2" ry="2" class="memory"/>
  <rect x="175" y="284" width="0.000000" rx="2" ry="2" class="gc"/>
  <text x="160" y="277" text-anchor="end">Log4j Sync-NoCaller</text>
  <text x="160" y="287" text-anchor="end" class="desc">3.0.0-beta2</text>
  <text x="200.826227" y="270" class="desc">1032</text>
  <text x="199.599060" y="282" class="desc">39M</text>
  <text x="182.000000" y="294" class="desc">0</text>

  <rect x="175" y="308" width="20.431565" rx="2" ry="2" class="call"/>
  <rect x="175" y="320" width="16.669663" rx="2" ry="2" class="memory"/>
  <rect x="175" y="332" width="0.000000" rx="2" ry="2" class="gc"/>
  <text x="160" y="325" text-anchor="end">Log4j Async-NoCaller</text>
  <text x="160" y="335" text-anchor="end" class="desc">3.0.0-beta2</text>
  <text x="202.431565" y="318" class="desc">1120</text>
  <text x="198.669663" y="330" class="desc">37M</text>
  <text x="182.000000" y="342" class="desc">0</text>

  <rect x="175" y="356" width="21.781507" rx="2" ry="2" class="call"/>
  <rect x="175" y="368" width="15.771808" rx="2" ry="2" class="memory"/>
  <rect x="175" y="380" width="0.000000" rx="2" ry="2" class="gc"/>
  <text x="160" y="373" text-anchor="end">Log4j Async-Caller</text>
  <text x="160" y="383" text-anchor="end" class="desc">3.0.0-beta2</text>
  <text x="203.781507" y="366" class="desc">1194</text>
  <text x="197.771808" y="378" class="desc">35M</text>
  <text x="182.000000" y="390" class="desc">0</text>

  <rect x="175" y="404" width="94.258835" rx="2" ry="2" class="call"/>
  <rect x="175" y="416" width="38.438798" rx="2" ry="2" class="memory"/>
  <rect x="175" y="428" width="7.317073" rx="2" ry="2" class="gc"/>
  <text x="160" y="421" text-anchor="end">Sinobu Sync-Caller</text>
  <text x="160" y="431" text-anchor="end" class="desc">4.0.0</text>
  <text x="276.258835" y="414" class="desc">5167</text>
  <text x="220.438798" y="426" class="desc">85M</text>
  <text x="189.317073" y="438" class="desc">2</text>

  <rect x="175" y="452" width="107.283957" rx="2" ry="2" class="call"/>
  <rect x="175" y="464" width="38.419760" rx="2" ry="2" class="memory"/>
  <rect x="175" y="476" width="10.975610" rx="2" ry="2" class="gc"/>
  <text x="160" y="469" text-anchor="end">TinyLog Async-Caller</text>
  <text x="160" y="479" text-anchor="end" class="desc">2.8.0-M1</text>
  <text x="289.283957" y="462" class="desc">5881</text>
  <text x="220.419760" y="474" class="desc">85M</text>
  <text x="192.975610" y="486" class="desc">3</text>

  <rect x="175" y="500" width="111.352028" rx="2" ry="2" class="call"/>
  <rect x="175" y="512" width="38.371273" rx="2" ry="2" class="memory"/>
  <rect x="175" y="524" width="10.975610" rx="2" ry="2" class="gc"/>
  <text x="160" y="517" text-anchor="end">TinyLog Sync-Caller</text>
  <text x="160" y="527" text-anchor="end" class="desc">2.8.0-M1</text>
  <text x="293.352028" y="510" class="desc">6104</text>
  <text x="220.371273" y="522" class="desc">85M</text>
  <text x="192.975610" y="534" class="desc">3</text>

  <rect x="175" y="548" width="185.270510" rx="2" ry="2" class="call"/>
  <rect x="175" y="560" width="38.602793" rx="2" ry="2" class="memory"/>
  <rect x="175" y="572" width="7.317073" rx="2" ry="2" class="gc"/>
  <text x="160" y="565" text-anchor="end">Log4j Sync-Caller</text>
  <text x="160" y="575" text-anchor="end" class="desc">3.0.0-beta2</text>
  <text x="367.270510" y="558" class="desc">10156</text>
  <text x="220.602793" y="570" class="desc">85M</text>
  <text x="189.317073" y="582" class="desc">2</text>

  <rect x="175" y="596" width="273.801209" rx="2" ry="2" class="call"/>
  <rect x="175" y="608" width="38.605114" rx="2" ry="2" class="memory"/>
  <rect x="175" y="620" width="10.975610" rx="2" ry="2" class="gc"/>
  <text x="160" y="613" text-anchor="end">Logback Async-Caller</text>
  <text x="160" y="623" text-anchor="end" class="desc">1.5.11</text>
  <text x="455.801209" y="606" class="desc">15009</text>
  <text x="220.605114" y="618" class="desc">85M</text>
  <text x="192.975610" y="630" class="desc">3</text>

  <rect x="175" y="644" width="314.263004" rx="2" ry="2" class="call"/>
  <rect x="175" y="656" width="38.376579" rx="2" ry="2" class="memory"/>
  <rect x="175" y="668" width="14.634146" rx="2" ry="2" class="gc"/>
  <text x="160" y="661" text-anchor="end">JUL Sync-NoCaller</text>
  <text x="160" y="671" text-anchor="end" class="desc"></text>
  <text x="496.263004" y="654" class="desc">17227</text>
  <text x="220.376579" y="666" class="desc">85M</text>
  <text x="196.634146" y="678" class="desc">4</text>

  <rect x="175" y="692" width="314.335974" rx="2" ry="2" class="call"/>
  <rect x="175" y="704" width="38.626885" rx="2" ry="2" class="memory"/>
  <rect x="175" y="716" width="10.975610" rx="2" ry="2" class="gc"/>
  <text x="160" y="709" text-anchor="end">Logback Sync-Caller</text>
  <text x="160" y="719" text-anchor="end" class="desc">1.5.11</text>
  <text x="496.335974" y="702" class="desc">17231</text>
  <text x="220.626885" y="714" class="desc">85M</text>
  <text x="192.975610" y="726" class="desc">3</text>

  <rect x="175" y="740" width="350.000000" rx="2" ry="2" class="call"/>
  <rect x="175" y="752" width="38.395620" rx="2" ry="2" class="memory"/>
  <rect x="175" y="764" width="14.634146" rx="2" ry="2" class="gc"/>
  <text x="160" y="757" text-anchor="end">JUL Sync-Caller</text>
  <text x="160" y="767" text-anchor="end" class="desc"></text>
  <text x="532.000000" y="750" class="desc">19186</text>
  <text x="220.395620" y="762" class="desc">85M</text>
  <text x="196.634146" y="774" class="desc">4</text>

  <text x="175" y="828" class="desc">Java: 21</text>
  <text x="245" y="828" class="desc">Memory: 4072MB</text>
  <text x="345" y="828" class="desc">CPU: Intel(R) Core(TM) i7-3770K CPU @ 3.50GHz 3.501GHz</text>
</svg>
