 <svg xmlns="http://www.w3.org/2000/svg">
     <g>
       <rect x="175" y="0" width="1" height="650" stroke="none" stroke-width="0" fill="#cccccc" />
       <rect x="275" y="0" width="1" height="650" stroke="none" stroke-width="0" fill="#cccccc" />
       <rect x="375" y="0" width="1" height="650" stroke="none" stroke-width="0" fill="#cccccc" />
       <rect x="475" y="0" width="1" height="650" stroke="none" stroke-width="0" fill="#cccccc" />
       <rect x="575" y="0" width="1" height="650" stroke="none" stroke-width="0" fill="#cccccc" />
       <rect x="225" y="0" width="1" height="650" stroke="none" stroke-width="0" fill="#ebebeb" />
       <rect x="325" y="0" width="1" height="650" stroke="none" stroke-width="0" fill="#ebebeb" />
       <rect x="425" y="0" width="1" height="650" stroke="none" stroke-width="0" fill="#ebebeb" />
       <rect x="525" y="0" width="1" height="650" stroke="none" stroke-width="0" fill="#ebebeb" />
       <rect x="175" y="650" width="450" height="1" stroke="none" stroke-width="0" fill="#ebebeb" />
       <text x="400" y="670" font-family="Arial" font-size="13" fill="#666" text-anchor="middle">call / 1sec</text>
    </g>
<g>
    <rect x="175" y="20" width="350.000000" height="25" fill="#FFAB7B" rx="2" ry="2" stroke-linejoin="round"/>
    <text x="160" y="35" font-family="Arial" font-size="13" fill="#666" text-anchor="end">Sinobu Sync-NoCaller</text>
    <text x="375" y="37" font-family="Arial" font-size="11" fill="#666" text-anchor="middle">4543320call  (GC 0)</text>
</g>
<g>
    <rect x="175" y="65" width="228.522732" height="25" fill="#FFAB7B" rx="2" ry="2" stroke-linejoin="round"/>
    <text x="160" y="80" font-family="Arial" font-size="13" fill="#666" text-anchor="end">Log4j2 Async-NoCaller</text>
    <text x="375" y="82" font-family="Arial" font-size="11" fill="#666" text-anchor="middle">2966434call  (GC 1)</text>
</g>
<g>
    <rect x="175" y="110" width="226.256251" height="25" fill="#FFAB7B" rx="2" ry="2" stroke-linejoin="round"/>
    <text x="160" y="125" font-family="Arial" font-size="13" fill="#666" text-anchor="end">Logback Async-NoCaller</text>
    <text x="375" y="127" font-family="Arial" font-size="11" fill="#666" text-anchor="middle">2937013call  (GC 4)</text>
</g>
<g>
    <rect x="175" y="155" width="181.551310" height="25" fill="#FFAB7B" rx="2" ry="2" stroke-linejoin="round"/>
    <text x="160" y="170" font-family="Arial" font-size="13" fill="#666" text-anchor="end">Logback Sync-NoCaller</text>
    <text x="375" y="172" font-family="Arial" font-size="11" fill="#666" text-anchor="middle">2356702call  (GC 4)</text>
</g>
<g>
    <rect x="175" y="200" width="165.646730" height="25" fill="#FFAB7B" rx="2" ry="2" stroke-linejoin="round"/>
    <text x="160" y="215" font-family="Arial" font-size="13" fill="#666" text-anchor="end">Log4j2 Sync-NoCaller</text>
    <text x="375" y="217" font-family="Arial" font-size="11" fill="#666" text-anchor="middle">2150246call  (GC 1)</text>
</g>
<g>
    <rect x="175" y="245" width="20.472287" height="25" fill="#FFAB7B" rx="2" ry="2" stroke-linejoin="round"/>
    <text x="160" y="260" font-family="Arial" font-size="13" fill="#666" text-anchor="end">TinyLog Async-Caller</text>
    <text x="375" y="262" font-family="Arial" font-size="11" fill="#666" text-anchor="middle">265749call  (GC 4)</text>
</g>
<g>
    <rect x="175" y="290" width="20.040576" height="25" fill="#FFAB7B" rx="2" ry="2" stroke-linejoin="round"/>
    <text x="160" y="305" font-family="Arial" font-size="13" fill="#666" text-anchor="end">TinyLog Sync-Caller</text>
    <text x="375" y="307" font-family="Arial" font-size="11" fill="#666" text-anchor="middle">260145call  (GC 4)</text>
</g>
<g>
    <rect x="175" y="335" width="19.491616" height="25" fill="#FFAB7B" rx="2" ry="2" stroke-linejoin="round"/>
    <text x="160" y="350" font-family="Arial" font-size="13" fill="#666" text-anchor="end">Sinobu Sync-Caller</text>
    <text x="375" y="352" font-family="Arial" font-size="11" fill="#666" text-anchor="middle">253019call  (GC 4)</text>
</g>
<g>
    <rect x="175" y="380" width="9.781360" height="25" fill="#FFAB7B" rx="2" ry="2" stroke-linejoin="round"/>
    <text x="160" y="395" font-family="Arial" font-size="13" fill="#666" text-anchor="end">Log4j2 Sync-Caller</text>
    <text x="375" y="397" font-family="Arial" font-size="11" fill="#666" text-anchor="middle">126971call  (GC 3)</text>
</g>
<g>
    <rect x="175" y="425" width="8.314052" height="25" fill="#FFAB7B" rx="2" ry="2" stroke-linejoin="round"/>
    <text x="160" y="440" font-family="Arial" font-size="13" fill="#666" text-anchor="end">Log4j2 Async-Caller</text>
    <text x="375" y="442" font-family="Arial" font-size="11" fill="#666" text-anchor="middle">107924call  (GC 2)</text>
</g>
<g>
    <rect x="175" y="470" width="5.107190" height="25" fill="#FFAB7B" rx="2" ry="2" stroke-linejoin="round"/>
    <text x="160" y="485" font-family="Arial" font-size="13" fill="#666" text-anchor="end">Logback Async-Caller</text>
    <text x="375" y="487" font-family="Arial" font-size="11" fill="#666" text-anchor="middle">66296call  (GC 2)</text>
</g>
<g>
    <rect x="175" y="515" width="4.583267" height="25" fill="#FFAB7B" rx="2" ry="2" stroke-linejoin="round"/>
    <text x="160" y="530" font-family="Arial" font-size="13" fill="#666" text-anchor="end">Logback Sync-Caller</text>
    <text x="375" y="532" font-family="Arial" font-size="11" fill="#666" text-anchor="middle">59495call  (GC 2)</text>
</g>
<g>
    <rect x="175" y="560" width="4.274352" height="25" fill="#FFAB7B" rx="2" ry="2" stroke-linejoin="round"/>
    <text x="160" y="575" font-family="Arial" font-size="13" fill="#666" text-anchor="end">JUL Sync-NoCaller</text>
    <text x="375" y="577" font-family="Arial" font-size="11" fill="#666" text-anchor="middle">55485call  (GC 5)</text>
</g>
<g>
    <rect x="175" y="605" width="4.184913" height="25" fill="#FFAB7B" rx="2" ry="2" stroke-linejoin="round"/>
    <text x="160" y="620" font-family="Arial" font-size="13" fill="#666" text-anchor="end">JUL Sync-Caller</text>
    <text x="375" y="622" font-family="Arial" font-size="11" fill="#666" text-anchor="middle">54324call  (GC 5)</text>
</g>
</svg>
