<svg xmlns="http://www.w3.org/2000/svg" viewBox="0 0 625 742">
  <style>
      text {
          font-family: Arial;
          font-size: 13px;
          fill: #787878;
      }

      .desc {
          font-size: 9px;
      }

      .vline {
          fill: #acacac;
          stroke: none;
          stroke-width: 0;
      }

      .subline {
          fill: #bbb;
          stroke: none;
          stroke-width: 0;
      }

      .call {
          fill: #4886CD;
          stroke-linejoin: round;
          height: 14px;
      }

      .gc {
          fill: #4FB84B;
          stroke-linejoin: round;
          height: 14px;
      }
  </style>
  <g>
    <rect x="175" y="0" width="1" height="692" class="vline"/>
    <rect x="275" y="0" width="1" height="692" class="vline"/>
    <rect x="375" y="0" width="1" height="692" class="vline"/>
    <rect x="475" y="0" width="1" height="692" class="vline"/>
    <rect x="575" y="0" width="1" height="692" class="vline"/>
    <rect x="225" y="0" width="1" height="692" class="subline"/>
    <rect x="325" y="0" width="1" height="692" class="subline"/>
    <rect x="425" y="0" width="1" height="692" class="subline"/>
    <rect x="525" y="0" width="1" height="692" class="subline"/>
    <rect x="175" y="692" width="450" height="1" class="subline"/>

    <rect x="265" y="700" width="30" class="call"/>
    <text x="305" y="712">ns / call</text>
    <rect x="395" y="700" width="30" class="gc"/>
    <text x="435" y="712">GC</text>
  </g>

  <rect x="175" y="20" width="3.662370" rx="2" ry="2" class="call"/>
  <rect x="175" y="34" width="37.826087" rx="2" ry="2" class="gc"/>
  <text x="160" y="37" text-anchor="end">Sinobu Sync-NoCaller</text>
  <text x="160" y="47" text-anchor="end" class="desc">3.11.0</text>
  <text x="185.662370" y="30" class="desc">233</text>
  <text x="219.826087" y="44" class="desc">5</text>

  <rect x="175" y="68" width="5.941528" rx="2" ry="2" class="call"/>
  <rect x="175" y="82" width="150.000000" rx="2" ry="2" class="gc"/>
  <text x="160" y="85" text-anchor="end">Logback Async-NoCaller</text>
  <text x="160" y="95" text-anchor="end" class="desc">1.5.6</text>
  <text x="187.941528" y="78" class="desc">378</text>
  <text x="332.000000" y="92" class="desc">23</text>

  <rect x="175" y="116" width="7.041811" rx="2" ry="2" class="call"/>
  <rect x="175" y="130" width="122.608696" rx="2" ry="2" class="gc"/>
  <text x="160" y="133" text-anchor="end">Logback Sync-NoCaller</text>
  <text x="160" y="143" text-anchor="end" class="desc">1.5.6</text>
  <text x="189.041811" y="126" class="desc">448</text>
  <text x="304.608696" y="140" class="desc">18</text>

  <rect x="175" y="164" width="11.945929" rx="2" ry="2" class="call"/>
  <rect x="175" y="178" width="0.000000" rx="2" ry="2" class="gc"/>
  <text x="160" y="181" text-anchor="end">Log4j Sync-NoCaller</text>
  <text x="160" y="191" text-anchor="end" class="desc">3.0.0-beta2</text>
  <text x="193.945929" y="174" class="desc">760</text>
  <text x="182.000000" y="188" class="desc">0</text>

  <rect x="175" y="212" width="13.926438" rx="2" ry="2" class="call"/>
  <rect x="175" y="226" width="0.000000" rx="2" ry="2" class="gc"/>
  <text x="160" y="229" text-anchor="end">Log4j Async-NoCaller</text>
  <text x="160" y="239" text-anchor="end" class="desc">3.0.0-beta2</text>
  <text x="195.926438" y="222" class="desc">886</text>
  <text x="182.000000" y="236" class="desc">0</text>

  <rect x="175" y="260" width="14.743791" rx="2" ry="2" class="call"/>
  <rect x="175" y="274" width="0.000000" rx="2" ry="2" class="gc"/>
  <text x="160" y="277" text-anchor="end">Log4j Async-Caller</text>
  <text x="160" y="287" text-anchor="end" class="desc">3.0.0-beta2</text>
  <text x="196.743791" y="270" class="desc">938</text>
  <text x="182.000000" y="284" class="desc">0</text>

  <rect x="175" y="308" width="84.816096" rx="2" ry="2" class="call"/>
  <rect x="175" y="322" width="13.043478" rx="2" ry="2" class="gc"/>
  <text x="160" y="325" text-anchor="end">Sinobu Sync-Caller</text>
  <text x="160" y="335" text-anchor="end" class="desc">3.11.0</text>
  <text x="266.816096" y="318" class="desc">5396</text>
  <text x="195.043478" y="332" class="desc">2</text>

  <rect x="175" y="356" width="114.240805" rx="2" ry="2" class="call"/>
  <rect x="175" y="370" width="13.043478" rx="2" ry="2" class="gc"/>
  <text x="160" y="373" text-anchor="end">TinyLog Sync-Caller</text>
  <text x="160" y="383" text-anchor="end" class="desc">2.8.0-M1</text>
  <text x="296.240805" y="366" class="desc">7268</text>
  <text x="195.043478" y="380" class="desc">2</text>

  <rect x="175" y="404" width="118.799120" rx="2" ry="2" class="call"/>
  <rect x="175" y="418" width="13.043478" rx="2" ry="2" class="gc"/>
  <text x="160" y="421" text-anchor="end">TinyLog Async-Caller</text>
  <text x="160" y="431" text-anchor="end" class="desc">2.8.0-M1</text>
  <text x="300.799120" y="414" class="desc">7558</text>
  <text x="195.043478" y="428" class="desc">2</text>

  <rect x="175" y="452" width="176.296762" rx="2" ry="2" class="call"/>
  <rect x="175" y="466" width="13.043478" rx="2" ry="2" class="gc"/>
  <text x="160" y="469" text-anchor="end">Log4j Sync-Caller</text>
  <text x="160" y="479" text-anchor="end" class="desc">3.0.0-beta2</text>
  <text x="358.296762" y="462" class="desc">11216</text>
  <text x="195.043478" y="476" class="desc">2</text>

  <rect x="175" y="500" width="277.695693" rx="2" ry="2" class="call"/>
  <rect x="175" y="514" width="6.521739" rx="2" ry="2" class="gc"/>
  <text x="160" y="517" text-anchor="end">Logback Async-Caller</text>
  <text x="160" y="527" text-anchor="end" class="desc">1.5.6</text>
  <text x="459.695693" y="510" class="desc">17667</text>
  <text x="188.521739" y="524" class="desc">1</text>

  <rect x="175" y="548" width="290.427539" rx="2" ry="2" class="call"/>
  <rect x="175" y="562" width="9.130435" rx="2" ry="2" class="gc"/>
  <text x="160" y="565" text-anchor="end">Logback Sync-Caller</text>
  <text x="160" y="575" text-anchor="end" class="desc">1.5.6</text>
  <text x="472.427539" y="558" class="desc">18477</text>
  <text x="191.130435" y="572" class="desc">1</text>

  <rect x="175" y="596" width="311.851619" rx="2" ry="2" class="call"/>
  <rect x="175" y="610" width="19.565217" rx="2" ry="2" class="gc"/>
  <text x="160" y="613" text-anchor="end">JUL Sync-NoCaller</text>
  <text x="160" y="623" text-anchor="end" class="desc"></text>
  <text x="493.851619" y="606" class="desc">19840</text>
  <text x="201.565217" y="620" class="desc">3</text>

  <rect x="175" y="644" width="350.000000" rx="2" ry="2" class="call"/>
  <rect x="175" y="658" width="18.260870" rx="2" ry="2" class="gc"/>
  <text x="160" y="661" text-anchor="end">JUL Sync-Caller</text>
  <text x="160" y="671" text-anchor="end" class="desc"></text>
  <text x="532.000000" y="654" class="desc">22267</text>
  <text x="200.260870" y="668" class="desc">2</text>

  <text x="175" y="732" class="desc">Java: 21</text>
  <text x="245" y="732" class="desc">Memory: 4072MB</text>
  <text x="345" y="732" class="desc">CPU: Intel(R) Core(TM) i7-3770K CPU @ 3.50GHz 3.501GHz</text>
</svg>
