<svg xmlns="http://www.w3.org/2000/svg" viewBox="0 0 625 742">
  <style>
      text {
          font-family: Arial;
          font-size: 13px;
          fill: #787878;
      }

      .desc {
          font-size: 9px;
      }

      .vline {
          fill: #acacac;
          stroke: none;
          stroke-width: 0;
      }

      .subline {
          fill: #bbb;
          stroke: none;
          stroke-width: 0;
      }

      .call {
          fill: #4886CD;
          stroke-linejoin: round;
          height: 14px;
      }

      .gc {
          fill: #4FB84B;
          stroke-linejoin: round;
          height: 14px;
      }
  </style>
  <g>
    <rect x="175" y="0" width="1" height="692" class="vline"/>
    <rect x="275" y="0" width="1" height="692" class="vline"/>
    <rect x="375" y="0" width="1" height="692" class="vline"/>
    <rect x="475" y="0" width="1" height="692" class="vline"/>
    <rect x="575" y="0" width="1" height="692" class="vline"/>
    <rect x="225" y="0" width="1" height="692" class="subline"/>
    <rect x="325" y="0" width="1" height="692" class="subline"/>
    <rect x="425" y="0" width="1" height="692" class="subline"/>
    <rect x="525" y="0" width="1" height="692" class="subline"/>
    <rect x="175" y="692" width="450" height="1" class="subline"/>

    <rect x="265" y="700" width="30" class="call"/>
    <text x="305" y="712">ns / call</text>
    <rect x="395" y="700" width="30" class="gc"/>
    <text x="435" y="712">GC</text>
  </g>

  <rect x="175" y="20" width="6.538462" rx="2" ry="2" class="call"/>
  <rect x="175" y="34" width="54.545455" rx="2" ry="2" class="gc"/>
  <text x="160" y="37" text-anchor="end">Logback Async-NoCaller</text>
  <text x="160" y="47" text-anchor="end" class="desc">1.4.4</text>
  <text x="188.538462" y="30" class="desc">153</text>
  <text x="236.545455" y="44" class="desc">4</text>

  <rect x="175" y="68" width="6.837607" rx="2" ry="2" class="call"/>
  <rect x="175" y="82" width="54.545455" rx="2" ry="2" class="gc"/>
  <text x="160" y="85" text-anchor="end">Logback Sync-NoCaller</text>
  <text x="160" y="95" text-anchor="end" class="desc">1.4.4</text>
  <text x="188.837607" y="78" class="desc">160</text>
  <text x="236.545455" y="92" class="desc">4</text>

  <rect x="175" y="116" width="7.478632" rx="2" ry="2" class="call"/>
  <rect x="175" y="130" width="0.000000" rx="2" ry="2" class="gc"/>
  <text x="160" y="133" text-anchor="end">Sinobu Sync-NoCaller</text>
  <text x="160" y="143" text-anchor="end" class="desc">2.20.0</text>
  <text x="189.478632" y="126" class="desc">175</text>
  <text x="182.000000" y="140" class="desc">0</text>

  <rect x="175" y="164" width="10.726496" rx="2" ry="2" class="call"/>
  <rect x="175" y="178" width="0.000000" rx="2" ry="2" class="gc"/>
  <text x="160" y="181" text-anchor="end">Log4j Sync-NoCaller</text>
  <text x="160" y="191" text-anchor="end" class="desc">2.19.0</text>
  <text x="192.726496" y="174" class="desc">251</text>
  <text x="182.000000" y="188" class="desc">0</text>

  <rect x="175" y="212" width="11.538462" rx="2" ry="2" class="call"/>
  <rect x="175" y="226" width="0.000000" rx="2" ry="2" class="gc"/>
  <text x="160" y="229" text-anchor="end">Log4j Async-NoCaller</text>
  <text x="160" y="239" text-anchor="end" class="desc">2.19.0</text>
  <text x="193.538462" y="222" class="desc">270</text>
  <text x="182.000000" y="236" class="desc">0</text>

  <rect x="175" y="260" width="78.376068" rx="2" ry="2" class="call"/>
  <rect x="175" y="274" width="95.454545" rx="2" ry="2" class="gc"/>
  <text x="160" y="277" text-anchor="end">TinyLog Sync-Caller</text>
  <text x="160" y="287" text-anchor="end" class="desc">2.6.0-M1</text>
  <text x="260.376068" y="270" class="desc">1834</text>
  <text x="277.454545" y="284" class="desc">7</text>

  <rect x="175" y="308" width="80.384615" rx="2" ry="2" class="call"/>
  <rect x="175" y="322" width="122.727273" rx="2" ry="2" class="gc"/>
  <text x="160" y="325" text-anchor="end">Sinobu Sync-Caller</text>
  <text x="160" y="335" text-anchor="end" class="desc">2.20.0</text>
  <text x="262.384615" y="318" class="desc">1881</text>
  <text x="304.727273" y="332" class="desc">9</text>

  <rect x="175" y="356" width="81.452991" rx="2" ry="2" class="call"/>
  <rect x="175" y="370" width="95.454545" rx="2" ry="2" class="gc"/>
  <text x="160" y="373" text-anchor="end">TinyLog Async-Caller</text>
  <text x="160" y="383" text-anchor="end" class="desc">2.6.0-M1</text>
  <text x="263.452991" y="366" class="desc">1906</text>
  <text x="277.454545" y="380" class="desc">7</text>

  <rect x="175" y="404" width="152.564103" rx="2" ry="2" class="call"/>
  <rect x="175" y="418" width="95.454545" rx="2" ry="2" class="gc"/>
  <text x="160" y="421" text-anchor="end">Log4j Sync-Caller</text>
  <text x="160" y="431" text-anchor="end" class="desc">2.19.0</text>
  <text x="334.564103" y="414" class="desc">3570</text>
  <text x="277.454545" y="428" class="desc">7</text>

  <rect x="175" y="452" width="270.170940" rx="2" ry="2" class="call"/>
  <rect x="175" y="466" width="68.181818" rx="2" ry="2" class="gc"/>
  <text x="160" y="469" text-anchor="end">Logback Sync-Caller</text>
  <text x="160" y="479" text-anchor="end" class="desc">1.4.4</text>
  <text x="452.170940" y="462" class="desc">6322</text>
  <text x="250.181818" y="476" class="desc">5</text>

  <rect x="175" y="500" width="275.427350" rx="2" ry="2" class="call"/>
  <rect x="175" y="514" width="150.000000" rx="2" ry="2" class="gc"/>
  <text x="160" y="517" text-anchor="end">JUL Sync-NoCaller</text>
  <text x="160" y="527" text-anchor="end" class="desc"></text>
  <text x="457.427350" y="510" class="desc">6445</text>
  <text x="332.000000" y="524" class="desc">11</text>

  <rect x="175" y="548" width="277.735043" rx="2" ry="2" class="call"/>
  <rect x="175" y="562" width="54.545455" rx="2" ry="2" class="gc"/>
  <text x="160" y="565" text-anchor="end">Log4j Async-Caller</text>
  <text x="160" y="575" text-anchor="end" class="desc">2.19.0</text>
  <text x="459.735043" y="558" class="desc">6499</text>
  <text x="236.545455" y="572" class="desc">4</text>

  <rect x="175" y="596" width="281.367521" rx="2" ry="2" class="call"/>
  <rect x="175" y="610" width="150.000000" rx="2" ry="2" class="gc"/>
  <text x="160" y="613" text-anchor="end">JUL Sync-Caller</text>
  <text x="160" y="623" text-anchor="end" class="desc"></text>
  <text x="463.367521" y="606" class="desc">6584</text>
  <text x="332.000000" y="620" class="desc">11</text>

  <rect x="175" y="644" width="350.000000" rx="2" ry="2" class="call"/>
  <rect x="175" y="658" width="46.363636" rx="2" ry="2" class="gc"/>
  <text x="160" y="661" text-anchor="end">Logback Async-Caller</text>
  <text x="160" y="671" text-anchor="end" class="desc">1.4.4</text>
  <text x="532.000000" y="654" class="desc">8190</text>
  <text x="228.363636" y="668" class="desc">3</text>

  <text x="175" y="732" class="desc">Java: 19</text>
  <text x="245" y="732" class="desc">Memory: 8128MB</text>
  <text x="345" y="732" class="desc">CPU: 12th Gen Intel(R) Core(TM) i5-12400 2.5GHz</text>
</svg>
