<svg xmlns="http://www.w3.org/2000/svg" viewBox="0 0 625 202">
  <style>
      text {
          font-family: Arial;
          font-size: 13px;
          fill: #787878;
      }

      .desc {
          font-size: 9px;
      }

      .vline {
          fill: #acacac;
          stroke: none;
          stroke-width: 0;
      }

      .subline {
          fill: #bbb;
          stroke: none;
          stroke-width: 0;
      }

      .bar {
          stroke-linejoin: round;
          height: 12px;
      }
  </style>
  <rect x="175" y="0" width="1" height="152" class="vline"/>
  <rect x="275" y="0" width="1" height="152" class="vline"/>
  <rect x="375" y="0" width="1" height="152" class="vline"/>
  <rect x="475" y="0" width="1" height="152" class="vline"/>
  <rect x="575" y="0" width="1" height="152" class="vline"/>
  <rect x="225" y="0" width="1" height="152" class="subline"/>
  <rect x="325" y="0" width="1" height="152" class="subline"/>
  <rect x="425" y="0" width="1" height="152" class="subline"/>
  <rect x="525" y="0" width="1" height="152" class="subline"/>
  <rect x="175" y="152" width="450" height="1" class="subline"/>

  <rect x="205" y="160" width="30" fill="#4886CD" class="bar"/>
  <text x="245" y="172">ns / call</text>
  <rect x="400" y="160" width="30" fill="#4FB84B" class="bar"/>
  <text x="440" y="172">GC</text>
  <text x="160" y="37" text-anchor="end">Sinobu</text>
  <text x="160" y="47" text-anchor="end" class="desc">4.8.0</text>
  <rect x="175" y="20" width="60.09" rx="2" ry="2" fill="#4886CD" class="bar"/>
  <text x="242.09" y="30" class="desc">2449</text>
  <rect x="175" y="32" width="75.00" rx="2" ry="2" fill="#4FB84B" class="bar"/>
  <text x="257.00" y="42" class="desc">3</text>
  <text x="160" y="81" text-anchor="end">Jsoup</text>
  <text x="160" y="91" text-anchor="end" class="desc">1.19.1</text>
  <rect x="175" y="64" width="99.00" rx="2" ry="2" fill="#4886CD" class="bar"/>
  <text x="281.00" y="74" class="desc">4035</text>
  <rect x="175" y="76" width="100.00" rx="2" ry="2" fill="#4FB84B" class="bar"/>
  <text x="282.00" y="86" class="desc">4</text>
  <text x="160" y="125" text-anchor="end">HTMLCleaner</text>
  <text x="160" y="135" text-anchor="end" class="desc">2.29</text>
  <rect x="175" y="108" width="350.00" rx="2" ry="2" fill="#4886CD" class="bar"/>
  <text x="532.00" y="118" class="desc">14265</text>
  <rect x="175" y="120" width="150.00" rx="2" ry="2" fill="#4FB84B" class="bar"/>
  <text x="332.00" y="130" class="desc">6</text>
  <text x="175" y="192" class="desc">Java: 24</text>
  <text x="245" y="192" class="desc">Memory: 4072MB</text>
  <text x="345" y="192" class="desc">CPU: Intel(R) Core(TM) i7-3770K CPU @ 3.50GHz 3.501GHz</text>
</svg>
