<svg xmlns="http://www.w3.org/2000/svg" viewBox="0 0 625 146">
  <style>
      text {
          font-family: Arial;
          font-size: 13px;
          fill: #666;
      }

      .vline {
          fill: #ccc;
          stroke: none;
          stroke-width: 0;
      }

      .subline {
          fill: #ccc;
          stroke: none;
          stroke-width: 0;
      }

      .call {
          fill: #FFAB7B;
          stroke-linejoin: round;
          height: 14px;
      }

      .gc {
          fill: #BA95EB;
          stroke-linejoin: round;
          height: 14px;
      }
  </style>
  <g>
    <rect x="175" y="0" width="1" height="116" class="vline"/>
    <rect x="275" y="0" width="1" height="116" class="vline"/>
    <rect x="375" y="0" width="1" height="116" class="vline"/>
    <rect x="475" y="0" width="1" height="116" class="vline"/>
    <rect x="575" y="0" width="1" height="116" class="vline"/>
    <rect x="225" y="0" width="1" height="116" class="subline"/>
    <rect x="325" y="0" width="1" height="116" class="subline"/>
    <rect x="425" y="0" width="1" height="116" class="subline"/>
    <rect x="525" y="0" width="1" height="116" class="subline"/>
    <rect x="175" y="116" width="450" height="1" class="subline"/>

    <rect x="235" y="124" width="30" class="call"/>
    <text x="275" y="136">ns / call</text>
    <rect x="365" y="124" width="30" class="gc"/>
    <text x="405" y="136">GC</text>
   </g>
  <g>
    <rect x="175" y="20" width="68.091360" rx="2" ry="2" class="call"/>
    <rect x="175" y="34" width="30.174927" rx="2" ry="2" class="gc"/>
    <text x="160" y="37" text-anchor="end">Sinobu</text>
    <text x="253.091360" y="32" font-size="10" fill="#666">2747 ns</text>
    <text x="215.174927" y="46" font-size="10" fill="#666">13 times</text>
  </g>
  <g>
    <rect x="175" y="68" width="350.000000" rx="2" ry="2" class="call"/>
    <rect x="175" y="82" width="150.000000" rx="2" ry="2" class="gc"/>
    <text x="160" y="85" text-anchor="end">Jsoup</text>
    <text x="535.000000" y="80" font-size="10" fill="#666">14120 ns</text>
    <text x="335.000000" y="94" font-size="10" fill="#666">68 times</text>
  </g>
</svg>
