<svg xmlns="http://www.w3.org/2000/svg" viewBox="0 0 625 194">
  <style>
      text {
          font-family: Arial;
          font-size: 13px;
          fill: #787878;
      }

      .desc {
          font-size: 9px;
      }

      .vline {
          fill: #acacac;
          stroke: none;
          stroke-width: 0;
      }

      .subline {
          fill: #bbb;
          stroke: none;
          stroke-width: 0;
      }

      .call {
          fill: #4886CD;
          stroke-linejoin: round;
          height: 14px;
      }

      .gc {
          fill: #4FB84B;
          stroke-linejoin: round;
          height: 14px;
      }
  </style>
  <g>
    <rect x="175" y="0" width="1" height="164" class="vline"/>
    <rect x="275" y="0" width="1" height="164" class="vline"/>
    <rect x="375" y="0" width="1" height="164" class="vline"/>
    <rect x="475" y="0" width="1" height="164" class="vline"/>
    <rect x="575" y="0" width="1" height="164" class="vline"/>
    <rect x="225" y="0" width="1" height="164" class="subline"/>
    <rect x="325" y="0" width="1" height="164" class="subline"/>
    <rect x="425" y="0" width="1" height="164" class="subline"/>
    <rect x="525" y="0" width="1" height="164" class="subline"/>
    <rect x="175" y="164" width="450" height="1" class="subline"/>

    <rect x="265" y="172" width="30" class="call"/>
    <text x="305" y="184">ns / call</text>
    <rect x="395" y="172" width="30" class="gc"/>
    <text x="435" y="184">GC</text>
   </g>
  <g>
    <rect x="175" y="20" width="61.595859" rx="2" ry="2" class="call"/>
    <rect x="175" y="34" width="29.450262" rx="2" ry="2" class="gc"/>
    <text x="160" y="37" text-anchor="end">Sinobu</text>
    <text x="243.595859" y="30" class="desc">2618</text>
    <text x="211.450262" y="44" class="desc">15</text>
  </g>
  <g>
    <rect x="175" y="68" width="293.886125" rx="2" ry="2" class="call"/>
    <rect x="175" y="82" width="150.000000" rx="2" ry="2" class="gc"/>
    <text x="160" y="85" text-anchor="end">Jsoup</text>
    <text x="475.886125" y="78" class="desc">12491</text>
    <text x="332.000000" y="92" class="desc">76</text>
  </g>
  <g>
    <rect x="175" y="116" width="350.000000" rx="2" ry="2" class="call"/>
    <rect x="175" y="130" width="44.764398" rx="2" ry="2" class="gc"/>
    <text x="160" y="133" text-anchor="end">HTMLCleaner</text>
    <text x="532.000000" y="126" class="desc">14876</text>
    <text x="226.764398" y="140" class="desc">22</text>
  </g>
</svg>
