 <svg xmlns="http://www.w3.org/2000/svg">
     <g>
       <rect x="175" y="0" width="1" height="110" stroke="none" stroke-width="0" fill="#cccccc" />
       <rect x="275" y="0" width="1" height="110" stroke="none" stroke-width="0" fill="#cccccc" />
       <rect x="375" y="0" width="1" height="110" stroke="none" stroke-width="0" fill="#cccccc" />
       <rect x="475" y="0" width="1" height="110" stroke="none" stroke-width="0" fill="#cccccc" />
       <rect x="575" y="0" width="1" height="110" stroke="none" stroke-width="0" fill="#cccccc" />
       <rect x="225" y="0" width="1" height="110" stroke="none" stroke-width="0" fill="#ebebeb" />
       <rect x="325" y="0" width="1" height="110" stroke="none" stroke-width="0" fill="#ebebeb" />
       <rect x="425" y="0" width="1" height="110" stroke="none" stroke-width="0" fill="#ebebeb" />
       <rect x="525" y="0" width="1" height="110" stroke="none" stroke-width="0" fill="#ebebeb" />
       <rect x="175" y="110" width="450" height="1" stroke="none" stroke-width="0" fill="#ebebeb" />
       <text x="400" y="130" font-family="Arial" font-size="13" fill="#666" text-anchor="middle">call / 1sec</text>
    </g>
<g>
    <rect x="175" y="20" width="350.000000" height="25" fill="#FFAB7B" rx="2" ry="2" stroke-linejoin="round"/>
    <text x="160" y="35" font-family="Arial" font-size="13" fill="#666" text-anchor="end">Sinobu</text>
    <text x="375" y="37" font-family="Arial" font-size="11" fill="#666" text-anchor="middle">384630call  (GC 14)</text>
</g>
<g>
    <rect x="175" y="65" width="73.610743" height="25" fill="#FFAB7B" rx="2" ry="2" stroke-linejoin="round"/>
    <text x="160" y="80" font-family="Arial" font-size="13" fill="#666" text-anchor="end">Jsoup</text>
    <text x="375" y="82" font-family="Arial" font-size="11" fill="#666" text-anchor="middle">80894call  (GC 77)</text>
</g>
</svg>
