<svg xmlns="http://www.w3.org/2000/svg" viewBox="0 0 625 214">
  <style>
      text {
          font-family: Arial;
          font-size: 13px;
          fill: #787878;
      }

      .desc {
          font-size: 9px;
      }

      .ver {
          font-size: 7px;
      }

      .vline {
          fill: #acacac;
          stroke: none;
          stroke-width: 0;
      }

      .subline {
          fill: #bbb;
          stroke: none;
          stroke-width: 0;
      }

      .call {
          fill: #4886CD;
          stroke-linejoin: round;
          height: 14px;
      }

      .gc {
          fill: #4FB84B;
          stroke-linejoin: round;
          height: 14px;
      }
  </style>
  <g>
    <rect x="175" y="0" width="1" height="164" class="vline"/>
    <rect x="275" y="0" width="1" height="164" class="vline"/>
    <rect x="375" y="0" width="1" height="164" class="vline"/>
    <rect x="475" y="0" width="1" height="164" class="vline"/>
    <rect x="575" y="0" width="1" height="164" class="vline"/>
    <rect x="225" y="0" width="1" height="164" class="subline"/>
    <rect x="325" y="0" width="1" height="164" class="subline"/>
    <rect x="425" y="0" width="1" height="164" class="subline"/>
    <rect x="525" y="0" width="1" height="164" class="subline"/>
    <rect x="175" y="164" width="450" height="1" class="subline"/>

    <rect x="265" y="172" width="30" class="call"/>
    <text x="305" y="184">ns / call</text>
    <rect x="395" y="172" width="30" class="gc"/>
    <text x="435" y="184">GC</text>
  </g>

  <rect x="175" y="20" width="56.720920" rx="2" ry="2" class="call"/>
  <rect x="175" y="34" width="28.529755" rx="2" ry="2" class="gc"/>
  <text x="160" y="37" text-anchor="end">Sinobu</text>
  <text x="160" y="45" text-anchor="end" class="ver">2.20.0</text>
  <text x="238.720920" y="30" class="desc">1155</text>
  <text x="210.529755" y="44" class="desc">32</text>

  <rect x="175" y="68" width="273.930125" rx="2" ry="2" class="call"/>
  <rect x="175" y="82" width="150.000000" rx="2" ry="2" class="gc"/>
  <text x="160" y="85" text-anchor="end">Jsoup</text>
  <text x="160" y="93" text-anchor="end" class="ver">1.15.3</text>
  <text x="455.930125" y="78" class="desc">5578</text>
  <text x="332.000000" y="92" class="desc">171</text>

  <rect x="175" y="116" width="350.000000" rx="2" ry="2" class="call"/>
  <rect x="175" y="130" width="41.656943" rx="2" ry="2" class="gc"/>
  <text x="160" y="133" text-anchor="end">HTMLCleaner</text>
  <text x="160" y="141" text-anchor="end" class="ver">2.26</text>
  <text x="532.000000" y="126" class="desc">7127</text>
  <text x="223.656943" y="140" class="desc">47</text>

  <text x="205" y="204" class="desc">Java: 19</text>
  <text x="275" y="204" class="desc">Memory: 8128MB</text>
  <text x="375" y="204" class="desc">CPU: 12th Gen Intel(R) Core(TM) i5-12400 2.5GHz</text>
</svg>
