<svg xmlns="http://www.w3.org/2000/svg" viewBox="0 0 625 214">
  <style>
      text {
          font-family: Arial;
          font-size: 13px;
          fill: #787878;
      }

      .desc {
          font-size: 9px;
      }

      .vline {
          fill: #acacac;
          stroke: none;
          stroke-width: 0;
      }

      .subline {
          fill: #bbb;
          stroke: none;
          stroke-width: 0;
      }

      .call {
          fill: #4886CD;
          stroke-linejoin: round;
          height: 12px;
      }

      .gc {
          fill: #4FB84B;
          stroke-linejoin: round;
          height: 12px;
      }

      .memory {
          fill: #BF4F4B;
          stroke-linejoin: round;
          height: 12px;
      }
  </style>
  <g>
    <rect x="175" y="0" width="1" height="164" class="vline"/>
    <rect x="275" y="0" width="1" height="164" class="vline"/>
    <rect x="375" y="0" width="1" height="164" class="vline"/>
    <rect x="475" y="0" width="1" height="164" class="vline"/>
    <rect x="575" y="0" width="1" height="164" class="vline"/>
    <rect x="225" y="0" width="1" height="164" class="subline"/>
    <rect x="325" y="0" width="1" height="164" class="subline"/>
    <rect x="425" y="0" width="1" height="164" class="subline"/>
    <rect x="525" y="0" width="1" height="164" class="subline"/>
    <rect x="175" y="164" width="450" height="1" class="subline"/>

    <rect x="225" y="172" width="30" class="call"/>
    <text x="265" y="184">ns / call</text>
    <rect x="355" y="172" width="30" class="memory"/>
    <text x="395" y="184">Memory</text>
    <rect x="475" y="172" width="30" class="gc"/>
    <text x="515" y="184">GC</text>
  </g>

  <rect x="175" y="20" width="64.869514" rx="2" ry="2" class="call"/>
  <rect x="175" y="32" width="250.000000" rx="2" ry="2" class="memory"/>
  <rect x="175" y="44" width="25.507614" rx="2" ry="2" class="gc"/>
  <text x="160" y="37" text-anchor="end">Sinobu</text>
  <text x="160" y="47" text-anchor="end" class="desc">4.0.0</text>
  <text x="246.869514" y="30" class="desc">2855</text>
  <text x="432.000000" y="42" class="desc">83M</text>
  <text x="207.507614" y="54" class="desc">13</text>

  <rect x="175" y="68" width="274.565048" rx="2" ry="2" class="call"/>
  <rect x="175" y="80" width="242.191596" rx="2" ry="2" class="memory"/>
  <rect x="175" y="92" width="150.000000" rx="2" ry="2" class="gc"/>
  <text x="160" y="85" text-anchor="end">Jsoup</text>
  <text x="160" y="95" text-anchor="end" class="desc">1.18.1</text>
  <text x="456.565048" y="78" class="desc">12084</text>
  <text x="424.191596" y="90" class="desc">80M</text>
  <text x="332.000000" y="102" class="desc">78</text>

  <rect x="175" y="116" width="350.000000" rx="2" ry="2" class="call"/>
  <rect x="175" y="128" width="241.526865" rx="2" ry="2" class="memory"/>
  <rect x="175" y="140" width="41.497462" rx="2" ry="2" class="gc"/>
  <text x="160" y="133" text-anchor="end">HTMLCleaner</text>
  <text x="160" y="143" text-anchor="end" class="desc">2.29</text>
  <text x="532.000000" y="126" class="desc">15404</text>
  <text x="423.526865" y="138" class="desc">80M</text>
  <text x="223.497462" y="150" class="desc">21</text>

  <text x="175" y="204" class="desc">Java: 21</text>
  <text x="245" y="204" class="desc">Memory: 4072MB</text>
  <text x="345" y="204" class="desc">CPU: Intel(R) Core(TM) i7-3770K CPU @ 3.50GHz 3.501GHz</text>
</svg>
